<!--
Copyright 2019 DigitalOcean

Licensed under the Apache License, Version 2.0 (the "License");
you may not use this file except in compliance with the License.
You may obtain a copy of the License at

    http://www.apache.org/licenses/LICENSE-2.0

Unless required by applicable law or agreed to in writing, software
distributed under the License is distributed on an "AS IS" BASIS,
WITHOUT WARRANTIES OR CONDITIONS OF ANY KIND, either express or implied.
See the License for the specific language governing permissions and
limitations under the License.
-->

<svg xmlns="http://www.w3.org/2000/svg" viewBox="0 0 401 346.2"><style>.st1,.st2,.st5{fill:none;stroke:#0080ff;stroke-linecap:round;stroke-miterlimit:10}.st2{stroke-width:2}.st5{opacity:.5;enable-background:new}.st7{fill:#0080ff}.st8{fill:#00d688}</style><radialGradient id="SVGID_1_" cx="183.88" cy="171.1" r="167.173" gradientTransform="translate(0 2)" gradientUnits="userSpaceOnUse"><stop offset="0" stop-color="#0072FF" stop-opacity=".15"/><stop offset="1" stop-color="#0072FF" stop-opacity="0"/></radialGradient><circle cx="184.6" cy="173.1" r="173.1" fill="url(#SVGID_1_)"/><path d="M155.5 211.9l29.6-15.3" class="st1"/><path d="M82.2 250l73.3-38.1m-19.2-48.2l-30.4-21.5" class="st2"/><path d="M206.6 213.5l-71-49.9" class="st1"/><path d="M237.6 235.3l-31-21.8m15.2-66l83.7 23.9" class="st2"/><path d="M155.3 128.6l66.3 19" class="st1"/><path d="M105.9 114.3l49.4 14.3" class="st2"/><linearGradient id="SVGID_2_" x1="90.074" x2="272.645" y1="161.796" y2="161.796" gradientTransform="translate(0 2)" gradientUnits="userSpaceOnUse"><stop offset="0" stop-color="#0072FF" stop-opacity=".6"/><stop offset=".297" stop-color="#0072FF" stop-opacity="0"/><stop offset=".691" stop-color="#0072FF" stop-opacity="0"/><stop offset="1" stop-color="#0072FF" stop-opacity=".6"/></linearGradient><path fill="none" stroke="url(#SVGID_2_)" stroke-linecap="round" stroke-miterlimit="10" d="M90.9 199.7c-4.5-12.3 32.5-36.9 82.6-54.8s94.2-22.4 98.6-10"/><linearGradient id="SVGID_3_" x1="107.041" x2="255.045" y1="162.009" y2="162.009" gradientTransform="translate(0 2)" gradientUnits="userSpaceOnUse"><stop offset="0" stop-color="#0072FF" stop-opacity=".6"/><stop offset=".297" stop-color="#0072FF" stop-opacity="0"/><stop offset=".691" stop-color="#0072FF" stop-opacity="0"/><stop offset="1" stop-color="#0072FF" stop-opacity=".6"/></linearGradient><path fill="none" stroke="url(#SVGID_3_)" stroke-linecap="round" stroke-miterlimit="10" d="M107.7 192.3c-3-8.5 27.4-27 68-41.5 40.5-14.4 75.8-19.4 78.8-11"/><path d="M82.2 250l-10.1 48.9" class="st5"/><linearGradient id="SVGID_4_" x1="2.545" x2="82.745" y1="242.55" y2="242.55" gradientTransform="translate(0 2)" gradientUnits="userSpaceOnUse"><stop offset="0" stop-color="#00D688"/><stop offset="1" stop-color="#0080FF"/></linearGradient><path fill="none" stroke="url(#SVGID_4_)" stroke-linecap="round" stroke-miterlimit="10" d="M3 239.1L82.2 250"/><ellipse cx="82.2" cy="250" class="st7" rx="3.5" ry="3.5" transform="rotate(-9 82.157 250.002)"/><ellipse cx="72.1" cy="299.1" class="st7" rx="3.5" ry="3.5" transform="rotate(-9 72.06 299.103)"/><ellipse cx="3" cy="239.1" class="st8" rx="3" ry="3" transform="rotate(-59 2.995 239.08)"/><linearGradient id="SVGID_5_" x1="240.045" x2="291.145" y1="236.25" y2="236.25" gradientTransform="translate(0 2)" gradientUnits="userSpaceOnUse"><stop offset="0" stop-color="#0080FF"/><stop offset="1" stop-color="#00D688"/></linearGradient><path fill="none" stroke="url(#SVGID_5_)" stroke-linecap="round" stroke-miterlimit="10" d="M240.5 237.5l50.1 1.5"/><path d="M240.5 237.5l23.9 53.7" class="st5"/><ellipse cx="290.7" cy="238.9" class="st8" rx="4.1" ry="4.1" transform="rotate(-78 290.737 238.913)"/><ellipse cx="264.4" cy="291.2" class="st7" rx="3.6" ry="3.6" transform="rotate(-52 264.448 291.18)"/><ellipse cx="240.5" cy="237.4" class="st7" rx="3.6" ry="3.6" transform="rotate(-54 240.532 237.43)"/><ellipse cx="106.1" cy="142" class="st7" rx="3.6" ry="3.6" transform="rotate(-54 106.113 142.006)"/><ellipse cx="374.5" cy="130.5" class="st8" rx="2.4" ry="2.4" transform="rotate(-63 374.525 130.514)"/><ellipse cx="109.6" cy="75.6" class="st8" rx="1.5" ry="1.5" transform="rotate(-54 109.613 75.598)"/><ellipse cx="41.3" cy="208.8" class="st7" rx="1.4" ry="1.4" transform="rotate(-29 41.275 208.815)"/><ellipse cx="165.3" cy="264.8" class="st7" rx="1.4" ry="1.4" transform="rotate(-4 165.26 264.813)"/><ellipse cx="138.6" cy="246" class="st7" rx="1.4" ry="1.4" transform="rotate(-4 138.56 246.015)"/><ellipse cx="273.6" cy="255.5" class="st8" rx="2.4" ry="2.4" transform="rotate(-29 273.566 255.513)"/><ellipse cx="18.4" cy="251.5" class="st8" rx="2.4" ry="2.4" transform="rotate(-29 18.365 251.515)"/><ellipse cx="286" cy="256.7" class="st8" rx="1.4" ry="1.4" transform="rotate(-29 285.942 256.682)"/><ellipse cx="305.4" cy="245.5" class="st8" rx="1.4" ry="1.4" transform="rotate(-29 305.344 245.498)"/><ellipse cx="3.2" cy="251.1" class="st8" rx="1.4" ry="1.4" transform="rotate(-29 3.154 251.116)"/><ellipse cx="46.3" cy="262.2" class="st8" rx="1.4" ry="1.4" transform="rotate(-29 46.258 262.215)"/><ellipse cx="13.7" cy="262.3" class="st8" rx="1.4" ry="1.4" transform="rotate(-31 13.744 262.31)"/><ellipse cx="130.5" cy="257.1" class="st7" rx="2.4" ry="2.4" transform="rotate(-4 130.462 257.116)"/><ellipse cx="59.5" cy="207.7" class="st7" rx="2.4" ry="2.4" transform="rotate(-29 59.485 207.71)"/><ellipse cx="175.6" cy="277.3" class="st7" rx="1.7" ry="1.7" transform="rotate(-4 175.566 277.316)"/><ellipse cx="306" cy="216.5" class="st7" rx="2.6" ry="2.6" transform="rotate(-28 305.97 216.49)"/><ellipse cx="309.2" cy="106.2" class="st7" rx="2.6" ry="2.6" transform="rotate(-54 309.192 106.164)"/><ellipse cx="367.4" cy="83.5" class="st7" rx="1.4" ry="1.4" transform="rotate(-4 367.373 83.51)"/><ellipse cx="338" cy="101.2" class="st7" rx="1.4" ry="1.4" transform="rotate(-4 337.973 101.21)"/><ellipse cx="299.8" cy="201.2" class="st7" rx="1.4" ry="1.4" transform="rotate(-4 299.77 201.21)"/><ellipse cx="360.3" cy="98.4" class="st7" rx="2.4" ry="2.4" transform="rotate(-4 360.268 98.41)"/><ellipse cx="295.6" cy="96.4" class="st7" rx="2.4" ry="2.4" transform="rotate(-4 295.565 96.405)"/><ellipse cx="350" cy="72" class="st7" rx="1.7" ry="1.7" transform="rotate(-4 349.97 72.005)"/><ellipse cx="340.8" cy="134" class="st7" rx="1.7" ry="1.7" transform="rotate(-4 340.767 134.007)"/><ellipse cx="22.3" cy="136.7" class="st7" rx="2.6" ry="2.6" transform="rotate(-54 22.268 136.652)"/><ellipse cx="67" cy="85.7" class="st8" rx="1.4" ry="1.4" transform="rotate(-4 66.957 85.708)"/><ellipse cx="15.8" cy="98.9" class="st7" rx="1.4" ry="1.4" transform="rotate(-4 15.755 98.91)"/><ellipse cx="84.7" cy="132.3" class="st7" rx="1.4" ry="1.4" transform="rotate(-4 84.66 132.31)"/><ellipse cx="38.1" cy="96.2" class="st7" rx="2.4" ry="2.4" transform="rotate(-4 38.06 96.21)"/><ellipse cx="65.6" cy="60.3" class="st8" rx="2.4" ry="2.4" transform="rotate(-4 65.558 60.31)"/><ellipse cx="50.1" cy="72.9" class="st8" rx="1.6" ry="1.6" transform="rotate(-4 50.06 72.904)"/><ellipse cx="26.2" cy="111.5" class="st7" rx="1.7" ry="1.7" transform="rotate(-4 26.158 111.505)"/><ellipse cx="263.4" cy="210" class="st7" rx="1.6" ry="1.6" transform="rotate(-63 263.383 210)"/><linearGradient id="SVGID_6_" x1="95.295" x2="95.295" y1="112.1" y2="66.6" gradientTransform="translate(0 2)" gradientUnits="userSpaceOnUse"><stop offset="0" stop-color="#0080FF"/><stop offset="1" stop-color="#00D688"/></linearGradient><path fill="none" stroke="url(#SVGID_6_)" stroke-linecap="round" stroke-miterlimit="10" d="M84.6 69.1l21.3 44.5"/><ellipse cx="84.5" cy="69.1" class="st8" rx="4" ry="4" transform="rotate(-43 84.527 69.143)"/><linearGradient id="SVGID_7_" x1="307.645" x2="397.145" y1="152.9" y2="152.9" gradientTransform="translate(0 2)" gradientUnits="userSpaceOnUse"><stop offset="0" stop-color="#0080FF"/><stop offset="1" stop-color="#00D688"/></linearGradient><path fill="none" stroke="url(#SVGID_7_)" stroke-linecap="round" stroke-miterlimit="10" d="M308.1 173l88.5-36.2"/><path d="M308.1 173l34.3 46.6" class="st5"/><ellipse cx="397.9" cy="136.5" class="st8" rx="3.1" ry="3.1" transform="rotate(-27 397.846 136.514)"/><ellipse cx="342.5" cy="219.6" class="st7" rx="3.6" ry="3.6" transform="rotate(-1 342.475 219.618)"/><ellipse cx="106.1" cy="113.7" class="st7" rx="3.6" ry="3.6" transform="rotate(-54 106.074 113.723)"/><ellipse cx="308.4" cy="172.7" class="st7" rx="3.6" ry="3.6" transform="rotate(-54 308.367 172.728)"/><path fill="#fff" d="M136.1 173.8c0-34.7 46.5-71.9 46.5-71.9s46.5 38.2 46.5 71.9c0 25.7-20.8 46.5-46.5 46.5-25.5 0-46.5-20.8-46.5-46.5z" opacity=".65"/><path fill="none" stroke="#0080ff" stroke-linecap="round" stroke-miterlimit="10" stroke-width="3" d="M136.1 173.8c0-34.7 46.5-71.9 46.5-71.9s46.5 38.2 46.5 71.9c0 25.7-20.8 46.5-46.5 46.5-25.5 0-46.5-20.8-46.5-46.5z"/><path fill="#fff" d="M182.6 122.1l-3.1 2.5c-1.2 1-30.8 24.8-30.8 48.6 0 18.7 15.1 33.9 33.8 33.9h.1c18.7 0 33.8-15.2 33.8-33.9 0-23-29.4-47.5-30.6-48.6l-3.2-2.5z"/><linearGradient id="SVGID_8_" x1="160.129" x2="209.332" y1="152.494" y2="180.901" gradientTransform="translate(0 2)" gradientUnits="userSpaceOnUse"><stop offset="0" stop-color="#0080FF"/><stop offset="1" stop-color="#0080FF" stop-opacity=".2"/></linearGradient><path fill="url(#SVGID_8_)" d="M182.5 201c-15.5 0-28.2-12.7-28.2-28.3 0-20.3 25.7-41.1 26.8-42l1.5-1.1 1.5 1.1c1.1.9 26.8 22.3 26.8 42 0 15.6-12.7 28.3-28.4 28.3z"/><linearGradient id="SVGID_9_" x1="89.945" x2="273.516" y1="168.704" y2="168.704" gradientTransform="translate(0 2)" gradientUnits="userSpaceOnUse"><stop offset="0" stop-color="#0072FF" stop-opacity=".6"/><stop offset=".5" stop-color="#0072FF"/><stop offset="1" stop-color="#0072FF" stop-opacity=".6"/></linearGradient><path fill="none" stroke="url(#SVGID_9_)" stroke-linecap="round" stroke-miterlimit="10" stroke-width="2" d="M272.1 134.8c4.5 12.3-32.5 36.9-82.6 54.8s-94.2 22.4-98.6 10"/><linearGradient id="SVGID_10_" x1="106.845" x2="256.063" y1="167.031" y2="167.031" gradientTransform="translate(0 2)" gradientUnits="userSpaceOnUse"><stop offset="0" stop-color="#0072FF" stop-opacity=".6"/><stop offset=".5" stop-color="#0072FF"/><stop offset="1" stop-color="#0072FF" stop-opacity=".6"/></linearGradient><path fill="none" stroke="url(#SVGID_10_)" stroke-linecap="round" stroke-miterlimit="10" stroke-width="2" d="M254.8 140.5c3.1 8.8-27.2 27.8-67.8 42.3-40.6 14.6-76.1 19.1-79.2 10.2"/><ellipse cx="268.5" cy="113.6" class="st7" rx="1.7" ry="1.7" transform="rotate(-4 268.466 113.61)"/><ellipse cx="388.9" cy="124.1" class="st8" rx="1.4" ry="1.4" transform="rotate(-29 388.858 124.067)"/><ellipse cx="389.9" cy="152.7" class="st8" rx="1.4" ry="1.4" transform="rotate(-29 389.936 152.68)"/></svg>
