<svg viewBox="0 0 1122 239" fill="none" xmlns="http://www.w3.org/2000/svg">
<path d="M1049.58 145.078C1049.62 144.528 1049.21 144.046 1048.66 144.003C1048.11 143.96 1047.63 144.371 1047.58 144.922L1049.58 145.078ZM1034.58 180.5C1034.58 182.672 1035.19 185.051 1036.1 187.476C1037.01 189.909 1038.25 192.453 1039.57 194.965C1042.24 200.053 1045.17 204.929 1046.64 208.851L1048.52 208.149C1046.99 204.071 1043.92 198.947 1041.34 194.035C1040.03 191.547 1038.84 189.091 1037.97 186.774C1037.1 184.449 1036.58 182.328 1036.58 180.5H1034.58ZM1046.64 208.851C1048.09 212.715 1048.95 218.052 1049.13 223.465C1049.31 228.878 1048.81 234.261 1047.62 238.212L1049.54 238.788C1050.81 234.557 1051.31 228.94 1051.13 223.398C1050.94 217.857 1050.07 212.285 1048.52 208.149L1046.64 208.851ZM1047.58 144.922C1046.81 154.825 1044.63 159.619 1042.75 162.445L1044.41 163.555C1046.53 160.381 1048.78 155.238 1049.58 145.078L1047.58 144.922ZM1042.75 162.445C1042.26 163.173 1041.55 164.091 1040.68 165.286C1039.83 166.454 1038.87 167.829 1037.97 169.371C1036.17 172.448 1034.58 176.252 1034.58 180.5H1036.58C1036.58 176.748 1037.99 173.302 1039.69 170.379C1040.54 168.921 1041.46 167.609 1042.29 166.464C1043.11 165.346 1043.9 164.327 1044.41 163.555L1042.75 162.445Z" fill="#0069FF"/>
<path d="M1041.58 145.078C1041.62 144.528 1041.21 144.046 1040.66 144.003C1040.11 143.96 1039.63 144.371 1039.58 144.922L1041.58 145.078ZM1026.58 180.5C1026.58 182.672 1027.19 185.051 1028.1 187.476C1029.01 189.909 1030.25 192.453 1031.57 194.965C1034.24 200.053 1037.17 204.929 1038.64 208.851L1040.52 208.149C1038.99 204.071 1035.92 198.947 1033.34 194.035C1032.03 191.547 1030.84 189.091 1029.97 186.774C1029.1 184.449 1028.58 182.328 1028.58 180.5H1026.58ZM1038.64 208.851C1040.09 212.715 1040.95 218.052 1041.13 223.465C1041.31 228.878 1040.81 234.261 1039.62 238.212L1041.54 238.788C1042.81 234.557 1043.31 228.94 1043.13 223.398C1042.94 217.857 1042.07 212.285 1040.52 208.149L1038.64 208.851ZM1039.58 144.922C1038.81 154.825 1036.63 159.619 1034.75 162.445L1036.41 163.555C1038.53 160.381 1040.78 155.238 1041.58 145.078L1039.58 144.922ZM1034.75 162.445C1034.26 163.173 1033.55 164.091 1032.68 165.286C1031.83 166.454 1030.87 167.829 1029.97 169.371C1028.17 172.448 1026.58 176.252 1026.58 180.5H1028.58C1028.58 176.748 1029.99 173.302 1031.69 170.379C1032.54 168.921 1033.46 167.609 1034.29 166.464C1035.11 165.346 1035.9 164.327 1036.41 163.555L1034.75 162.445Z" fill="#0069FF"/>
<path d="M1032.58 145.078C1032.62 144.528 1032.21 144.046 1031.66 144.003C1031.11 143.96 1030.63 144.371 1030.58 144.922L1032.58 145.078ZM1017.58 180.5C1017.58 182.672 1018.19 185.051 1019.1 187.476C1020.01 189.909 1021.25 192.453 1022.57 194.965C1025.24 200.053 1028.17 204.929 1029.64 208.851L1031.52 208.149C1029.99 204.071 1026.92 198.947 1024.34 194.035C1023.03 191.547 1021.84 189.091 1020.97 186.774C1020.1 184.449 1019.58 182.328 1019.58 180.5H1017.58ZM1029.64 208.851C1031.09 212.715 1031.95 218.052 1032.13 223.465C1032.31 228.878 1031.81 234.261 1030.62 238.212L1032.54 238.788C1033.81 234.557 1034.31 228.94 1034.13 223.398C1033.94 217.857 1033.07 212.285 1031.52 208.149L1029.64 208.851ZM1030.58 144.922C1029.81 154.825 1027.63 159.619 1025.75 162.445L1027.41 163.555C1029.53 160.381 1031.78 155.238 1032.58 145.078L1030.58 144.922ZM1025.75 162.445C1025.26 163.173 1024.55 164.091 1023.68 165.286C1022.83 166.454 1021.87 167.829 1020.97 169.371C1019.17 172.448 1017.58 176.252 1017.58 180.5H1019.58C1019.58 176.748 1020.99 173.302 1022.69 170.379C1023.54 168.921 1024.46 167.609 1025.29 166.464C1026.11 165.346 1026.9 164.327 1027.41 163.555L1025.75 162.445Z" fill="#0069FF"/>
<path d="M1024.58 145.078C1024.62 144.528 1024.21 144.046 1023.66 144.003C1023.11 143.96 1022.63 144.371 1022.58 144.922L1024.58 145.078ZM1009.58 180.5C1009.58 182.672 1010.19 185.051 1011.1 187.476C1012.01 189.909 1013.25 192.453 1014.57 194.965C1017.24 200.053 1020.17 204.929 1021.64 208.851L1023.52 208.149C1021.99 204.071 1018.92 198.947 1016.34 194.035C1015.03 191.547 1013.84 189.091 1012.97 186.774C1012.1 184.449 1011.58 182.328 1011.58 180.5H1009.58ZM1021.64 208.851C1023.09 212.715 1023.95 218.052 1024.13 223.465C1024.31 228.878 1023.81 234.261 1022.62 238.212L1024.54 238.788C1025.81 234.557 1026.31 228.94 1026.13 223.398C1025.94 217.857 1025.07 212.285 1023.52 208.149L1021.64 208.851ZM1022.58 144.922C1021.81 154.825 1019.63 159.619 1017.75 162.445L1019.41 163.555C1021.53 160.381 1023.78 155.238 1024.58 145.078L1022.58 144.922ZM1017.75 162.445C1017.26 163.173 1016.55 164.091 1015.68 165.286C1014.83 166.454 1013.87 167.829 1012.97 169.371C1011.17 172.448 1009.58 176.252 1009.58 180.5H1011.58C1011.58 176.748 1012.99 173.302 1014.69 170.379C1015.54 168.921 1016.46 167.609 1017.29 166.464C1018.11 165.346 1018.9 164.327 1019.41 163.555L1017.75 162.445Z" fill="#0069FF"/>
<path d="M1016.58 145.078C1016.62 144.528 1016.21 144.046 1015.66 144.003C1015.11 143.96 1014.63 144.371 1014.58 144.922L1016.58 145.078ZM1001.58 180.5C1001.58 182.672 1002.19 185.051 1003.1 187.476C1004.01 189.909 1005.25 192.453 1006.57 194.965C1009.24 200.053 1012.17 204.929 1013.64 208.851L1015.52 208.149C1013.99 204.071 1010.92 198.947 1008.34 194.035C1007.03 191.547 1005.84 189.091 1004.97 186.774C1004.1 184.449 1003.58 182.328 1003.58 180.5H1001.58ZM1013.64 208.851C1015.09 212.715 1015.95 218.052 1016.13 223.465C1016.31 228.878 1015.81 234.261 1014.62 238.212L1016.54 238.788C1017.81 234.557 1018.31 228.94 1018.13 223.398C1017.94 217.857 1017.07 212.285 1015.52 208.149L1013.64 208.851ZM1014.58 144.922C1013.81 154.825 1011.63 159.619 1009.75 162.445L1011.41 163.555C1013.53 160.381 1015.78 155.238 1016.58 145.078L1014.58 144.922ZM1009.75 162.445C1009.26 163.173 1008.55 164.091 1007.68 165.286C1006.83 166.454 1005.87 167.829 1004.97 169.371C1003.17 172.448 1001.58 176.252 1001.58 180.5H1003.58C1003.58 176.748 1004.99 173.302 1006.69 170.379C1007.54 168.921 1008.46 167.609 1009.29 166.464C1010.11 165.346 1010.9 164.327 1011.41 163.555L1009.75 162.445Z" fill="#0069FF"/>
<path d="M116.577 185.078C116.62 184.528 116.209 184.046 115.658 184.003C115.108 183.96 114.626 184.371 114.583 184.922L116.577 185.078ZM108.949 237.288L108.071 237.766L108.084 237.79L108.098 237.814L108.949 237.288ZM114.583 184.922C113.807 194.825 111.632 199.619 109.748 202.445L111.412 203.555C113.528 200.381 115.78 195.238 116.577 185.078L114.583 184.922ZM109.748 202.445C109.263 203.173 108.55 204.091 107.678 205.286C106.826 206.454 105.866 207.829 104.966 209.371C103.171 212.448 101.58 216.252 101.58 220.5H103.58C103.58 216.748 104.989 213.302 106.694 210.379C107.544 208.921 108.459 207.609 109.294 206.464C110.11 205.346 110.897 204.327 111.412 203.555L109.748 202.445ZM101.58 220.5C101.58 223.071 102.432 225.941 103.64 228.849C104.854 231.769 106.47 234.821 108.071 237.766L109.828 236.811C108.226 233.865 106.657 230.895 105.487 228.081C104.312 225.253 103.58 222.674 103.58 220.5H101.58ZM108.098 237.814C108.047 237.73 108.041 237.677 108.048 237.709C108.053 237.732 108.06 237.78 108.067 237.862C108.079 238.03 108.08 238.239 108.08 238.5H110.08C110.08 238.261 110.081 237.97 110.061 237.71C110.045 237.502 110.007 237.097 109.8 236.763L108.098 237.814Z" fill="#0069FF"/>
<path d="M123.577 185.078C123.62 184.528 123.209 184.046 122.658 184.003C122.108 183.96 121.626 184.371 121.583 184.922L123.577 185.078ZM115.949 237.288L115.071 237.766L115.084 237.79L115.098 237.814L115.949 237.288ZM121.583 184.922C120.807 194.825 118.632 199.619 116.748 202.445L118.412 203.555C120.528 200.381 122.78 195.238 123.577 185.078L121.583 184.922ZM116.748 202.445C116.263 203.173 115.55 204.091 114.678 205.286C113.826 206.454 112.866 207.829 111.966 209.371C110.171 212.448 108.58 216.252 108.58 220.5H110.58C110.58 216.748 111.989 213.302 113.694 210.379C114.544 208.921 115.459 207.609 116.294 206.464C117.11 205.346 117.897 204.327 118.412 203.555L116.748 202.445ZM108.58 220.5C108.58 223.071 109.432 225.941 110.64 228.849C111.854 231.769 113.47 234.821 115.071 237.766L116.828 236.811C115.226 233.865 113.657 230.895 112.487 228.081C111.312 225.253 110.58 222.674 110.58 220.5H108.58ZM115.098 237.814C115.047 237.73 115.041 237.677 115.048 237.709C115.053 237.732 115.06 237.78 115.067 237.862C115.079 238.03 115.08 238.239 115.08 238.5H117.08C117.08 238.261 117.081 237.97 117.061 237.71C117.045 237.502 117.007 237.097 116.8 236.763L115.098 237.814Z" fill="#0069FF"/>
<path d="M130.577 185.078C130.62 184.528 130.209 184.046 129.658 184.003C129.108 183.96 128.626 184.371 128.583 184.922L130.577 185.078ZM122.949 237.288L122.071 237.766L122.084 237.79L122.098 237.814L122.949 237.288ZM128.583 184.922C127.807 194.825 125.632 199.619 123.748 202.445L125.412 203.555C127.528 200.381 129.78 195.238 130.577 185.078L128.583 184.922ZM123.748 202.445C123.263 203.173 122.55 204.091 121.678 205.286C120.826 206.454 119.866 207.829 118.966 209.371C117.171 212.448 115.58 216.252 115.58 220.5H117.58C117.58 216.748 118.989 213.302 120.694 210.379C121.544 208.921 122.459 207.609 123.294 206.464C124.11 205.346 124.897 204.327 125.412 203.555L123.748 202.445ZM115.58 220.5C115.58 223.071 116.432 225.941 117.64 228.849C118.854 231.769 120.47 234.821 122.071 237.766L123.828 236.811C122.226 233.865 120.657 230.895 119.487 228.081C118.312 225.253 117.58 222.674 117.58 220.5H115.58ZM122.098 237.814C122.047 237.73 122.041 237.677 122.048 237.709C122.053 237.732 122.06 237.78 122.067 237.862C122.079 238.03 122.08 238.239 122.08 238.5H124.08C124.08 238.261 124.081 237.97 124.061 237.71C124.045 237.502 124.007 237.097 123.8 236.763L122.098 237.814Z" fill="#0069FF"/>
<path d="M136.577 185.078C136.62 184.528 136.209 184.046 135.658 184.003C135.108 183.96 134.626 184.371 134.583 184.922L136.577 185.078ZM128.949 237.288L128.071 237.766L128.084 237.79L128.098 237.814L128.949 237.288ZM134.583 184.922C133.807 194.825 131.632 199.619 129.748 202.445L131.412 203.555C133.528 200.381 135.78 195.238 136.577 185.078L134.583 184.922ZM129.748 202.445C129.263 203.173 128.55 204.091 127.678 205.286C126.826 206.454 125.866 207.829 124.966 209.371C123.171 212.448 121.58 216.252 121.58 220.5H123.58C123.58 216.748 124.989 213.302 126.694 210.379C127.544 208.921 128.459 207.609 129.294 206.464C130.11 205.346 130.897 204.327 131.412 203.555L129.748 202.445ZM121.58 220.5C121.58 223.071 122.432 225.941 123.64 228.849C124.854 231.769 126.47 234.821 128.071 237.766L129.828 236.811C128.226 233.865 126.657 230.895 125.487 228.081C124.312 225.253 123.58 222.674 123.58 220.5H121.58ZM128.098 237.814C128.047 237.73 128.041 237.677 128.048 237.709C128.053 237.732 128.06 237.78 128.067 237.862C128.079 238.03 128.08 238.239 128.08 238.5H130.08C130.08 238.261 130.081 237.97 130.061 237.71C130.045 237.502 130.007 237.097 129.8 236.763L128.098 237.814Z" fill="#0069FF"/>
<path d="M855.272 122.922C854.97 123.384 855.099 124.004 855.562 124.306C856.024 124.608 856.644 124.479 856.946 124.017L855.272 122.922ZM856.965 94.1573C857.251 93.6845 857.099 93.0698 856.626 92.7844C856.153 92.499 855.538 92.651 855.253 93.1238L856.965 94.1573ZM856.468 112.243C856.468 111.855 856.582 111.363 856.804 110.749C857.025 110.139 857.316 109.499 857.625 108.798C857.925 108.118 858.24 107.385 858.455 106.667C858.669 105.955 858.812 105.172 858.703 104.404L856.723 104.687C856.773 105.042 856.717 105.502 856.539 106.093C856.364 106.678 856.097 107.307 855.796 107.991C855.503 108.653 855.174 109.376 854.923 110.069C854.674 110.758 854.468 111.509 854.468 112.243H856.468ZM858.703 104.404C858.516 103.097 858.043 102.166 857.576 101.358C857.1 100.536 856.696 99.9353 856.416 99.0976L854.519 99.7301C854.881 100.817 855.439 101.659 855.845 102.36C856.26 103.077 856.589 103.749 856.723 104.687L858.703 104.404ZM856.416 99.0976C855.867 97.451 856.068 95.6433 856.965 94.1573L855.253 93.1238C854.053 95.1112 853.785 97.5278 854.519 99.7301L856.416 99.0976ZM856.946 124.017C857.615 122.993 858.075 122 858.313 120.93C858.55 119.859 858.555 118.765 858.382 117.554L856.402 117.837C856.55 118.872 856.534 119.715 856.36 120.496C856.187 121.276 855.844 122.047 855.272 122.922L856.946 124.017ZM858.382 117.554C858.191 116.218 857.607 115.254 857.186 114.488C856.758 113.71 856.468 113.098 856.468 112.243H854.468C854.468 113.634 854.979 114.625 855.433 115.452C855.894 116.289 856.272 116.928 856.402 117.837L858.382 117.554Z" fill="#0069FF"/>
<path d="M862.97 122.922C862.668 123.384 862.797 124.004 863.259 124.306C863.722 124.608 864.341 124.479 864.644 124.017L862.97 122.922ZM864.663 94.1573C864.948 93.6845 864.796 93.0698 864.324 92.7844C863.851 92.499 863.236 92.651 862.951 93.1238L864.663 94.1573ZM864.165 112.243C864.165 111.855 864.28 111.363 864.502 110.749C864.722 110.139 865.014 109.499 865.323 108.798C865.623 108.118 865.937 107.385 866.153 106.667C866.367 105.955 866.51 105.172 866.4 104.404L864.42 104.687C864.471 105.042 864.414 105.502 864.237 106.093C864.062 106.678 863.795 107.307 863.493 107.991C863.201 108.653 862.871 109.376 862.621 110.069C862.372 110.758 862.165 111.509 862.165 112.243H864.165ZM866.4 104.404C866.214 103.097 865.741 102.166 865.274 101.358C864.797 100.536 864.393 99.9353 864.114 99.0976L862.217 99.7301C862.579 100.817 863.137 101.659 863.543 102.36C863.957 103.077 864.286 103.749 864.42 104.687L866.4 104.404ZM864.114 99.0976C863.565 97.451 863.766 95.6433 864.663 94.1573L862.951 93.1238C861.751 95.1112 861.483 97.5278 862.217 99.7301L864.114 99.0976ZM864.644 124.017C865.313 122.993 865.772 122 866.01 120.93C866.248 119.859 866.253 118.765 866.08 117.554L864.1 117.837C864.248 118.872 864.231 119.715 864.058 120.496C863.884 121.276 863.542 122.047 862.97 122.922L864.644 124.017ZM866.08 117.554C865.889 116.218 865.305 115.254 864.883 114.488C864.456 113.71 864.165 113.098 864.165 112.243H862.165C862.165 113.634 862.676 114.625 863.131 115.452C863.592 116.289 863.97 116.928 864.1 117.837L866.08 117.554Z" fill="#0069FF"/>
<path d="M843.6 88.8295L842.602 88.7796L842.549 89.8295H843.6V88.8295ZM869.58 88.8295V89.8295H870.658L870.577 88.7547L869.58 88.8295ZM847.574 122.922C847.272 123.384 847.402 124.004 847.864 124.306C848.326 124.608 848.946 124.479 849.248 124.017L847.574 122.922ZM849.267 94.1573C849.553 93.6845 849.401 93.0698 848.928 92.7844C848.455 92.499 847.841 92.651 847.555 93.1238L849.267 94.1573ZM843.6 89.8295H869.58V87.8295H843.6V89.8295ZM869.58 88.8295C870.577 88.7547 870.577 88.7542 870.577 88.7536C870.577 88.7534 870.577 88.7528 870.577 88.7523C870.577 88.7513 870.577 88.7501 870.577 88.7487C870.577 88.7459 870.576 88.7423 870.576 88.7379C870.575 88.7292 870.574 88.7175 870.573 88.7027C870.57 88.6733 870.566 88.6319 870.561 88.5793C870.549 88.4743 870.532 88.3247 870.505 88.1368C870.451 87.7613 870.361 87.2312 870.213 86.5977C869.918 85.3348 869.39 83.6389 868.452 81.9328C866.554 78.4825 862.968 75 856.43 75V77C862.079 77 865.069 79.9322 866.699 82.8967C867.525 84.398 867.999 85.9095 868.265 87.0521C868.398 87.6214 868.478 88.0936 868.525 88.4196C868.548 88.5825 868.563 88.7085 868.572 88.7915C868.576 88.8329 868.579 88.8636 868.581 88.8826C868.582 88.8922 868.582 88.8988 868.583 88.9025C868.583 88.9043 868.583 88.9053 868.583 88.9057C868.583 88.9058 868.583 88.9058 868.583 88.9055C868.583 88.9054 868.583 88.9051 868.583 88.9051C868.583 88.9047 868.583 88.9043 869.58 88.8295ZM856.43 75C849.886 75 846.376 78.4884 844.559 81.9499C843.662 83.6591 843.175 85.3573 842.912 86.6209C842.78 87.2549 842.703 87.7854 842.659 88.1612C842.636 88.3492 842.622 88.4989 842.614 88.604C842.609 88.6566 842.607 88.698 842.605 88.7275C842.604 88.7423 842.603 88.754 842.602 88.7628C842.602 88.7671 842.602 88.7707 842.602 88.7735C842.602 88.7749 842.602 88.7761 842.602 88.7771C842.602 88.7776 842.602 88.7782 842.602 88.7785C842.602 88.779 842.602 88.7796 843.6 88.8295C844.599 88.8794 844.599 88.8798 844.599 88.8802C844.599 88.8803 844.599 88.8806 844.599 88.8807C844.599 88.8809 844.599 88.881 844.599 88.8808C844.599 88.8805 844.599 88.8795 844.599 88.8776C844.599 88.874 844.6 88.8674 844.6 88.8579C844.602 88.8388 844.604 88.8082 844.607 88.7668C844.614 88.684 844.626 88.5581 844.645 88.3953C844.683 88.0694 844.751 87.5976 844.87 87.0288C845.108 85.8869 845.543 84.3777 846.33 82.8796C847.88 79.9263 850.785 77 856.43 77V75ZM848.77 112.243C848.77 111.855 848.884 111.363 849.106 110.749C849.327 110.139 849.618 109.499 849.928 108.798C850.228 108.118 850.542 107.385 850.757 106.667C850.971 105.955 851.115 105.172 851.005 104.404L849.025 104.687C849.076 105.042 849.019 105.502 848.842 106.092C848.666 106.678 848.399 107.307 848.098 107.991C847.806 108.653 847.476 109.376 847.225 110.069C846.976 110.758 846.77 111.509 846.77 112.243H848.77ZM851.005 104.404C850.818 103.097 850.346 102.166 849.878 101.358C849.402 100.536 848.998 99.9353 848.719 99.0976L846.821 99.7301C847.183 100.817 847.741 101.659 848.147 102.36C848.562 103.076 848.891 103.749 849.025 104.687L851.005 104.404ZM848.719 99.0976C848.17 97.451 848.371 95.6433 849.267 94.1573L847.555 93.1238C846.356 95.1112 846.087 97.5278 846.821 99.7301L848.719 99.0976ZM849.248 124.017C849.918 122.993 850.377 122 850.615 120.93C850.853 119.859 850.857 118.765 850.684 117.554L848.704 117.837C848.852 118.872 848.836 119.715 848.662 120.496C848.489 121.276 848.146 122.047 847.574 122.922L849.248 124.017ZM850.684 117.554C850.493 116.218 849.909 115.254 849.488 114.488C849.061 113.71 848.77 113.098 848.77 112.243H846.77C846.77 113.634 847.281 114.625 847.736 115.452C848.196 116.289 848.574 116.928 848.704 117.837L850.684 117.554Z" fill="#0069FF"/>
<path d="M17.08 194.5C17.08 193.948 16.6323 193.5 16.08 193.5C15.5277 193.5 15.08 193.948 15.08 194.5H17.08ZM2.07954 187.03C2.09627 186.478 1.66232 186.017 1.11029 186C0.558258 185.984 0.097187 186.418 0.0804588 186.97L2.07954 187.03ZM30.08 212.5C30.08 211.948 29.6323 211.5 29.08 211.5C28.5277 211.5 28.08 211.948 28.08 212.5H30.08ZM15.08 194.5V221H17.08V194.5H15.08ZM15.08 221V238H17.08V221H15.08ZM16.08 221C16.7232 220.234 16.7232 220.234 16.7231 220.234C16.723 220.234 16.7229 220.234 16.7228 220.234C16.7225 220.234 16.7219 220.233 16.7212 220.233C16.7198 220.231 16.7177 220.23 16.7148 220.227C16.709 220.222 16.7002 220.215 16.6886 220.205C16.6653 220.186 16.6306 220.156 16.5851 220.118C16.4941 220.041 16.3601 219.927 16.1888 219.781C15.8462 219.489 15.3544 219.067 14.7595 218.55C13.5691 217.515 11.9678 216.1 10.3214 214.578C8.67273 213.054 6.9894 211.432 5.63021 209.981C4.95035 209.255 4.36091 208.581 3.90064 207.991C3.43001 207.388 3.13485 206.923 2.99915 206.606L1.16086 207.394C1.40015 207.952 1.82374 208.581 2.32381 209.222C2.83425 209.876 3.46746 210.597 4.17041 211.348C5.57685 212.849 7.29977 214.508 8.96364 216.047C10.6297 217.587 12.2472 219.016 13.4474 220.059C14.0477 220.581 14.5443 221.007 14.8911 221.303C15.0645 221.451 15.2005 221.566 15.2934 221.645C15.3398 221.684 15.3755 221.714 15.3996 221.734C15.4117 221.745 15.4209 221.752 15.4271 221.758C15.4302 221.76 15.4326 221.762 15.4342 221.764C15.435 221.764 15.4356 221.765 15.4361 221.765C15.4363 221.765 15.4365 221.765 15.4366 221.766C15.4367 221.766 15.4368 221.766 16.08 221ZM2.99915 206.606C2.86028 206.282 2.71937 205.738 2.59299 204.973C2.46927 204.224 2.3685 203.322 2.28772 202.318C2.12622 200.311 2.04852 197.945 2.01741 195.674C1.98633 193.405 2.00186 191.243 2.02521 189.647C2.03688 188.85 2.05049 188.195 2.06117 187.739C2.06651 187.512 2.07112 187.334 2.07438 187.213C2.07602 187.153 2.07731 187.107 2.0782 187.076C2.07864 187.061 2.07898 187.049 2.07921 187.041C2.07932 187.038 2.07941 187.035 2.07946 187.033C2.07949 187.032 2.07951 187.031 2.07952 187.031C2.07953 187.031 2.07954 187.03 2.07954 187.03C2.07954 187.03 2.07954 187.03 1.08 187C0.0804588 186.97 0.0804555 186.97 0.0804502 186.97C0.080446 186.97 0.0804388 186.97 0.0804303 186.971C0.0804133 186.971 0.0803888 186.972 0.0803569 186.973C0.0802933 186.975 0.0802002 186.978 0.0800791 186.982C0.0798368 186.991 0.079482 187.003 0.0790241 187.019C0.0781085 187.051 0.0767808 187.098 0.0751175 187.159C0.0717909 187.282 0.0671214 187.462 0.0617202 187.692C0.0509187 188.153 0.0371869 188.814 0.0254196 189.618C0.00189425 191.226 -0.0138254 193.408 0.0175938 195.701C0.0489754 197.992 0.127532 200.408 0.294159 202.479C0.377442 203.514 0.483695 204.475 0.619742 205.299C0.753134 206.106 0.924718 206.843 1.16086 207.394L2.99915 206.606ZM28.08 212.5V238H30.08V212.5H28.08Z" fill="#0069FF"/>
<path d="M251.58 158C251.58 157.448 251.132 157 250.58 157C250.028 157 249.58 157.448 249.58 158H251.58ZM236.065 172.175C236.161 171.631 235.799 171.112 235.255 171.015C234.711 170.919 234.192 171.281 234.095 171.825L236.065 172.175ZM267.529 194.684C267.354 194.16 266.788 193.877 266.264 194.051C265.74 194.226 265.457 194.792 265.631 195.316L267.529 194.684ZM238.08 210.5C238.08 209.948 237.632 209.5 237.08 209.5C236.528 209.5 236.08 209.948 236.08 210.5H238.08ZM236.08 220C236.08 220.552 236.528 221 237.08 221C237.632 221 238.08 220.552 238.08 220H236.08ZM238.08 230.5C238.08 229.948 237.632 229.5 237.08 229.5C236.528 229.5 236.08 229.948 236.08 230.5H238.08ZM251.58 205V158H249.58V205H251.58ZM251.58 238.5V226H249.58V238.5H251.58ZM251.58 226V205H249.58V226H251.58ZM250.58 226C251.135 226.832 251.135 226.832 251.135 226.832C251.135 226.832 251.135 226.832 251.136 226.831C251.136 226.831 251.137 226.831 251.138 226.83C251.14 226.829 251.143 226.827 251.146 226.824C251.154 226.819 251.165 226.812 251.179 226.802C251.208 226.783 251.251 226.754 251.306 226.717C251.418 226.642 251.58 226.533 251.788 226.392C252.202 226.111 252.795 225.707 253.509 225.213C254.936 224.225 256.852 222.874 258.801 221.428C260.747 219.984 262.741 218.434 264.318 217.048C265.106 216.356 265.806 215.691 266.348 215.09C266.862 214.52 267.333 213.904 267.529 213.316L265.631 212.684C265.577 212.846 265.36 213.199 264.863 213.75C264.393 214.27 263.757 214.879 262.998 215.546C261.482 216.878 259.538 218.391 257.609 219.822C255.683 221.251 253.787 222.588 252.37 223.568C251.662 224.058 251.075 224.459 250.665 224.737C250.461 224.875 250.3 224.984 250.191 225.057C250.137 225.094 250.095 225.121 250.067 225.14C250.053 225.149 250.042 225.157 250.035 225.161C250.032 225.163 250.029 225.165 250.028 225.166C250.027 225.167 250.026 225.167 250.026 225.168C250.026 225.168 250.025 225.168 250.025 225.168C250.025 225.168 250.025 225.168 250.58 226ZM267.529 213.316C267.821 212.438 268.014 211.016 268.139 209.422C268.267 207.797 268.33 205.895 268.33 204C268.33 202.105 268.267 200.203 268.139 198.578C268.014 196.984 267.821 195.562 267.529 194.684L265.631 195.316C265.839 195.938 266.021 197.141 266.146 198.734C266.268 200.297 266.33 202.145 266.33 204C266.33 205.855 266.268 207.703 266.146 209.266C266.021 210.859 265.839 212.062 265.631 212.684L267.529 213.316ZM250.58 205C251.175 204.196 251.175 204.196 251.175 204.196C251.175 204.196 251.175 204.196 251.175 204.196C251.174 204.196 251.174 204.195 251.173 204.195C251.172 204.194 251.169 204.192 251.166 204.19C251.16 204.185 251.151 204.178 251.138 204.169C251.113 204.15 251.076 204.122 251.027 204.086C250.929 204.013 250.785 203.905 250.601 203.765C250.232 203.487 249.704 203.085 249.067 202.592C247.792 201.605 246.085 200.254 244.348 198.797C242.608 197.336 240.854 195.781 239.48 194.385C238.793 193.686 238.215 193.041 237.785 192.478C237.339 191.894 237.113 191.477 237.042 191.225L235.118 191.775C235.297 192.398 235.712 193.059 236.196 193.692C236.695 194.346 237.336 195.056 238.055 195.787C239.493 197.25 241.302 198.851 243.062 200.328C244.825 201.808 246.555 203.176 247.843 204.173C248.487 204.672 249.021 205.079 249.395 205.361C249.582 205.503 249.729 205.613 249.829 205.688C249.88 205.725 249.918 205.754 249.944 205.773C249.957 205.783 249.967 205.791 249.974 205.796C249.978 205.798 249.98 205.8 249.982 205.801C249.983 205.802 249.983 205.803 249.984 205.803C249.984 205.803 249.984 205.803 249.985 205.803C249.985 205.803 249.985 205.804 250.58 205ZM237.042 191.225C236.578 189.601 236.17 185.734 235.965 181.73C235.76 177.727 235.769 173.838 236.065 172.175L234.095 171.825C233.754 173.746 233.764 177.857 233.968 181.833C234.171 185.808 234.582 189.899 235.118 191.775L237.042 191.225ZM236.08 210.5C236.08 210.507 236.08 210.514 236.08 210.522C236.08 210.529 236.08 210.536 236.08 210.543C236.08 210.551 236.08 210.558 236.08 210.565C236.08 210.572 236.08 210.579 236.08 210.587C236.08 210.594 236.08 210.601 236.08 210.608C236.08 210.615 236.08 210.623 236.08 210.63C236.08 210.637 236.08 210.644 236.08 210.651C236.08 210.658 236.08 210.666 236.08 210.673C236.08 210.68 236.08 210.687 236.08 210.694C236.08 210.701 236.08 210.708 236.08 210.716C236.08 210.723 236.08 210.73 236.08 210.737C236.08 210.744 236.08 210.751 236.08 210.758C236.08 210.765 236.08 210.772 236.08 210.779C236.08 210.787 236.08 210.794 236.08 210.801C236.08 210.808 236.08 210.815 236.08 210.822C236.08 210.829 236.08 210.836 236.08 210.843C236.08 210.85 236.08 210.857 236.08 210.864C236.08 210.871 236.08 210.878 236.08 210.885C236.08 210.892 236.08 210.899 236.08 210.906C236.08 210.913 236.08 210.92 236.08 210.927C236.08 210.935 236.08 210.942 236.08 210.949C236.08 210.955 236.08 210.962 236.08 210.969C236.08 210.976 236.08 210.983 236.08 210.99C236.08 210.997 236.08 211.004 236.08 211.011C236.08 211.018 236.08 211.025 236.08 211.032C236.08 211.039 236.08 211.046 236.08 211.053C236.08 211.06 236.08 211.067 236.08 211.074C236.08 211.081 236.08 211.088 236.08 211.095C236.08 211.101 236.08 211.108 236.08 211.115C236.08 211.122 236.08 211.129 236.08 211.136C236.08 211.143 236.08 211.15 236.08 211.157C236.08 211.164 236.08 211.17 236.08 211.177C236.08 211.184 236.08 211.191 236.08 211.198C236.08 211.205 236.08 211.212 236.08 211.218C236.08 211.225 236.08 211.232 236.08 211.239C236.08 211.246 236.08 211.253 236.08 211.26C236.08 211.266 236.08 211.273 236.08 211.28C236.08 211.287 236.08 211.294 236.08 211.3C236.08 211.307 236.08 211.314 236.08 211.321C236.08 211.328 236.08 211.334 236.08 211.341C236.08 211.348 236.08 211.355 236.08 211.362C236.08 211.368 236.08 211.375 236.08 211.382C236.08 211.389 236.08 211.395 236.08 211.402C236.08 211.409 236.08 211.416 236.08 211.422C236.08 211.429 236.08 211.436 236.08 211.443C236.08 211.449 236.08 211.456 236.08 211.463C236.08 211.47 236.08 211.476 236.08 211.483C236.08 211.49 236.08 211.496 236.08 211.503C236.08 211.51 236.08 211.517 236.08 211.523C236.08 211.53 236.08 211.537 236.08 211.543C236.08 211.55 236.08 211.557 236.08 211.563C236.08 211.57 236.08 211.577 236.08 211.583C236.08 211.59 236.08 211.597 236.08 211.603C236.08 211.61 236.08 211.617 236.08 211.623C236.08 211.63 236.08 211.637 236.08 211.643C236.08 211.65 236.08 211.656 236.08 211.663C236.08 211.67 236.08 211.676 236.08 211.683C236.08 211.69 236.08 211.696 236.08 211.703C236.08 211.709 236.08 211.716 236.08 211.723C236.08 211.729 236.08 211.736 236.08 211.742C236.08 211.749 236.08 211.756 236.08 211.762C236.08 211.769 236.08 211.775 236.08 211.782C236.08 211.788 236.08 211.795 236.08 211.802C236.08 211.808 236.08 211.815 236.08 211.821C236.08 211.828 236.08 211.834 236.08 211.841C236.08 211.847 236.08 211.854 236.08 211.86C236.08 211.867 236.08 211.874 236.08 211.88C236.08 211.887 236.08 211.893 236.08 211.9C236.08 211.906 236.08 211.913 236.08 211.919C236.08 211.926 236.08 211.932 236.08 211.939C236.08 211.945 236.08 211.952 236.08 211.958C236.08 211.965 236.08 211.971 236.08 211.978C236.08 211.984 236.08 211.99 236.08 211.997C236.08 212.003 236.08 212.01 236.08 212.016C236.08 212.023 236.08 212.029 236.08 212.036C236.08 212.042 236.08 212.049 236.08 212.055C236.08 212.061 236.08 212.068 236.08 212.074C236.08 212.081 236.08 212.087 236.08 212.094C236.08 212.1 236.08 212.106 236.08 212.113C236.08 212.119 236.08 212.126 236.08 212.132C236.08 212.139 236.08 212.145 236.08 212.151C236.08 212.158 236.08 212.164 236.08 212.17C236.08 212.177 236.08 212.183 236.08 212.19C236.08 212.196 236.08 212.202 236.08 212.209C236.08 212.215 236.08 212.222 236.08 212.228C236.08 212.234 236.08 212.241 236.08 212.247C236.08 212.253 236.08 212.26 236.08 212.266C236.08 212.272 236.08 212.279 236.08 212.285C236.08 212.291 236.08 212.298 236.08 212.304C236.08 212.31 236.08 212.317 236.08 212.323C236.08 212.329 236.08 212.336 236.08 212.342C236.08 212.348 236.08 212.355 236.08 212.361C236.08 212.367 236.08 212.374 236.08 212.38C236.08 212.386 236.08 212.392 236.08 212.399C236.08 212.405 236.08 212.411 236.08 212.418C236.08 212.424 236.08 212.43 236.08 212.436C236.08 212.443 236.08 212.449 236.08 212.455C236.08 212.462 236.08 212.468 236.08 212.474C236.08 212.48 236.08 212.487 236.08 212.493C236.08 212.499 236.08 212.505 236.08 212.512C236.08 212.518 236.08 212.524 236.08 212.53C236.08 212.537 236.08 212.543 236.08 212.549C236.08 212.555 236.08 212.561 236.08 212.568C236.08 212.574 236.08 212.58 236.08 212.586C236.08 212.593 236.08 212.599 236.08 212.605C236.08 212.611 236.08 212.617 236.08 212.624C236.08 212.63 236.08 212.636 236.08 212.642C236.08 212.648 236.08 212.655 236.08 212.661C236.08 212.667 236.08 212.673 236.08 212.679C236.08 212.685 236.08 212.692 236.08 212.698C236.08 212.704 236.08 212.71 236.08 212.716C236.08 212.722 236.08 212.729 236.08 212.735C236.08 212.741 236.08 212.747 236.08 212.753C236.08 212.759 236.08 212.766 236.08 212.772C236.08 212.778 236.08 212.784 236.08 212.79C236.08 212.796 236.08 212.802 236.08 212.809C236.08 212.815 236.08 212.821 236.08 212.827C236.08 212.833 236.08 212.839 236.08 212.845C236.08 212.851 236.08 212.858 236.08 212.864C236.08 212.87 236.08 212.876 236.08 212.882C236.08 212.888 236.08 212.894 236.08 212.9C236.08 212.906 236.08 212.912 236.08 212.919C236.08 212.925 236.08 212.931 236.08 212.937C236.08 212.943 236.08 212.949 236.08 212.955C236.08 212.961 236.08 212.967 236.08 212.973C236.08 212.979 236.08 212.985 236.08 212.991C236.08 212.998 236.08 213.004 236.08 213.01C236.08 213.016 236.08 213.022 236.08 213.028C236.08 213.034 236.08 213.04 236.08 213.046C236.08 213.052 236.08 213.058 236.08 213.064C236.08 213.07 236.08 213.076 236.08 213.082C236.08 213.088 236.08 213.094 236.08 213.1C236.08 213.106 236.08 213.112 236.08 213.118C236.08 213.124 236.08 213.13 236.08 213.136C236.08 213.142 236.08 213.148 236.08 213.154C236.08 213.16 236.08 213.166 236.08 213.172C236.08 213.178 236.08 213.184 236.08 213.19C236.08 213.196 236.08 213.202 236.08 213.208C236.08 213.214 236.08 213.22 236.08 213.226C236.08 213.232 236.08 213.238 236.08 213.244C236.08 213.25 236.08 213.256 236.08 213.262C236.08 213.268 236.08 213.274 236.08 213.28C236.08 213.286 236.08 213.292 236.08 213.298C236.08 213.304 236.08 213.31 236.08 213.316C236.08 213.322 236.08 213.328 236.08 213.334C236.08 213.34 236.08 213.346 236.08 213.352C236.08 213.358 236.08 213.364 236.08 213.37C236.08 213.376 236.08 213.381 236.08 213.387C236.08 213.393 236.08 213.399 236.08 213.405C236.08 213.411 236.08 213.417 236.08 213.423C236.08 213.429 236.08 213.435 236.08 213.441C236.08 213.447 236.08 213.453 236.08 213.459C236.08 213.464 236.08 213.47 236.08 213.476C236.08 213.482 236.08 213.488 236.08 213.494C236.08 213.5 236.08 213.506 236.08 213.512C236.08 213.518 236.08 213.524 236.08 213.529C236.08 213.535 236.08 213.541 236.08 213.547C236.08 213.553 236.08 213.559 236.08 213.565C236.08 213.571 236.08 213.577 236.08 213.582C236.08 213.588 236.08 213.594 236.08 213.6C236.08 213.606 236.08 213.612 236.08 213.618C236.08 213.624 236.08 213.629 236.08 213.635C236.08 213.641 236.08 213.647 236.08 213.653C236.08 213.659 236.08 213.665 236.08 213.67C236.08 213.676 236.08 213.682 236.08 213.688C236.08 213.694 236.08 213.7 236.08 213.706C236.08 213.711 236.08 213.717 236.08 213.723C236.08 213.729 236.08 213.735 236.08 213.741C236.08 213.747 236.08 213.752 236.08 213.758C236.08 213.764 236.08 213.77 236.08 213.776C236.08 213.782 236.08 213.787 236.08 213.793C236.08 213.799 236.08 213.805 236.08 213.811C236.08 213.817 236.08 213.822 236.08 213.828C236.08 213.834 236.08 213.84 236.08 213.846C236.08 213.851 236.08 213.857 236.08 213.863C236.08 213.869 236.08 213.875 236.08 213.881C236.08 213.886 236.08 213.892 236.08 213.898C236.08 213.904 236.08 213.91 236.08 213.915C236.08 213.921 236.08 213.927 236.08 213.933C236.08 213.939 236.08 213.944 236.08 213.95C236.08 213.956 236.08 213.962 236.08 213.968C236.08 213.973 236.08 213.979 236.08 213.985C236.08 213.991 236.08 213.996 236.08 214.002C236.08 214.008 236.08 214.014 236.08 214.02C236.08 214.025 236.08 214.031 236.08 214.037C236.08 214.043 236.08 214.048 236.08 214.054C236.08 214.06 236.08 214.066 236.08 214.072C236.08 214.077 236.08 214.083 236.08 214.089C236.08 214.095 236.08 214.1 236.08 214.106C236.08 214.112 236.08 214.118 236.08 214.123C236.08 214.129 236.08 214.135 236.08 214.141C236.08 214.146 236.08 214.152 236.08 214.158C236.08 214.164 236.08 214.17 236.08 214.175C236.08 214.181 236.08 214.187 236.08 214.193C236.08 214.198 236.08 214.204 236.08 214.21C236.08 214.215 236.08 214.221 236.08 214.227C236.08 214.233 236.08 214.238 236.08 214.244C236.08 214.25 236.08 214.256 236.08 214.261C236.08 214.267 236.08 214.273 236.08 214.279C236.08 214.284 236.08 214.29 236.08 214.296C236.08 214.302 236.08 214.307 236.08 214.313C236.08 214.319 236.08 214.324 236.08 214.33C236.08 214.336 236.08 214.342 236.08 214.347C236.08 214.353 236.08 214.359 236.08 214.365C236.08 214.37 236.08 214.376 236.08 214.382C236.08 214.387 236.08 214.393 236.08 214.399C236.08 214.405 236.08 214.41 236.08 214.416C236.08 214.422 236.08 214.427 236.08 214.433C236.08 214.439 236.08 214.445 236.08 214.45C236.08 214.456 236.08 214.462 236.08 214.467C236.08 214.473 236.08 214.479 236.08 214.484C236.08 214.49 236.08 214.496 236.08 214.502C236.08 214.507 236.08 214.513 236.08 214.519C236.08 214.524 236.08 214.53 236.08 214.536C236.08 214.541 236.08 214.547 236.08 214.553C236.08 214.559 236.08 214.564 236.08 214.57C236.08 214.576 236.08 214.581 236.08 214.587C236.08 214.593 236.08 214.598 236.08 214.604C236.08 214.61 236.08 214.615 236.08 214.621C236.08 214.627 236.08 214.633 236.08 214.638C236.08 214.644 236.08 214.65 236.08 214.655C236.08 214.661 236.08 214.667 236.08 214.672C236.08 214.678 236.08 214.684 236.08 214.689C236.08 214.695 236.08 214.701 236.08 214.706C236.08 214.712 236.08 214.718 236.08 214.723C236.08 214.729 236.08 214.735 236.08 214.74C236.08 214.746 236.08 214.752 236.08 214.757C236.08 214.763 236.08 214.769 236.08 214.775C236.08 214.78 236.08 214.786 236.08 214.792C236.08 214.797 236.08 214.803 236.08 214.809C236.08 214.814 236.08 214.82 236.08 214.826C236.08 214.831 236.08 214.837 236.08 214.843C236.08 214.848 236.08 214.854 236.08 214.86C236.08 214.865 236.08 214.871 236.08 214.877C236.08 214.882 236.08 214.888 236.08 214.894C236.08 214.899 236.08 214.905 236.08 214.911C236.08 214.916 236.08 214.922 236.08 214.928C236.08 214.933 236.08 214.939 236.08 214.945C236.08 214.95 236.08 214.956 236.08 214.962C236.08 214.967 236.08 214.973 236.08 214.978C236.08 214.984 236.08 214.99 236.08 214.995C236.08 215.001 236.08 215.007 236.08 215.012C236.08 215.018 236.08 215.024 236.08 215.029C236.08 215.035 236.08 215.041 236.08 215.046C236.08 215.052 236.08 215.058 236.08 215.063C236.08 215.069 236.08 215.075 236.08 215.08C236.08 215.086 236.08 215.092 236.08 215.097C236.08 215.103 236.08 215.109 236.08 215.114C236.08 215.12 236.08 215.126 236.08 215.131C236.08 215.137 236.08 215.143 236.08 215.148C236.08 215.154 236.08 215.16 236.08 215.165C236.08 215.171 236.08 215.176 236.08 215.182C236.08 215.188 236.08 215.193 236.08 215.199C236.08 215.205 236.08 215.21 236.08 215.216C236.08 215.222 236.08 215.227 236.08 215.233C236.08 215.239 236.08 215.244 236.08 215.25C236.08 215.256 236.08 215.261 236.08 215.267C236.08 215.273 236.08 215.278 236.08 215.284C236.08 215.29 236.08 215.295 236.08 215.301C236.08 215.307 236.08 215.312 236.08 215.318C236.08 215.324 236.08 215.329 236.08 215.335C236.08 215.34 236.08 215.346 236.08 215.352C236.08 215.357 236.08 215.363 236.08 215.369C236.08 215.374 236.08 215.38 236.08 215.386C236.08 215.391 236.08 215.397 236.08 215.403C236.08 215.408 236.08 215.414 236.08 215.42C236.08 215.425 236.08 215.431 236.08 215.437C236.08 215.442 236.08 215.448 236.08 215.454C236.08 215.459 236.08 215.465 236.08 215.471C236.08 215.476 236.08 215.482 236.08 215.488C236.08 215.493 236.08 215.499 236.08 215.505C236.08 215.51 236.08 215.516 236.08 215.522C236.08 215.527 236.08 215.533 236.08 215.538C236.08 215.544 236.08 215.55 236.08 215.555C236.08 215.561 236.08 215.567 236.08 215.572C236.08 215.578 236.08 215.584 236.08 215.589C236.08 215.595 236.08 215.601 236.08 215.606C236.08 215.612 236.08 215.618 236.08 215.623C236.08 215.629 236.08 215.635 236.08 215.64C236.08 215.646 236.08 215.652 236.08 215.657C236.08 215.663 236.08 215.669 236.08 215.674C236.08 215.68 236.08 215.686 236.08 215.691C236.08 215.697 236.08 215.703 236.08 215.708C236.08 215.714 236.08 215.72 236.08 215.725C236.08 215.731 236.08 215.737 236.08 215.743C236.08 215.748 236.08 215.754 236.08 215.76C236.08 215.765 236.08 215.771 236.08 215.777C236.08 215.782 236.08 215.788 236.08 215.794C236.08 215.799 236.08 215.805 236.08 215.811C236.08 215.816 236.08 215.822 236.08 215.828C236.08 215.833 236.08 215.839 236.08 215.845C236.08 215.85 236.08 215.856 236.08 215.862C236.08 215.867 236.08 215.873 236.08 215.879C236.08 215.885 236.08 215.89 236.08 215.896C236.08 215.902 236.08 215.907 236.08 215.913C236.08 215.919 236.08 215.924 236.08 215.93C236.08 215.936 236.08 215.941 236.08 215.947C236.08 215.953 236.08 215.959 236.08 215.964C236.08 215.97 236.08 215.976 236.08 215.981C236.08 215.987 236.08 215.993 236.08 215.998C236.08 216.004 236.08 216.01 236.08 216.016C236.08 216.021 236.08 216.027 236.08 216.033C236.08 216.038 236.08 216.044 236.08 216.05C236.08 216.055 236.08 216.061 236.08 216.067C236.08 216.073 236.08 216.078 236.08 216.084C236.08 216.09 236.08 216.095 236.08 216.101C236.08 216.107 236.08 216.113 236.08 216.118C236.08 216.124 236.08 216.13 236.08 216.135C236.08 216.141 236.08 216.147 236.08 216.153C236.08 216.158 236.08 216.164 236.08 216.17C236.08 216.176 236.08 216.181 236.08 216.187C236.08 216.193 236.08 216.198 236.08 216.204C236.08 216.21 236.08 216.216 236.08 216.221C236.08 216.227 236.08 216.233 236.08 216.239C236.08 216.244 236.08 216.25 236.08 216.256C236.08 216.262 236.08 216.267 236.08 216.273C236.08 216.279 236.08 216.285 236.08 216.29C236.08 216.296 236.08 216.302 236.08 216.307C236.08 216.313 236.08 216.319 236.08 216.325C236.08 216.33 236.08 216.336 236.08 216.342C236.08 216.348 236.08 216.354 236.08 216.359C236.08 216.365 236.08 216.371 236.08 216.377C236.08 216.382 236.08 216.388 236.08 216.394C236.08 216.4 236.08 216.405 236.08 216.411C236.08 216.417 236.08 216.423 236.08 216.428C236.08 216.434 236.08 216.44 236.08 216.446C236.08 216.452 236.08 216.457 236.08 216.463C236.08 216.469 236.08 216.475 236.08 216.48C236.08 216.486 236.08 216.492 236.08 216.498C236.08 216.504 236.08 216.509 236.08 216.515C236.08 216.521 236.08 216.527 236.08 216.532C236.08 216.538 236.08 216.544 236.08 216.55C236.08 216.556 236.08 216.561 236.08 216.567C236.08 216.573 236.08 216.579 236.08 216.585C236.08 216.59 236.08 216.596 236.08 216.602C236.08 216.608 236.08 216.614 236.08 216.619C236.08 216.625 236.08 216.631 236.08 216.637C236.08 216.643 236.08 216.649 236.08 216.654C236.08 216.66 236.08 216.666 236.08 216.672C236.08 216.678 236.08 216.683 236.08 216.689C236.08 216.695 236.08 216.701 236.08 216.707C236.08 216.713 236.08 216.718 236.08 216.724C236.08 216.73 236.08 216.736 236.08 216.742C236.08 216.748 236.08 216.753 236.08 216.759C236.08 216.765 236.08 216.771 236.08 216.777C236.08 216.783 236.08 216.789 236.08 216.794C236.08 216.8 236.08 216.806 236.08 216.812C236.08 216.818 236.08 216.824 236.08 216.83C236.08 216.835 236.08 216.841 236.08 216.847C236.08 216.853 236.08 216.859 236.08 216.865C236.08 216.871 236.08 216.876 236.08 216.882C236.08 216.888 236.08 216.894 236.08 216.9C236.08 216.906 236.08 216.912 236.08 216.918C236.08 216.923 236.08 216.929 236.08 216.935C236.08 216.941 236.08 216.947 236.08 216.953C236.08 216.959 236.08 216.965 236.08 216.971C236.08 216.976 236.08 216.982 236.08 216.988C236.08 216.994 236.08 217 236.08 217.006C236.08 217.012 236.08 217.018 236.08 217.024C236.08 217.03 236.08 217.036 236.08 217.041C236.08 217.047 236.08 217.053 236.08 217.059C236.08 217.065 236.08 217.071 236.08 217.077C236.08 217.083 236.08 217.089 236.08 217.095C236.08 217.101 236.08 217.107 236.08 217.113C236.08 217.119 236.08 217.124 236.08 217.13C236.08 217.136 236.08 217.142 236.08 217.148C236.08 217.154 236.08 217.16 236.08 217.166C236.08 217.172 236.08 217.178 236.08 217.184C236.08 217.19 236.08 217.196 236.08 217.202C236.08 217.208 236.08 217.214 236.08 217.22C236.08 217.226 236.08 217.232 236.08 217.238C236.08 217.244 236.08 217.25 236.08 217.256C236.08 217.262 236.08 217.268 236.08 217.274C236.08 217.28 236.08 217.286 236.08 217.292C236.08 217.298 236.08 217.304 236.08 217.31C236.08 217.316 236.08 217.322 236.08 217.328C236.08 217.334 236.08 217.34 236.08 217.346C236.08 217.352 236.08 217.358 236.08 217.364C236.08 217.37 236.08 217.376 236.08 217.382C236.08 217.388 236.08 217.394 236.08 217.4C236.08 217.406 236.08 217.412 236.08 217.418C236.08 217.424 236.08 217.43 236.08 217.436C236.08 217.442 236.08 217.448 236.08 217.454C236.08 217.46 236.08 217.466 236.08 217.472C236.08 217.478 236.08 217.484 236.08 217.49C236.08 217.496 236.08 217.502 236.08 217.509C236.08 217.515 236.08 217.521 236.08 217.527C236.08 217.533 236.08 217.539 236.08 217.545C236.08 217.551 236.08 217.557 236.08 217.563C236.08 217.569 236.08 217.575 236.08 217.581C236.08 217.588 236.08 217.594 236.08 217.6C236.08 217.606 236.08 217.612 236.08 217.618C236.08 217.624 236.08 217.63 236.08 217.636C236.08 217.642 236.08 217.649 236.08 217.655C236.08 217.661 236.08 217.667 236.08 217.673C236.08 217.679 236.08 217.685 236.08 217.691C236.08 217.698 236.08 217.704 236.08 217.71C236.08 217.716 236.08 217.722 236.08 217.728C236.08 217.734 236.08 217.741 236.08 217.747C236.08 217.753 236.08 217.759 236.08 217.765C236.08 217.771 236.08 217.778 236.08 217.784C236.08 217.79 236.08 217.796 236.08 217.802C236.08 217.808 236.08 217.815 236.08 217.821C236.08 217.827 236.08 217.833 236.08 217.839C236.08 217.845 236.08 217.852 236.08 217.858C236.08 217.864 236.08 217.87 236.08 217.876C236.08 217.883 236.08 217.889 236.08 217.895C236.08 217.901 236.08 217.907 236.08 217.914C236.08 217.92 236.08 217.926 236.08 217.932C236.08 217.939 236.08 217.945 236.08 217.951C236.08 217.957 236.08 217.963 236.08 217.97C236.08 217.976 236.08 217.982 236.08 217.988C236.08 217.995 236.08 218.001 236.08 218.007C236.08 218.013 236.08 218.02 236.08 218.026C236.08 218.032 236.08 218.038 236.08 218.045C236.08 218.051 236.08 218.057 236.08 218.064C236.08 218.07 236.08 218.076 236.08 218.082C236.08 218.089 236.08 218.095 236.08 218.101C236.08 218.108 236.08 218.114 236.08 218.12C236.08 218.126 236.08 218.133 236.08 218.139C236.08 218.145 236.08 218.152 236.08 218.158C236.08 218.164 236.08 218.171 236.08 218.177C236.08 218.183 236.08 218.19 236.08 218.196C236.08 218.202 236.08 218.209 236.08 218.215C236.08 218.221 236.08 218.228 236.08 218.234C236.08 218.24 236.08 218.247 236.08 218.253C236.08 218.259 236.08 218.266 236.08 218.272C236.08 218.278 236.08 218.285 236.08 218.291C236.08 218.298 236.08 218.304 236.08 218.31C236.08 218.317 236.08 218.323 236.08 218.33C236.08 218.336 236.08 218.342 236.08 218.349C236.08 218.355 236.08 218.361 236.08 218.368C236.08 218.374 236.08 218.381 236.08 218.387C236.08 218.394 236.08 218.4 236.08 218.406C236.08 218.413 236.08 218.419 236.08 218.426C236.08 218.432 236.08 218.439 236.08 218.445C236.08 218.451 236.08 218.458 236.08 218.464C236.08 218.471 236.08 218.477 236.08 218.484C236.08 218.49 236.08 218.497 236.08 218.503C236.08 218.51 236.08 218.516 236.08 218.522C236.08 218.529 236.08 218.535 236.08 218.542C236.08 218.548 236.08 218.555 236.08 218.561C236.08 218.568 236.08 218.574 236.08 218.581C236.08 218.587 236.08 218.594 236.08 218.6C236.08 218.607 236.08 218.613 236.08 218.62C236.08 218.626 236.08 218.633 236.08 218.64C236.08 218.646 236.08 218.653 236.08 218.659C236.08 218.666 236.08 218.672 236.08 218.679C236.08 218.685 236.08 218.692 236.08 218.698C236.08 218.705 236.08 218.712 236.08 218.718C236.08 218.725 236.08 218.731 236.08 218.738C236.08 218.744 236.08 218.751 236.08 218.758C236.08 218.764 236.08 218.771 236.08 218.777C236.08 218.784 236.08 218.791 236.08 218.797C236.08 218.804 236.08 218.81 236.08 218.817C236.08 218.824 236.08 218.83 236.08 218.837C236.08 218.844 236.08 218.85 236.08 218.857C236.08 218.863 236.08 218.87 236.08 218.877C236.08 218.883 236.08 218.89 236.08 218.897C236.08 218.903 236.08 218.91 236.08 218.917C236.08 218.923 236.08 218.93 236.08 218.937C236.08 218.943 236.08 218.95 236.08 218.957C236.08 218.963 236.08 218.97 236.08 218.977C236.08 218.983 236.08 218.99 236.08 218.997C236.08 219.004 236.08 219.01 236.08 219.017C236.08 219.024 236.08 219.03 236.08 219.037C236.08 219.044 236.08 219.051 236.08 219.057C236.08 219.064 236.08 219.071 236.08 219.078C236.08 219.084 236.08 219.091 236.08 219.098C236.08 219.105 236.08 219.111 236.08 219.118C236.08 219.125 236.08 219.132 236.08 219.138C236.08 219.145 236.08 219.152 236.08 219.159C236.08 219.166 236.08 219.172 236.08 219.179C236.08 219.186 236.08 219.193 236.08 219.2C236.08 219.206 236.08 219.213 236.08 219.22C236.08 219.227 236.08 219.234 236.08 219.24C236.08 219.247 236.08 219.254 236.08 219.261C236.08 219.268 236.08 219.275 236.08 219.282C236.08 219.288 236.08 219.295 236.08 219.302C236.08 219.309 236.08 219.316 236.08 219.323C236.08 219.33 236.08 219.336 236.08 219.343C236.08 219.35 236.08 219.357 236.08 219.364C236.08 219.371 236.08 219.378 236.08 219.385C236.08 219.392 236.08 219.399 236.08 219.405C236.08 219.412 236.08 219.419 236.08 219.426C236.08 219.433 236.08 219.44 236.08 219.447C236.08 219.454 236.08 219.461 236.08 219.468C236.08 219.475 236.08 219.482 236.08 219.489C236.08 219.496 236.08 219.503 236.08 219.51C236.08 219.517 236.08 219.524 236.08 219.531C236.08 219.538 236.08 219.545 236.08 219.551C236.08 219.558 236.08 219.565 236.08 219.573C236.08 219.58 236.08 219.587 236.08 219.594C236.08 219.601 236.08 219.608 236.08 219.615C236.08 219.622 236.08 219.629 236.08 219.636C236.08 219.643 236.08 219.65 236.08 219.657C236.08 219.664 236.08 219.671 236.08 219.678C236.08 219.685 236.08 219.692 236.08 219.699C236.08 219.706 236.08 219.713 236.08 219.721C236.08 219.728 236.08 219.735 236.08 219.742C236.08 219.749 236.08 219.756 236.08 219.763C236.08 219.77 236.08 219.777 236.08 219.784C236.08 219.792 236.08 219.799 236.08 219.806C236.08 219.813 236.08 219.82 236.08 219.827C236.08 219.834 236.08 219.842 236.08 219.849C236.08 219.856 236.08 219.863 236.08 219.87C236.08 219.877 236.08 219.885 236.08 219.892C236.08 219.899 236.08 219.906 236.08 219.913C236.08 219.921 236.08 219.928 236.08 219.935C236.08 219.942 236.08 219.949 236.08 219.957C236.08 219.964 236.08 219.971 236.08 219.978C236.08 219.986 236.08 219.993 236.08 220H238.08C238.08 219.993 238.08 219.986 238.08 219.978C238.08 219.971 238.08 219.964 238.08 219.957C238.08 219.949 238.08 219.942 238.08 219.935C238.08 219.928 238.08 219.921 238.08 219.913C238.08 219.906 238.08 219.899 238.08 219.892C238.08 219.885 238.08 219.877 238.08 219.87C238.08 219.863 238.08 219.856 238.08 219.849C238.08 219.842 238.08 219.834 238.08 219.827C238.08 219.82 238.08 219.813 238.08 219.806C238.08 219.799 238.08 219.792 238.08 219.784C238.08 219.777 238.08 219.77 238.08 219.763C238.08 219.756 238.08 219.749 238.08 219.742C238.08 219.735 238.08 219.728 238.08 219.721C238.08 219.713 238.08 219.706 238.08 219.699C238.08 219.692 238.08 219.685 238.08 219.678C238.08 219.671 238.08 219.664 238.08 219.657C238.08 219.65 238.08 219.643 238.08 219.636C238.08 219.629 238.08 219.622 238.08 219.615C238.08 219.608 238.08 219.601 238.08 219.594C238.08 219.587 238.08 219.58 238.08 219.573C238.08 219.565 238.08 219.558 238.08 219.551C238.08 219.545 238.08 219.538 238.08 219.531C238.08 219.524 238.08 219.517 238.08 219.51C238.08 219.503 238.08 219.496 238.08 219.489C238.08 219.482 238.08 219.475 238.08 219.468C238.08 219.461 238.08 219.454 238.08 219.447C238.08 219.44 238.08 219.433 238.08 219.426C238.08 219.419 238.08 219.412 238.08 219.405C238.08 219.399 238.08 219.392 238.08 219.385C238.08 219.378 238.08 219.371 238.08 219.364C238.08 219.357 238.08 219.35 238.08 219.343C238.08 219.336 238.08 219.33 238.08 219.323C238.08 219.316 238.08 219.309 238.08 219.302C238.08 219.295 238.08 219.288 238.08 219.282C238.08 219.275 238.08 219.268 238.08 219.261C238.08 219.254 238.08 219.247 238.08 219.24C238.08 219.234 238.08 219.227 238.08 219.22C238.08 219.213 238.08 219.206 238.08 219.2C238.08 219.193 238.08 219.186 238.08 219.179C238.08 219.172 238.08 219.166 238.08 219.159C238.08 219.152 238.08 219.145 238.08 219.138C238.08 219.132 238.08 219.125 238.08 219.118C238.08 219.111 238.08 219.105 238.08 219.098C238.08 219.091 238.08 219.084 238.08 219.078C238.08 219.071 238.08 219.064 238.08 219.057C238.08 219.051 238.08 219.044 238.08 219.037C238.08 219.03 238.08 219.024 238.08 219.017C238.08 219.01 238.08 219.004 238.08 218.997C238.08 218.99 238.08 218.983 238.08 218.977C238.08 218.97 238.08 218.963 238.08 218.957C238.08 218.95 238.08 218.943 238.08 218.937C238.08 218.93 238.08 218.923 238.08 218.917C238.08 218.91 238.08 218.903 238.08 218.897C238.08 218.89 238.08 218.883 238.08 218.877C238.08 218.87 238.08 218.863 238.08 218.857C238.08 218.85 238.08 218.844 238.08 218.837C238.08 218.83 238.08 218.824 238.08 218.817C238.08 218.81 238.08 218.804 238.08 218.797C238.08 218.791 238.08 218.784 238.08 218.777C238.08 218.771 238.08 218.764 238.08 218.758C238.08 218.751 238.08 218.744 238.08 218.738C238.08 218.731 238.08 218.725 238.08 218.718C238.08 218.712 238.08 218.705 238.08 218.698C238.08 218.692 238.08 218.685 238.08 218.679C238.08 218.672 238.08 218.666 238.08 218.659C238.08 218.653 238.08 218.646 238.08 218.64C238.08 218.633 238.08 218.626 238.08 218.62C238.08 218.613 238.08 218.607 238.08 218.6C238.08 218.594 238.08 218.587 238.08 218.581C238.08 218.574 238.08 218.568 238.08 218.561C238.08 218.555 238.08 218.548 238.08 218.542C238.08 218.535 238.08 218.529 238.08 218.522C238.08 218.516 238.08 218.51 238.08 218.503C238.08 218.497 238.08 218.49 238.08 218.484C238.08 218.477 238.08 218.471 238.08 218.464C238.08 218.458 238.08 218.451 238.08 218.445C238.08 218.439 238.08 218.432 238.08 218.426C238.08 218.419 238.08 218.413 238.08 218.406C238.08 218.4 238.08 218.394 238.08 218.387C238.08 218.381 238.08 218.374 238.08 218.368C238.08 218.361 238.08 218.355 238.08 218.349C238.08 218.342 238.08 218.336 238.08 218.33C238.08 218.323 238.08 218.317 238.08 218.31C238.08 218.304 238.08 218.298 238.08 218.291C238.08 218.285 238.08 218.278 238.08 218.272C238.08 218.266 238.08 218.259 238.08 218.253C238.08 218.247 238.08 218.24 238.08 218.234C238.08 218.228 238.08 218.221 238.08 218.215C238.08 218.209 238.08 218.202 238.08 218.196C238.08 218.19 238.08 218.183 238.08 218.177C238.08 218.171 238.08 218.164 238.08 218.158C238.08 218.152 238.08 218.145 238.08 218.139C238.08 218.133 238.08 218.126 238.08 218.12C238.08 218.114 238.08 218.108 238.08 218.101C238.08 218.095 238.08 218.089 238.08 218.082C238.08 218.076 238.08 218.07 238.08 218.064C238.08 218.057 238.08 218.051 238.08 218.045C238.08 218.038 238.08 218.032 238.08 218.026C238.08 218.02 238.08 218.013 238.08 218.007C238.08 218.001 238.08 217.995 238.08 217.988C238.08 217.982 238.08 217.976 238.08 217.97C238.08 217.963 238.08 217.957 238.08 217.951C238.08 217.945 238.08 217.939 238.08 217.932C238.08 217.926 238.08 217.92 238.08 217.914C238.08 217.907 238.08 217.901 238.08 217.895C238.08 217.889 238.08 217.883 238.08 217.876C238.08 217.87 238.08 217.864 238.08 217.858C238.08 217.852 238.08 217.845 238.08 217.839C238.08 217.833 238.08 217.827 238.08 217.821C238.08 217.815 238.08 217.808 238.08 217.802C238.08 217.796 238.08 217.79 238.08 217.784C238.08 217.778 238.08 217.771 238.08 217.765C238.08 217.759 238.08 217.753 238.08 217.747C238.08 217.741 238.08 217.734 238.08 217.728C238.08 217.722 238.08 217.716 238.08 217.71C238.08 217.704 238.08 217.698 238.08 217.691C238.08 217.685 238.08 217.679 238.08 217.673C238.08 217.667 238.08 217.661 238.08 217.655C238.08 217.649 238.08 217.642 238.08 217.636C238.08 217.63 238.08 217.624 238.08 217.618C238.08 217.612 238.08 217.606 238.08 217.6C238.08 217.594 238.08 217.588 238.08 217.581C238.08 217.575 238.08 217.569 238.08 217.563C238.08 217.557 238.08 217.551 238.08 217.545C238.08 217.539 238.08 217.533 238.08 217.527C238.08 217.521 238.08 217.515 238.08 217.509C238.08 217.502 238.08 217.496 238.08 217.49C238.08 217.484 238.08 217.478 238.08 217.472C238.08 217.466 238.08 217.46 238.08 217.454C238.08 217.448 238.08 217.442 238.08 217.436C238.08 217.43 238.08 217.424 238.08 217.418C238.08 217.412 238.08 217.406 238.08 217.4C238.08 217.394 238.08 217.388 238.08 217.382C238.08 217.376 238.08 217.37 238.08 217.364C238.08 217.358 238.08 217.352 238.08 217.346C238.08 217.34 238.08 217.334 238.08 217.328C238.08 217.322 238.08 217.316 238.08 217.31C238.08 217.304 238.08 217.298 238.08 217.292C238.08 217.286 238.08 217.28 238.08 217.274C238.08 217.268 238.08 217.262 238.08 217.256C238.08 217.25 238.08 217.244 238.08 217.238C238.08 217.232 238.08 217.226 238.08 217.22C238.08 217.214 238.08 217.208 238.08 217.202C238.08 217.196 238.08 217.19 238.08 217.184C238.08 217.178 238.08 217.172 238.08 217.166C238.08 217.16 238.08 217.154 238.08 217.148C238.08 217.142 238.08 217.136 238.08 217.13C238.08 217.124 238.08 217.119 238.08 217.113C238.08 217.107 238.08 217.101 238.08 217.095C238.08 217.089 238.08 217.083 238.08 217.077C238.08 217.071 238.08 217.065 238.08 217.059C238.08 217.053 238.08 217.047 238.08 217.041C238.08 217.036 238.08 217.03 238.08 217.024C238.08 217.018 238.08 217.012 238.08 217.006C238.08 217 238.08 216.994 238.08 216.988C238.08 216.982 238.08 216.976 238.08 216.971C238.08 216.965 238.08 216.959 238.08 216.953C238.08 216.947 238.08 216.941 238.08 216.935C238.08 216.929 238.08 216.923 238.08 216.918C238.08 216.912 238.08 216.906 238.08 216.9C238.08 216.894 238.08 216.888 238.08 216.882C238.08 216.876 238.08 216.871 238.08 216.865C238.08 216.859 238.08 216.853 238.08 216.847C238.08 216.841 238.08 216.835 238.08 216.83C238.08 216.824 238.08 216.818 238.08 216.812C238.08 216.806 238.08 216.8 238.08 216.794C238.08 216.789 238.08 216.783 238.08 216.777C238.08 216.771 238.08 216.765 238.08 216.759C238.08 216.753 238.08 216.748 238.08 216.742C238.08 216.736 238.08 216.73 238.08 216.724C238.08 216.718 238.08 216.713 238.08 216.707C238.08 216.701 238.08 216.695 238.08 216.689C238.08 216.683 238.08 216.678 238.08 216.672C238.08 216.666 238.08 216.66 238.08 216.654C238.08 216.649 238.08 216.643 238.08 216.637C238.08 216.631 238.08 216.625 238.08 216.619C238.08 216.614 238.08 216.608 238.08 216.602C238.08 216.596 238.08 216.59 238.08 216.585C238.08 216.579 238.08 216.573 238.08 216.567C238.08 216.561 238.08 216.556 238.08 216.55C238.08 216.544 238.08 216.538 238.08 216.532C238.08 216.527 238.08 216.521 238.08 216.515C238.08 216.509 238.08 216.504 238.08 216.498C238.08 216.492 238.08 216.486 238.08 216.48C238.08 216.475 238.08 216.469 238.08 216.463C238.08 216.457 238.08 216.452 238.08 216.446C238.08 216.44 238.08 216.434 238.08 216.428C238.08 216.423 238.08 216.417 238.08 216.411C238.08 216.405 238.08 216.4 238.08 216.394C238.08 216.388 238.08 216.382 238.08 216.377C238.08 216.371 238.08 216.365 238.08 216.359C238.08 216.354 238.08 216.348 238.08 216.342C238.08 216.336 238.08 216.33 238.08 216.325C238.08 216.319 238.08 216.313 238.08 216.307C238.08 216.302 238.08 216.296 238.08 216.29C238.08 216.285 238.08 216.279 238.08 216.273C238.08 216.267 238.08 216.262 238.08 216.256C238.08 216.25 238.08 216.244 238.08 216.239C238.08 216.233 238.08 216.227 238.08 216.221C238.08 216.216 238.08 216.21 238.08 216.204C238.08 216.198 238.08 216.193 238.08 216.187C238.08 216.181 238.08 216.176 238.08 216.17C238.08 216.164 238.08 216.158 238.08 216.153C238.08 216.147 238.08 216.141 238.08 216.135C238.08 216.13 238.08 216.124 238.08 216.118C238.08 216.113 238.08 216.107 238.08 216.101C238.08 216.095 238.08 216.09 238.08 216.084C238.08 216.078 238.08 216.073 238.08 216.067C238.08 216.061 238.08 216.055 238.08 216.05C238.08 216.044 238.08 216.038 238.08 216.033C238.08 216.027 238.08 216.021 238.08 216.016C238.08 216.01 238.08 216.004 238.08 215.998C238.08 215.993 238.08 215.987 238.08 215.981C238.08 215.976 238.08 215.97 238.08 215.964C238.08 215.959 238.08 215.953 238.08 215.947C238.08 215.941 238.08 215.936 238.08 215.93C238.08 215.924 238.08 215.919 238.08 215.913C238.08 215.907 238.08 215.902 238.08 215.896C238.08 215.89 238.08 215.885 238.08 215.879C238.08 215.873 238.08 215.867 238.08 215.862C238.08 215.856 238.08 215.85 238.08 215.845C238.08 215.839 238.08 215.833 238.08 215.828C238.08 215.822 238.08 215.816 238.08 215.811C238.08 215.805 238.08 215.799 238.08 215.794C238.08 215.788 238.08 215.782 238.08 215.777C238.08 215.771 238.08 215.765 238.08 215.76C238.08 215.754 238.08 215.748 238.08 215.743C238.08 215.737 238.08 215.731 238.08 215.725C238.08 215.72 238.08 215.714 238.08 215.708C238.08 215.703 238.08 215.697 238.08 215.691C238.08 215.686 238.08 215.68 238.08 215.674C238.08 215.669 238.08 215.663 238.08 215.657C238.08 215.652 238.08 215.646 238.08 215.64C238.08 215.635 238.08 215.629 238.08 215.623C238.08 215.618 238.08 215.612 238.08 215.606C238.08 215.601 238.08 215.595 238.08 215.589C238.08 215.584 238.08 215.578 238.08 215.572C238.08 215.567 238.08 215.561 238.08 215.555C238.08 215.55 238.08 215.544 238.08 215.538C238.08 215.533 238.08 215.527 238.08 215.522C238.08 215.516 238.08 215.51 238.08 215.505C238.08 215.499 238.08 215.493 238.08 215.488C238.08 215.482 238.08 215.476 238.08 215.471C238.08 215.465 238.08 215.459 238.08 215.454C238.08 215.448 238.08 215.442 238.08 215.437C238.08 215.431 238.08 215.425 238.08 215.42C238.08 215.414 238.08 215.408 238.08 215.403C238.08 215.397 238.08 215.391 238.08 215.386C238.08 215.38 238.08 215.374 238.08 215.369C238.08 215.363 238.08 215.357 238.08 215.352C238.08 215.346 238.08 215.34 238.08 215.335C238.08 215.329 238.08 215.324 238.08 215.318C238.08 215.312 238.08 215.307 238.08 215.301C238.08 215.295 238.08 215.29 238.08 215.284C238.08 215.278 238.08 215.273 238.08 215.267C238.08 215.261 238.08 215.256 238.08 215.25C238.08 215.244 238.08 215.239 238.08 215.233C238.08 215.227 238.08 215.222 238.08 215.216C238.08 215.21 238.08 215.205 238.08 215.199C238.08 215.193 238.08 215.188 238.08 215.182C238.08 215.176 238.08 215.171 238.08 215.165C238.08 215.16 238.08 215.154 238.08 215.148C238.08 215.143 238.08 215.137 238.08 215.131C238.08 215.126 238.08 215.12 238.08 215.114C238.08 215.109 238.08 215.103 238.08 215.097C238.08 215.092 238.08 215.086 238.08 215.08C238.08 215.075 238.08 215.069 238.08 215.063C238.08 215.058 238.08 215.052 238.08 215.046C238.08 215.041 238.08 215.035 238.08 215.029C238.08 215.024 238.08 215.018 238.08 215.012C238.08 215.007 238.08 215.001 238.08 214.995C238.08 214.99 238.08 214.984 238.08 214.978C238.08 214.973 238.08 214.967 238.08 214.962C238.08 214.956 238.08 214.95 238.08 214.945C238.08 214.939 238.08 214.933 238.08 214.928C238.08 214.922 238.08 214.916 238.08 214.911C238.08 214.905 238.08 214.899 238.08 214.894C238.08 214.888 238.08 214.882 238.08 214.877C238.08 214.871 238.08 214.865 238.08 214.86C238.08 214.854 238.08 214.848 238.08 214.843C238.08 214.837 238.08 214.831 238.08 214.826C238.08 214.82 238.08 214.814 238.08 214.809C238.08 214.803 238.08 214.797 238.08 214.792C238.08 214.786 238.08 214.78 238.08 214.775C238.08 214.769 238.08 214.763 238.08 214.757C238.08 214.752 238.08 214.746 238.08 214.74C238.08 214.735 238.08 214.729 238.08 214.723C238.08 214.718 238.08 214.712 238.08 214.706C238.08 214.701 238.08 214.695 238.08 214.689C238.08 214.684 238.08 214.678 238.08 214.672C238.08 214.667 238.08 214.661 238.08 214.655C238.08 214.65 238.08 214.644 238.08 214.638C238.08 214.633 238.08 214.627 238.08 214.621C238.08 214.615 238.08 214.61 238.08 214.604C238.08 214.598 238.08 214.593 238.08 214.587C238.08 214.581 238.08 214.576 238.08 214.57C238.08 214.564 238.08 214.559 238.08 214.553C238.08 214.547 238.08 214.541 238.08 214.536C238.08 214.53 238.08 214.524 238.08 214.519C238.08 214.513 238.08 214.507 238.08 214.502C238.08 214.496 238.08 214.49 238.08 214.484C238.08 214.479 238.08 214.473 238.08 214.467C238.08 214.462 238.08 214.456 238.08 214.45C238.08 214.445 238.08 214.439 238.08 214.433C238.08 214.427 238.08 214.422 238.08 214.416C238.08 214.41 238.08 214.405 238.08 214.399C238.08 214.393 238.08 214.387 238.08 214.382C238.08 214.376 238.08 214.37 238.08 214.365C238.08 214.359 238.08 214.353 238.08 214.347C238.08 214.342 238.08 214.336 238.08 214.33C238.08 214.324 238.08 214.319 238.08 214.313C238.08 214.307 238.08 214.302 238.08 214.296C238.08 214.29 238.08 214.284 238.08 214.279C238.08 214.273 238.08 214.267 238.08 214.261C238.08 214.256 238.08 214.25 238.08 214.244C238.08 214.238 238.08 214.233 238.08 214.227C238.08 214.221 238.08 214.215 238.08 214.21C238.08 214.204 238.08 214.198 238.08 214.193C238.08 214.187 238.08 214.181 238.08 214.175C238.08 214.17 238.08 214.164 238.08 214.158C238.08 214.152 238.08 214.146 238.08 214.141C238.08 214.135 238.08 214.129 238.08 214.123C238.08 214.118 238.08 214.112 238.08 214.106C238.08 214.1 238.08 214.095 238.08 214.089C238.08 214.083 238.08 214.077 238.08 214.072C238.08 214.066 238.08 214.06 238.08 214.054C238.08 214.048 238.08 214.043 238.08 214.037C238.08 214.031 238.08 214.025 238.08 214.02C238.08 214.014 238.08 214.008 238.08 214.002C238.08 213.996 238.08 213.991 238.08 213.985C238.08 213.979 238.08 213.973 238.08 213.968C238.08 213.962 238.08 213.956 238.08 213.95C238.08 213.944 238.08 213.939 238.08 213.933C238.08 213.927 238.08 213.921 238.08 213.915C238.08 213.91 238.08 213.904 238.08 213.898C238.08 213.892 238.08 213.886 238.08 213.881C238.08 213.875 238.08 213.869 238.08 213.863C238.08 213.857 238.08 213.851 238.08 213.846C238.08 213.84 238.08 213.834 238.08 213.828C238.08 213.822 238.08 213.817 238.08 213.811C238.08 213.805 238.08 213.799 238.08 213.793C238.08 213.787 238.08 213.782 238.08 213.776C238.08 213.77 238.08 213.764 238.08 213.758C238.08 213.752 238.08 213.747 238.08 213.741C238.08 213.735 238.08 213.729 238.08 213.723C238.08 213.717 238.08 213.711 238.08 213.706C238.08 213.7 238.08 213.694 238.08 213.688C238.08 213.682 238.08 213.676 238.08 213.67C238.08 213.665 238.08 213.659 238.08 213.653C238.08 213.647 238.08 213.641 238.08 213.635C238.08 213.629 238.08 213.624 238.08 213.618C238.08 213.612 238.08 213.606 238.08 213.6C238.08 213.594 238.08 213.588 238.08 213.582C238.08 213.577 238.08 213.571 238.08 213.565C238.08 213.559 238.08 213.553 238.08 213.547C238.08 213.541 238.08 213.535 238.08 213.529C238.08 213.524 238.08 213.518 238.08 213.512C238.08 213.506 238.08 213.5 238.08 213.494C238.08 213.488 238.08 213.482 238.08 213.476C238.08 213.47 238.08 213.464 238.08 213.459C238.08 213.453 238.08 213.447 238.08 213.441C238.08 213.435 238.08 213.429 238.08 213.423C238.08 213.417 238.08 213.411 238.08 213.405C238.08 213.399 238.08 213.393 238.08 213.387C238.08 213.381 238.08 213.376 238.08 213.37C238.08 213.364 238.08 213.358 238.08 213.352C238.08 213.346 238.08 213.34 238.08 213.334C238.08 213.328 238.08 213.322 238.08 213.316C238.08 213.31 238.08 213.304 238.08 213.298C238.08 213.292 238.08 213.286 238.08 213.28C238.08 213.274 238.08 213.268 238.08 213.262C238.08 213.256 238.08 213.25 238.08 213.244C238.08 213.238 238.08 213.232 238.08 213.226C238.08 213.22 238.08 213.214 238.08 213.208C238.08 213.202 238.08 213.196 238.08 213.19C238.08 213.184 238.08 213.178 238.08 213.172C238.08 213.166 238.08 213.16 238.08 213.154C238.08 213.148 238.08 213.142 238.08 213.136C238.08 213.13 238.08 213.124 238.08 213.118C238.08 213.112 238.08 213.106 238.08 213.1C238.08 213.094 238.08 213.088 238.08 213.082C238.08 213.076 238.08 213.07 238.08 213.064C238.08 213.058 238.08 213.052 238.08 213.046C238.08 213.04 238.08 213.034 238.08 213.028C238.08 213.022 238.08 213.016 238.08 213.01C238.08 213.004 238.08 212.998 238.08 212.991C238.08 212.985 238.08 212.979 238.08 212.973C238.08 212.967 238.08 212.961 238.08 212.955C238.08 212.949 238.08 212.943 238.08 212.937C238.08 212.931 238.08 212.925 238.08 212.919C238.08 212.912 238.08 212.906 238.08 212.9C238.08 212.894 238.08 212.888 238.08 212.882C238.08 212.876 238.08 212.87 238.08 212.864C238.08 212.858 238.08 212.851 238.08 212.845C238.08 212.839 238.08 212.833 238.08 212.827C238.08 212.821 238.08 212.815 238.08 212.809C238.08 212.802 238.08 212.796 238.08 212.79C238.08 212.784 238.08 212.778 238.08 212.772C238.08 212.766 238.08 212.759 238.08 212.753C238.08 212.747 238.08 212.741 238.08 212.735C238.08 212.729 238.08 212.722 238.08 212.716C238.08 212.71 238.08 212.704 238.08 212.698C238.08 212.692 238.08 212.685 238.08 212.679C238.08 212.673 238.08 212.667 238.08 212.661C238.08 212.655 238.08 212.648 238.08 212.642C238.08 212.636 238.08 212.63 238.08 212.624C238.08 212.617 238.08 212.611 238.08 212.605C238.08 212.599 238.08 212.593 238.08 212.586C238.08 212.58 238.08 212.574 238.08 212.568C238.08 212.561 238.08 212.555 238.08 212.549C238.08 212.543 238.08 212.537 238.08 212.53C238.08 212.524 238.08 212.518 238.08 212.512C238.08 212.505 238.08 212.499 238.08 212.493C238.08 212.487 238.08 212.48 238.08 212.474C238.08 212.468 238.08 212.462 238.08 212.455C238.08 212.449 238.08 212.443 238.08 212.436C238.08 212.43 238.08 212.424 238.08 212.418C238.08 212.411 238.08 212.405 238.08 212.399C238.08 212.392 238.08 212.386 238.08 212.38C238.08 212.374 238.08 212.367 238.08 212.361C238.08 212.355 238.08 212.348 238.08 212.342C238.08 212.336 238.08 212.329 238.08 212.323C238.08 212.317 238.08 212.31 238.08 212.304C238.08 212.298 238.08 212.291 238.08 212.285C238.08 212.279 238.08 212.272 238.08 212.266C238.08 212.26 238.08 212.253 238.08 212.247C238.08 212.241 238.08 212.234 238.08 212.228C238.08 212.222 238.08 212.215 238.08 212.209C238.08 212.202 238.08 212.196 238.08 212.19C238.08 212.183 238.08 212.177 238.08 212.17C238.08 212.164 238.08 212.158 238.08 212.151C238.08 212.145 238.08 212.139 238.08 212.132C238.08 212.126 238.08 212.119 238.08 212.113C238.08 212.106 238.08 212.1 238.08 212.094C238.08 212.087 238.08 212.081 238.08 212.074C238.08 212.068 238.08 212.061 238.08 212.055C238.08 212.049 238.08 212.042 238.08 212.036C238.08 212.029 238.08 212.023 238.08 212.016C238.08 212.01 238.08 212.003 238.08 211.997C238.08 211.99 238.08 211.984 238.08 211.978C238.08 211.971 238.08 211.965 238.08 211.958C238.08 211.952 238.08 211.945 238.08 211.939C238.08 211.932 238.08 211.926 238.08 211.919C238.08 211.913 238.08 211.906 238.08 211.9C238.08 211.893 238.08 211.887 238.08 211.88C238.08 211.874 238.08 211.867 238.08 211.86C238.08 211.854 238.08 211.847 238.08 211.841C238.08 211.834 238.08 211.828 238.08 211.821C238.08 211.815 238.08 211.808 238.08 211.802C238.08 211.795 238.08 211.788 238.08 211.782C238.08 211.775 238.08 211.769 238.08 211.762C238.08 211.756 238.08 211.749 238.08 211.742C238.08 211.736 238.08 211.729 238.08 211.723C238.08 211.716 238.08 211.709 238.08 211.703C238.08 211.696 238.08 211.69 238.08 211.683C238.08 211.676 238.08 211.67 238.08 211.663C238.08 211.656 238.08 211.65 238.08 211.643C238.08 211.637 238.08 211.63 238.08 211.623C238.08 211.617 238.08 211.61 238.08 211.603C238.08 211.597 238.08 211.59 238.08 211.583C238.08 211.577 238.08 211.57 238.08 211.563C238.08 211.557 238.08 211.55 238.08 211.543C238.08 211.537 238.08 211.53 238.08 211.523C238.08 211.517 238.08 211.51 238.08 211.503C238.08 211.496 238.08 211.49 238.08 211.483C238.08 211.476 238.08 211.47 238.08 211.463C238.08 211.456 238.08 211.449 238.08 211.443C238.08 211.436 238.08 211.429 238.08 211.422C238.08 211.416 238.08 211.409 238.08 211.402C238.08 211.395 238.08 211.389 238.08 211.382C238.08 211.375 238.08 211.368 238.08 211.362C238.08 211.355 238.08 211.348 238.08 211.341C238.08 211.334 238.08 211.328 238.08 211.321C238.08 211.314 238.08 211.307 238.08 211.3C238.08 211.294 238.08 211.287 238.08 211.28C238.08 211.273 238.08 211.266 238.08 211.26C238.08 211.253 238.08 211.246 238.08 211.239C238.08 211.232 238.08 211.225 238.08 211.218C238.08 211.212 238.08 211.205 238.08 211.198C238.08 211.191 238.08 211.184 238.08 211.177C238.08 211.17 238.08 211.164 238.08 211.157C238.08 211.15 238.08 211.143 238.08 211.136C238.08 211.129 238.08 211.122 238.08 211.115C238.08 211.108 238.08 211.101 238.08 211.095C238.08 211.088 238.08 211.081 238.08 211.074C238.08 211.067 238.08 211.06 238.08 211.053C238.08 211.046 238.08 211.039 238.08 211.032C238.08 211.025 238.08 211.018 238.08 211.011C238.08 211.004 238.08 210.997 238.08 210.99C238.08 210.983 238.08 210.976 238.08 210.969C238.08 210.962 238.08 210.955 238.08 210.949C238.08 210.942 238.08 210.935 238.08 210.927C238.08 210.92 238.08 210.913 238.08 210.906C238.08 210.899 238.08 210.892 238.08 210.885C238.08 210.878 238.08 210.871 238.08 210.864C238.08 210.857 238.08 210.85 238.08 210.843C238.08 210.836 238.08 210.829 238.08 210.822C238.08 210.815 238.08 210.808 238.08 210.801C238.08 210.794 238.08 210.787 238.08 210.779C238.08 210.772 238.08 210.765 238.08 210.758C238.08 210.751 238.08 210.744 238.08 210.737C238.08 210.73 238.08 210.723 238.08 210.716C238.08 210.708 238.08 210.701 238.08 210.694C238.08 210.687 238.08 210.68 238.08 210.673C238.08 210.666 238.08 210.658 238.08 210.651C238.08 210.644 238.08 210.637 238.08 210.63C238.08 210.623 238.08 210.615 238.08 210.608C238.08 210.601 238.08 210.594 238.08 210.587C238.08 210.579 238.08 210.572 238.08 210.565C238.08 210.558 238.08 210.551 238.08 210.543C238.08 210.536 238.08 210.529 238.08 210.522C238.08 210.514 238.08 210.507 238.08 210.5H236.08ZM236.08 230.5V238.5H238.08V230.5H236.08Z" fill="#0069FF"/>
<path d="M1084.71 53.7221C1084.28 53.3751 1083.65 53.442 1083.3 53.8716C1082.96 54.3012 1083.02 54.9308 1083.45 55.2779L1084.71 53.7221ZM1084.08 54.5C1083.45 55.2779 1083.45 55.2776 1083.45 55.2773C1083.45 55.2772 1083.45 55.277 1083.45 55.2768C1083.45 55.2766 1083.45 55.2764 1083.45 55.2763C1083.45 55.2761 1083.45 55.2763 1083.45 55.2768C1083.45 55.2777 1083.45 55.28 1083.46 55.2836C1083.47 55.2907 1083.48 55.3032 1083.5 55.3209C1083.54 55.3565 1083.61 55.4131 1083.69 55.491C1083.86 55.6469 1084.11 55.8876 1084.4 56.2139C1085 56.8668 1085.8 57.8602 1086.61 59.2009C1088.21 61.8771 1089.81 65.9468 1089.73 71.4866L1091.73 71.5134C1091.81 65.5532 1090.09 61.1229 1088.32 58.1741C1087.44 56.7023 1086.55 55.6019 1085.88 54.8642C1085.54 54.4952 1085.26 54.2164 1085.05 54.0265C1084.95 53.9316 1084.87 53.8589 1084.81 53.8082C1084.78 53.7829 1084.76 53.763 1084.74 53.7487C1084.73 53.7415 1084.73 53.7357 1084.72 53.7313C1084.72 53.7291 1084.71 53.7272 1084.71 53.7257C1084.71 53.7249 1084.71 53.7242 1084.71 53.7237C1084.71 53.7234 1084.71 53.723 1084.71 53.7228C1084.71 53.7225 1084.71 53.7221 1084.08 54.5ZM1089.73 71.4866C1089.7 74.1377 1088.81 76.6004 1087.43 79.2223C1086.03 81.8981 1084.24 84.5288 1082.36 87.7463C1078.66 94.0947 1075.07 102.036 1075.58 114.043L1077.58 113.957C1077.09 102.464 1080.5 94.9053 1084.09 88.7537C1085.86 85.7212 1087.78 82.8519 1089.2 80.1527C1090.65 77.3996 1091.69 74.6123 1091.73 71.5134L1089.73 71.4866ZM1076.08 196.542C1076.59 208.73 1079.52 215.133 1082.58 220.554C1085.62 225.924 1088.62 230.11 1089.59 238.12L1091.57 237.88C1090.54 229.39 1087.29 224.826 1084.33 219.571C1081.39 214.367 1078.57 208.27 1078.08 196.458L1076.08 196.542ZM1075.58 114.043C1076.09 126.034 1079.72 132.333 1083.19 137.67C1086.63 142.949 1089.73 147.087 1089.73 155H1091.73C1091.73 146.413 1088.27 141.801 1084.87 136.58C1081.51 131.417 1078.07 125.466 1077.58 113.957L1075.58 114.043ZM1089.73 155C1089.73 162.89 1086.28 167.002 1082.7 172.383C1080.91 175.068 1079.12 178.046 1077.84 181.897C1076.57 185.751 1075.83 190.435 1076.08 196.542L1078.08 196.458C1077.83 190.565 1078.55 186.124 1079.74 182.525C1080.93 178.923 1082.61 176.119 1084.36 173.492C1087.86 168.248 1091.73 163.61 1091.73 155H1089.73Z" fill="#0069FF"/>
<path d="M1091.71 53.7221C1091.28 53.3751 1090.65 53.442 1090.3 53.8716C1089.96 54.3012 1090.02 54.9308 1090.45 55.2779L1091.71 53.7221ZM1091.08 54.5C1090.45 55.2779 1090.45 55.2776 1090.45 55.2773C1090.45 55.2772 1090.45 55.277 1090.45 55.2768C1090.45 55.2766 1090.45 55.2764 1090.45 55.2763C1090.45 55.2761 1090.45 55.2763 1090.45 55.2768C1090.45 55.2777 1090.45 55.28 1090.46 55.2836C1090.47 55.2907 1090.48 55.3032 1090.5 55.3209C1090.54 55.3565 1090.61 55.4131 1090.69 55.491C1090.86 55.6469 1091.11 55.8876 1091.4 56.2139C1092 56.8668 1092.8 57.8602 1093.61 59.2009C1095.21 61.8771 1096.81 65.9468 1096.73 71.4866L1098.73 71.5134C1098.81 65.5532 1097.09 61.1229 1095.32 58.1741C1094.44 56.7023 1093.55 55.6019 1092.88 54.8642C1092.54 54.4952 1092.26 54.2164 1092.05 54.0265C1091.95 53.9316 1091.87 53.8589 1091.81 53.8082C1091.78 53.7829 1091.76 53.763 1091.74 53.7487C1091.73 53.7415 1091.73 53.7357 1091.72 53.7313C1091.72 53.7291 1091.71 53.7272 1091.71 53.7257C1091.71 53.7249 1091.71 53.7242 1091.71 53.7237C1091.71 53.7234 1091.71 53.723 1091.71 53.7228C1091.71 53.7225 1091.71 53.7221 1091.08 54.5ZM1096.73 71.4866C1096.7 74.1377 1095.81 76.6004 1094.43 79.2223C1093.03 81.8981 1091.24 84.5288 1089.36 87.7463C1085.66 94.0947 1082.07 102.036 1082.58 114.043L1084.58 113.957C1084.09 102.464 1087.5 94.9053 1091.09 88.7537C1092.86 85.7212 1094.78 82.8519 1096.2 80.1527C1097.65 77.3996 1098.69 74.6123 1098.73 71.5134L1096.73 71.4866ZM1083.08 196.542C1083.59 208.73 1086.52 215.133 1089.58 220.554C1092.62 225.924 1095.62 230.11 1096.59 238.12L1098.57 237.88C1097.54 229.39 1094.29 224.826 1091.33 219.571C1088.39 214.367 1085.57 208.27 1085.08 196.458L1083.08 196.542ZM1082.58 114.043C1083.09 126.034 1086.72 132.333 1090.19 137.67C1093.63 142.949 1096.73 147.087 1096.73 155H1098.73C1098.73 146.413 1095.27 141.801 1091.87 136.58C1088.51 131.417 1085.07 125.466 1084.58 113.957L1082.58 114.043ZM1096.73 155C1096.73 162.89 1093.28 167.002 1089.7 172.383C1087.91 175.068 1086.12 178.046 1084.84 181.897C1083.57 185.751 1082.83 190.435 1083.08 196.542L1085.08 196.458C1084.83 190.565 1085.55 186.124 1086.74 182.525C1087.93 178.923 1089.61 176.119 1091.36 173.492C1094.86 168.248 1098.73 163.61 1098.73 155H1096.73Z" fill="#0069FF"/>
<path d="M1098.71 53.7221C1098.28 53.3751 1097.65 53.442 1097.3 53.8716C1096.96 54.3012 1097.02 54.9308 1097.45 55.2779L1098.71 53.7221ZM1098.08 54.5C1097.45 55.2779 1097.45 55.2776 1097.45 55.2773C1097.45 55.2772 1097.45 55.277 1097.45 55.2768C1097.45 55.2766 1097.45 55.2764 1097.45 55.2763C1097.45 55.2761 1097.45 55.2763 1097.45 55.2768C1097.45 55.2777 1097.45 55.28 1097.46 55.2836C1097.47 55.2907 1097.48 55.3032 1097.5 55.3209C1097.54 55.3565 1097.61 55.4131 1097.69 55.491C1097.86 55.6469 1098.11 55.8876 1098.4 56.2139C1099 56.8668 1099.8 57.8602 1100.61 59.2009C1102.21 61.8771 1103.81 65.9468 1103.73 71.4866L1105.73 71.5134C1105.81 65.5532 1104.09 61.1229 1102.32 58.1741C1101.44 56.7023 1100.55 55.6019 1099.88 54.8642C1099.54 54.4952 1099.26 54.2164 1099.05 54.0265C1098.95 53.9316 1098.87 53.8589 1098.81 53.8082C1098.78 53.7829 1098.76 53.763 1098.74 53.7487C1098.73 53.7415 1098.73 53.7357 1098.72 53.7313C1098.72 53.7291 1098.71 53.7272 1098.71 53.7257C1098.71 53.7249 1098.71 53.7242 1098.71 53.7237C1098.71 53.7234 1098.71 53.723 1098.71 53.7228C1098.71 53.7225 1098.71 53.7221 1098.08 54.5ZM1103.73 71.4866C1103.7 74.1377 1102.81 76.6004 1101.43 79.2223C1100.03 81.8981 1098.24 84.5288 1096.36 87.7463C1092.66 94.0947 1089.07 102.036 1089.58 114.043L1091.58 113.957C1091.09 102.464 1094.5 94.9053 1098.09 88.7537C1099.86 85.7212 1101.78 82.8519 1103.2 80.1527C1104.65 77.3996 1105.69 74.6123 1105.73 71.5134L1103.73 71.4866ZM1090.08 196.542C1090.59 208.73 1093.52 215.133 1096.58 220.554C1099.62 225.924 1102.62 230.11 1103.59 238.12L1105.57 237.88C1104.54 229.39 1101.29 224.826 1098.33 219.571C1095.39 214.367 1092.57 208.27 1092.08 196.458L1090.08 196.542ZM1089.58 114.043C1090.09 126.034 1093.72 132.333 1097.19 137.67C1100.63 142.949 1103.73 147.087 1103.73 155H1105.73C1105.73 146.413 1102.27 141.801 1098.87 136.58C1095.51 131.417 1092.07 125.466 1091.58 113.957L1089.58 114.043ZM1103.73 155C1103.73 162.89 1100.28 167.002 1096.7 172.383C1094.91 175.068 1093.12 178.046 1091.84 181.897C1090.57 185.751 1089.83 190.435 1090.08 196.542L1092.08 196.458C1091.83 190.565 1092.55 186.124 1093.74 182.525C1094.93 178.923 1096.61 176.119 1098.36 173.492C1101.86 168.248 1105.73 163.61 1105.73 155H1103.73Z" fill="#0069FF"/>
<path d="M1106.71 53.7221C1106.28 53.3751 1105.65 53.442 1105.3 53.8716C1104.96 54.3012 1105.02 54.9308 1105.45 55.2779L1106.71 53.7221ZM1106.08 54.5C1105.45 55.2779 1105.45 55.2776 1105.45 55.2773C1105.45 55.2772 1105.45 55.277 1105.45 55.2768C1105.45 55.2766 1105.45 55.2764 1105.45 55.2763C1105.45 55.2761 1105.45 55.2763 1105.45 55.2768C1105.45 55.2777 1105.45 55.28 1105.46 55.2836C1105.47 55.2907 1105.48 55.3032 1105.5 55.3209C1105.54 55.3565 1105.61 55.4131 1105.69 55.491C1105.86 55.6469 1106.11 55.8876 1106.4 56.2139C1107 56.8668 1107.8 57.8602 1108.61 59.2009C1110.21 61.8771 1111.81 65.9468 1111.73 71.4866L1113.73 71.5134C1113.81 65.5532 1112.09 61.1229 1110.32 58.1741C1109.44 56.7023 1108.55 55.6019 1107.88 54.8642C1107.54 54.4952 1107.26 54.2164 1107.05 54.0265C1106.95 53.9316 1106.87 53.8589 1106.81 53.8082C1106.78 53.7829 1106.76 53.763 1106.74 53.7487C1106.73 53.7415 1106.73 53.7357 1106.72 53.7313C1106.72 53.7291 1106.71 53.7272 1106.71 53.7257C1106.71 53.7249 1106.71 53.7242 1106.71 53.7237C1106.71 53.7234 1106.71 53.723 1106.71 53.7228C1106.71 53.7225 1106.71 53.7221 1106.08 54.5ZM1111.73 71.4866C1111.7 74.1377 1110.81 76.6004 1109.43 79.2223C1108.03 81.8981 1106.24 84.5288 1104.36 87.7463C1100.66 94.0947 1097.07 102.036 1097.58 114.043L1099.58 113.957C1099.09 102.464 1102.5 94.9053 1106.09 88.7537C1107.86 85.7212 1109.78 82.8519 1111.2 80.1527C1112.65 77.3996 1113.69 74.6123 1113.73 71.5134L1111.73 71.4866ZM1098.08 196.542C1098.59 208.73 1101.52 215.133 1104.58 220.554C1107.62 225.924 1110.62 230.11 1111.59 238.12L1113.57 237.88C1112.54 229.39 1109.29 224.826 1106.33 219.571C1103.39 214.367 1100.57 208.27 1100.08 196.458L1098.08 196.542ZM1097.58 114.043C1098.09 126.034 1101.72 132.333 1105.19 137.67C1108.63 142.949 1111.73 147.087 1111.73 155H1113.73C1113.73 146.413 1110.27 141.801 1106.87 136.58C1103.51 131.417 1100.07 125.466 1099.58 113.957L1097.58 114.043ZM1111.73 155C1111.73 162.89 1108.28 167.002 1104.7 172.383C1102.91 175.068 1101.12 178.046 1099.84 181.897C1098.57 185.751 1097.83 190.435 1098.08 196.542L1100.08 196.458C1099.83 190.565 1100.55 186.124 1101.74 182.525C1102.93 178.923 1104.61 176.119 1106.36 173.492C1109.86 168.248 1113.73 163.61 1113.73 155H1111.73Z" fill="#0069FF"/>
<path d="M1114.71 53.7221C1114.28 53.3751 1113.65 53.442 1113.3 53.8716C1112.96 54.3012 1113.02 54.9308 1113.45 55.2779L1114.71 53.7221ZM1114.08 54.5C1113.45 55.2779 1113.45 55.2776 1113.45 55.2773C1113.45 55.2772 1113.45 55.277 1113.45 55.2768C1113.45 55.2766 1113.45 55.2764 1113.45 55.2763C1113.45 55.2761 1113.45 55.2763 1113.45 55.2768C1113.45 55.2777 1113.45 55.28 1113.46 55.2836C1113.47 55.2907 1113.48 55.3032 1113.5 55.3209C1113.54 55.3565 1113.61 55.4131 1113.69 55.491C1113.86 55.6469 1114.11 55.8876 1114.4 56.2139C1115 56.8668 1115.8 57.8602 1116.61 59.2009C1118.21 61.8771 1119.81 65.9468 1119.73 71.4866L1121.73 71.5134C1121.81 65.5532 1120.09 61.1229 1118.32 58.1741C1117.44 56.7023 1116.55 55.6019 1115.88 54.8642C1115.54 54.4952 1115.26 54.2164 1115.05 54.0265C1114.95 53.9316 1114.87 53.8589 1114.81 53.8082C1114.78 53.7829 1114.76 53.763 1114.74 53.7487C1114.73 53.7415 1114.73 53.7357 1114.72 53.7313C1114.72 53.7291 1114.71 53.7272 1114.71 53.7257C1114.71 53.7249 1114.71 53.7242 1114.71 53.7237C1114.71 53.7234 1114.71 53.723 1114.71 53.7228C1114.71 53.7225 1114.71 53.7221 1114.08 54.5ZM1119.73 71.4866C1119.7 74.1377 1118.81 76.6004 1117.43 79.2223C1116.03 81.8981 1114.24 84.5288 1112.36 87.7463C1108.66 94.0947 1105.07 102.036 1105.58 114.043L1107.58 113.957C1107.09 102.464 1110.5 94.9053 1114.09 88.7537C1115.86 85.7212 1117.78 82.8519 1119.2 80.1527C1120.65 77.3996 1121.69 74.6123 1121.73 71.5134L1119.73 71.4866ZM1106.08 196.542C1106.59 208.73 1109.52 215.133 1112.58 220.554C1115.62 225.924 1118.62 230.11 1119.59 238.12L1121.57 237.88C1120.54 229.39 1117.29 224.826 1114.33 219.571C1111.39 214.367 1108.57 208.27 1108.08 196.458L1106.08 196.542ZM1105.58 114.043C1106.09 126.034 1109.72 132.333 1113.19 137.67C1116.63 142.949 1119.73 147.087 1119.73 155H1121.73C1121.73 146.413 1118.27 141.801 1114.87 136.58C1111.51 131.417 1108.07 125.466 1107.58 113.957L1105.58 114.043ZM1119.73 155C1119.73 162.89 1116.28 167.002 1112.7 172.383C1110.91 175.068 1109.12 178.046 1107.84 181.897C1106.57 185.751 1105.83 190.435 1106.08 196.542L1108.08 196.458C1107.83 190.565 1108.55 186.124 1109.74 182.525C1110.93 178.923 1112.61 176.119 1114.36 173.492C1117.86 168.248 1121.73 163.61 1121.73 155H1119.73Z" fill="#0069FF"/>
<rect x="131" y="92" width="12" height="35" rx="6" stroke="#0069FF" stroke-width="2"/>
<rect x="984" y="30" width="12" height="35" rx="6" stroke="#0069FF" stroke-width="2"/>
<rect x="49.58" y="1" width="12" height="25" rx="6" stroke="#0069FF" stroke-width="2"/>
<path d="M165 156C165 159.25 162.156 162 158.5 162C154.844 162 152 159.25 152 156C152 152.75 154.844 150 158.5 150C162.156 150 165 152.75 165 156Z" stroke="#0069FF" stroke-width="2"/>
<circle cx="281" cy="116" r="6" stroke="#0069FF" stroke-width="2"/>
<circle cx="997" cy="10" r="6" stroke="#0069FF" stroke-width="2"/>
</svg>
