<svg viewBox="0 0 1309 259" fill="none" xmlns="http://www.w3.org/2000/svg">
<path d="M1205.66 99.4526C1205.36 99.9148 1205.49 100.535 1205.95 100.837C1206.41 101.139 1207.03 101.01 1207.34 100.547L1205.66 99.4526ZM1207.36 54.0168C1207.64 53.5439 1207.49 52.9293 1207.02 52.6439C1206.54 52.3585 1205.93 52.5104 1205.64 52.9832L1207.36 54.0168ZM1206.5 82.5C1206.5 81.7983 1206.7 80.9588 1207.06 79.9806C1207.41 79.0062 1207.88 77.9855 1208.35 76.9036C1208.82 75.843 1209.3 74.7288 1209.62 73.6467C1209.94 72.57 1210.14 71.4402 1209.99 70.3586L1208.01 70.6414C1208.11 71.3098 1207.99 72.1175 1207.71 73.072C1207.42 74.0212 1206.99 75.032 1206.52 76.0964C1206.06 77.1395 1205.56 78.2438 1205.18 79.3006C1204.8 80.3537 1204.5 81.4517 1204.5 82.5H1206.5ZM1209.99 70.3586C1209.71 68.4242 1209.02 67.0447 1208.3 65.8115C1207.58 64.5633 1206.91 63.5593 1206.45 62.1838L1204.55 62.8162C1205.09 64.4407 1205.92 65.6867 1206.57 66.8135C1207.23 67.9553 1207.79 69.0758 1208.01 70.6414L1209.99 70.3586ZM1206.45 62.1838C1205.54 59.4616 1205.87 56.4734 1207.36 54.0168L1205.64 52.9832C1203.86 55.9413 1203.46 59.5384 1204.55 62.8162L1206.45 62.1838ZM1207.34 100.547C1208.35 98.9933 1209.04 97.5073 1209.39 95.9199C1209.74 94.3324 1209.75 92.6969 1209.49 90.8586L1207.51 91.1414C1207.75 92.8031 1207.73 94.1881 1207.44 95.486C1207.15 96.7839 1206.58 98.0478 1205.66 99.4526L1207.34 100.547ZM1209.49 90.8586C1209.21 88.8952 1208.36 87.4822 1207.69 86.2681C1207.01 85.0427 1206.5 83.9819 1206.5 82.5H1204.5C1204.5 84.5181 1205.24 85.9573 1205.94 87.2319C1206.64 88.5178 1207.29 89.6048 1207.51 91.1414L1209.49 90.8586Z" fill="#0069FF"/>
<path d="M1217.66 99.4526C1217.36 99.9148 1217.49 100.535 1217.95 100.837C1218.41 101.139 1219.03 101.01 1219.34 100.547L1217.66 99.4526ZM1219.36 54.0168C1219.64 53.5439 1219.49 52.9293 1219.02 52.6439C1218.54 52.3585 1217.93 52.5104 1217.64 52.9832L1219.36 54.0168ZM1218.5 82.5C1218.5 81.7983 1218.7 80.9588 1219.06 79.9806C1219.41 79.0062 1219.88 77.9855 1220.35 76.9036C1220.82 75.843 1221.3 74.7288 1221.62 73.6467C1221.94 72.57 1222.14 71.4402 1221.99 70.3586L1220.01 70.6414C1220.11 71.3098 1219.99 72.1175 1219.71 73.072C1219.42 74.0212 1218.99 75.032 1218.52 76.0964C1218.06 77.1395 1217.56 78.2438 1217.18 79.3006C1216.8 80.3537 1216.5 81.4517 1216.5 82.5H1218.5ZM1221.99 70.3586C1221.71 68.4242 1221.02 67.0447 1220.3 65.8115C1219.58 64.5633 1218.91 63.5593 1218.45 62.1838L1216.55 62.8162C1217.09 64.4407 1217.92 65.6867 1218.57 66.8135C1219.23 67.9553 1219.79 69.0758 1220.01 70.6414L1221.99 70.3586ZM1218.45 62.1838C1217.54 59.4616 1217.87 56.4734 1219.36 54.0168L1217.64 52.9832C1215.86 55.9413 1215.46 59.5384 1216.55 62.8162L1218.45 62.1838ZM1219.34 100.547C1220.35 98.9933 1221.04 97.5073 1221.39 95.9199C1221.74 94.3324 1221.75 92.6969 1221.49 90.8586L1219.51 91.1414C1219.75 92.8031 1219.73 94.1881 1219.44 95.486C1219.15 96.7839 1218.58 98.0478 1217.66 99.4526L1219.34 100.547ZM1221.49 90.8586C1221.21 88.8952 1220.36 87.4822 1219.69 86.2681C1219.01 85.0427 1218.5 83.9819 1218.5 82.5H1216.5C1216.5 84.5181 1217.24 85.9573 1217.94 87.2319C1218.64 88.5178 1219.29 89.6048 1219.51 91.1414L1221.49 90.8586Z" fill="#0069FF"/>
<path d="M1187 46L1186 45.9501L1185.95 47H1187V46ZM1227.5 46V47H1228.58L1228.5 45.9252L1227.5 46ZM1193.66 99.4526C1193.36 99.9148 1193.49 100.535 1193.95 100.837C1194.41 101.139 1195.03 101.01 1195.34 100.547L1193.66 99.4526ZM1195.36 54.0168C1195.64 53.5439 1195.49 52.9293 1195.02 52.6439C1194.54 52.3585 1193.93 52.5104 1193.64 52.9832L1195.36 54.0168ZM1187 47H1227.5V45H1187V47ZM1227.5 46C1228.5 45.9252 1228.5 45.9247 1228.5 45.9241C1228.5 45.9238 1228.5 45.9231 1228.5 45.9225C1228.5 45.9212 1228.5 45.9197 1228.5 45.9179C1228.5 45.9142 1228.5 45.9093 1228.5 45.9032C1228.49 45.8911 1228.49 45.8742 1228.49 45.8527C1228.49 45.8096 1228.48 45.7481 1228.47 45.6693C1228.46 45.5118 1228.43 45.2851 1228.39 44.9992C1228.31 44.4276 1228.17 43.6174 1227.94 42.6478C1227.49 40.7127 1226.68 38.1205 1225.25 35.5181C1222.37 30.2752 1216.94 25 1207 25V27C1216.06 27 1220.88 31.7248 1223.5 36.4819C1224.82 38.8795 1225.57 41.2873 1225.99 43.1022C1226.21 44.0076 1226.33 44.7599 1226.41 45.282C1226.45 45.543 1226.47 45.746 1226.48 45.8815C1226.49 45.9492 1226.5 45.9999 1226.5 46.0326C1226.5 46.0489 1226.5 46.0607 1226.5 46.0678C1226.5 46.0713 1226.5 46.0737 1226.5 46.0749C1226.5 46.0754 1226.5 46.0757 1226.5 46.0757C1226.5 46.0757 1226.5 46.0755 1226.5 46.0755C1226.5 46.0752 1226.5 46.0748 1227.5 46ZM1207 25C1197.05 25 1191.75 30.2811 1188.99 35.5352C1187.62 38.1407 1186.88 40.7352 1186.47 42.671C1186.27 43.6412 1186.15 44.4518 1186.09 45.0236C1186.05 45.3096 1186.03 45.5364 1186.02 45.694C1186.01 45.7728 1186.01 45.8344 1186.01 45.8774C1186 45.899 1186 45.9159 1186 45.9281C1186 45.9341 1186 45.939 1186 45.9427C1186 45.9445 1186 45.9461 1186 45.9473C1186 45.9479 1186 45.9486 1186 45.9489C1186 45.9495 1186 45.9501 1187 46C1188 46.0499 1188 46.0503 1188 46.0506C1188 46.0506 1188 46.0509 1188 46.0509C1188 46.0509 1188 46.0506 1188 46.05C1188 46.0488 1188 46.0465 1188 46.0429C1188 46.0359 1188 46.0241 1188 46.0078C1188 45.9752 1188.01 45.9245 1188.01 45.8568C1188.02 45.7214 1188.04 45.5185 1188.07 45.2577C1188.13 44.7357 1188.24 43.9838 1188.43 43.079C1188.81 41.2648 1189.5 38.8593 1190.76 36.4648C1193.25 31.7189 1197.95 27 1207 27V25ZM1194.5 82.5C1194.5 81.7983 1194.7 80.9588 1195.06 79.9806C1195.41 79.0062 1195.88 77.9855 1196.35 76.9036C1196.82 75.843 1197.3 74.7288 1197.62 73.6467C1197.94 72.57 1198.14 71.4402 1197.99 70.3586L1196.01 70.6414C1196.11 71.3098 1195.99 72.1175 1195.71 73.072C1195.42 74.0212 1194.99 75.032 1194.52 76.0964C1194.06 77.1395 1193.56 78.2438 1193.18 79.3006C1192.8 80.3537 1192.5 81.4517 1192.5 82.5H1194.5ZM1197.99 70.3586C1197.71 68.4242 1197.02 67.0447 1196.3 65.8115C1195.58 64.5633 1194.91 63.5593 1194.45 62.1838L1192.55 62.8162C1193.09 64.4407 1193.92 65.6867 1194.57 66.8135C1195.23 67.9553 1195.79 69.0758 1196.01 70.6414L1197.99 70.3586ZM1194.45 62.1838C1193.54 59.4616 1193.87 56.4734 1195.36 54.0168L1193.64 52.9832C1191.86 55.9413 1191.46 59.5384 1192.55 62.8162L1194.45 62.1838ZM1195.34 100.547C1196.35 98.9933 1197.04 97.5073 1197.39 95.9199C1197.74 94.3324 1197.75 92.6969 1197.49 90.8586L1195.51 91.1414C1195.75 92.8031 1195.73 94.1881 1195.44 95.486C1195.15 96.7839 1194.58 98.0478 1193.66 99.4526L1195.34 100.547ZM1197.49 90.8586C1197.21 88.8952 1196.36 87.4822 1195.69 86.2681C1195.01 85.0427 1194.5 83.9819 1194.5 82.5H1192.5C1192.5 84.5181 1193.24 85.9573 1193.94 87.2319C1194.64 88.5178 1195.29 89.6048 1195.51 91.1414L1197.49 90.8586Z" fill="#0069FF"/>
<path d="M1289.57 58.9218C1289.27 59.3839 1289.4 60.0037 1289.86 60.306C1290.32 60.6083 1290.94 60.4787 1291.24 60.0165L1289.57 58.9218ZM1291.26 23.2452C1291.55 22.7723 1291.4 22.1577 1290.92 21.8723C1290.45 21.5869 1289.84 21.7388 1289.55 22.2116L1291.26 23.2452ZM1290.62 45.642C1290.62 45.1239 1290.77 44.4877 1291.05 43.7227C1291.32 42.9615 1291.68 42.1638 1292.06 41.3049C1292.43 40.4672 1292.81 39.576 1293.08 38.7071C1293.33 37.8435 1293.5 36.9171 1293.37 36.0191L1291.39 36.3019C1291.46 36.7866 1291.38 37.3911 1291.16 38.1324C1290.94 38.8684 1290.6 39.6563 1290.23 40.4976C1289.87 41.3177 1289.47 42.199 1289.16 43.0427C1288.86 43.8826 1288.62 44.7774 1288.62 45.642H1290.62ZM1293.37 36.0191C1293.15 34.4519 1292.58 33.3348 1292.01 32.3508C1291.44 31.3519 1290.92 30.584 1290.57 29.5233L1288.67 30.1557C1289.11 31.4654 1289.77 32.4753 1290.28 33.3529C1290.8 34.2454 1291.22 35.1036 1291.39 36.3019L1293.37 36.0191ZM1290.57 29.5233C1289.87 27.4307 1290.12 25.1336 1291.26 23.2452L1289.55 22.2116C1288.11 24.6015 1287.79 27.5075 1288.67 30.1557L1290.57 29.5233ZM1291.24 60.0165C1292.06 58.773 1292.61 57.5755 1292.9 56.2909C1293.18 55.0062 1293.19 53.6876 1292.98 52.2166L1291 52.4994C1291.18 53.7939 1291.16 54.8619 1290.94 55.857C1290.72 56.8521 1290.29 57.8275 1289.57 58.9218L1291.24 60.0165ZM1292.98 52.2166C1292.75 50.6205 1292.05 49.4698 1291.53 48.5181C1291 47.5551 1290.62 46.7566 1290.62 45.642H1288.62C1288.62 47.2928 1289.22 48.4696 1289.78 49.4819C1290.34 50.5055 1290.83 51.3301 1291 52.4994L1292.98 52.2166Z" fill="#0069FF"/>
<path d="M1299.05 58.9218C1298.75 59.3839 1298.88 60.0037 1299.34 60.306C1299.8 60.6083 1300.42 60.4787 1300.73 60.0165L1299.05 58.9218ZM1300.75 23.2452C1301.03 22.7723 1300.88 22.1577 1300.41 21.8723C1299.93 21.5869 1299.32 21.7388 1299.03 22.2116L1300.75 23.2452ZM1300.1 45.642C1300.1 45.1239 1300.25 44.4877 1300.53 43.7227C1300.8 42.9615 1301.17 42.1638 1301.54 41.3049C1301.91 40.4672 1302.3 39.576 1302.56 38.7071C1302.82 37.8435 1302.98 36.9171 1302.85 36.0191L1300.87 36.3019C1300.94 36.7866 1300.86 37.3911 1300.64 38.1324C1300.42 38.8684 1300.09 39.6563 1299.71 40.4976C1299.35 41.3177 1298.95 42.199 1298.65 43.0427C1298.34 43.8826 1298.1 44.7774 1298.1 45.642H1300.1ZM1302.85 36.0191C1302.63 34.4519 1302.06 33.3348 1301.5 32.3508C1300.92 31.3519 1300.4 30.584 1300.05 29.5233L1298.15 30.1557C1298.59 31.4654 1299.26 32.4753 1299.76 33.3529C1300.28 34.2454 1300.7 35.1036 1300.87 36.3019L1302.85 36.0191ZM1300.05 29.5233C1299.35 27.4307 1299.61 25.1336 1300.75 23.2452L1299.03 22.2116C1297.59 24.6015 1297.27 27.5075 1298.15 30.1557L1300.05 29.5233ZM1300.73 60.0165C1301.54 58.773 1302.09 57.5755 1302.38 56.2909C1302.66 55.0062 1302.67 53.6876 1302.46 52.2166L1300.48 52.4994C1300.66 53.7939 1300.65 54.8619 1300.42 55.857C1300.2 56.8521 1299.77 57.8275 1299.05 58.9218L1300.73 60.0165ZM1302.46 52.2166C1302.23 50.6205 1301.54 49.4698 1301.01 48.5181C1300.48 47.5551 1300.1 46.7566 1300.1 45.642H1298.1C1298.1 47.2928 1298.7 48.4696 1299.26 49.4819C1299.82 50.5055 1300.31 51.3301 1300.48 52.4994L1302.46 52.2166Z" fill="#0069FF"/>
<path d="M1275 16.8025L1274 16.7525L1273.95 17.8025H1275V16.8025ZM1307 16.8025V17.8025H1308.08L1308 16.7277L1307 16.8025ZM1280.09 58.9218C1279.79 59.3839 1279.92 60.0037 1280.38 60.306C1280.84 60.6083 1281.46 60.4787 1281.76 60.0165L1280.09 58.9218ZM1281.78 23.2452C1282.07 22.7723 1281.92 22.1577 1281.44 21.8723C1280.97 21.5869 1280.36 21.7388 1280.07 22.2116L1281.78 23.2452ZM1275 17.8025H1307V15.8025H1275V17.8025ZM1307 16.8025C1308 16.7277 1308 16.7272 1308 16.7266C1308 16.7263 1308 16.7257 1308 16.7251C1308 16.724 1308 16.7227 1308 16.7211C1308 16.7179 1308 16.7138 1308 16.7088C1307.99 16.6986 1307.99 16.6847 1307.99 16.6672C1307.99 16.6321 1307.98 16.5823 1307.98 16.5189C1307.96 16.3922 1307.94 16.2106 1307.91 15.982C1307.84 15.5252 1307.73 14.879 1307.55 14.1061C1307.19 12.5645 1306.55 10.497 1305.41 8.41932C1303.1 4.22579 1298.75 0 1290.8 0V2C1297.86 2 1301.62 5.67545 1303.65 9.38315C1304.68 11.2561 1305.27 13.1392 1305.61 14.5606C1305.77 15.2692 1305.87 15.8575 1305.93 16.2649C1305.96 16.4684 1305.98 16.6264 1305.99 16.7311C1305.99 16.7834 1306 16.8224 1306 16.8471C1306 16.8594 1306 16.8682 1306 16.8733C1306 16.8758 1306 16.8774 1306 16.8781C1306 16.8784 1306 16.8785 1306 16.8784C1306 16.8783 1306 16.878 1306 16.878C1306 16.8777 1306 16.8773 1307 16.8025ZM1290.8 0C1282.85 0 1278.59 4.23167 1276.39 8.4364C1275.29 10.5172 1274.7 12.587 1274.38 14.1294C1274.22 14.9027 1274.12 15.5494 1274.07 16.0064C1274.04 16.2351 1274.03 16.4168 1274.02 16.5436C1274.01 16.607 1274.01 16.6568 1274 16.692C1274 16.7095 1274 16.7234 1274 16.7336C1274 16.7386 1274 16.7428 1274 16.7459C1274 16.7475 1274 16.7489 1274 16.75C1274 16.7505 1274 16.7511 1274 16.7514C1274 16.752 1274 16.7525 1275 16.8025C1276 16.8524 1276 16.8528 1276 16.8532C1276 16.8532 1276 16.8535 1276 16.8535C1276 16.8537 1276 16.8536 1276 16.8533C1276 16.8526 1276 16.851 1276 16.8485C1276 16.8434 1276 16.8347 1276 16.8223C1276 16.7977 1276 16.7587 1276.01 16.7064C1276.02 16.6018 1276.03 16.4439 1276.06 16.2405C1276.1 15.8333 1276.19 15.2454 1276.34 14.5373C1276.63 13.1167 1277.18 11.2359 1278.16 9.36607C1280.1 5.66956 1283.75 2 1290.8 2V0ZM1281.14 45.642C1281.14 45.1239 1281.29 44.4877 1281.56 43.7227C1281.84 42.9615 1282.2 42.1638 1282.58 41.3049C1282.95 40.4672 1283.33 39.576 1283.59 38.7071C1283.85 37.8435 1284.02 36.9171 1283.89 36.0191L1281.91 36.3019C1281.98 36.7866 1281.9 37.3911 1281.68 38.1324C1281.46 38.8684 1281.12 39.6563 1280.75 40.4976C1280.39 41.3177 1279.99 42.199 1279.68 43.0427C1279.38 43.8826 1279.14 44.7774 1279.14 45.642H1281.14ZM1283.89 36.0191C1283.67 34.452 1283.1 33.3348 1282.53 32.3508C1281.95 31.3519 1281.44 30.584 1281.08 29.5233L1279.19 30.1557C1279.62 31.4654 1280.29 32.4753 1280.8 33.3529C1281.32 34.2454 1281.74 35.1036 1281.91 36.3019L1283.89 36.0191ZM1281.08 29.5233C1280.39 27.4307 1280.64 25.1336 1281.78 23.2452L1280.07 22.2116C1278.63 24.6015 1278.3 27.5075 1279.19 30.1557L1281.08 29.5233ZM1281.76 60.0165C1282.58 58.773 1283.13 57.5755 1283.41 56.2909C1283.7 55.0062 1283.71 53.6876 1283.5 52.2166L1281.52 52.4994C1281.7 53.7939 1281.68 54.8619 1281.46 55.857C1281.24 56.8521 1280.8 57.8275 1280.09 58.9218L1281.76 60.0165ZM1283.5 52.2166C1283.27 50.6205 1282.57 49.4698 1282.05 48.5181C1281.52 47.5551 1281.14 46.7566 1281.14 45.642H1279.14C1279.14 47.2928 1279.74 48.4696 1280.3 49.4819C1280.86 50.5055 1281.35 51.3301 1281.52 52.4994L1283.5 52.2166Z" fill="#0069FF"/>
<path d="M20.6632 94.4526C20.3608 94.9148 20.4905 95.5346 20.9527 95.8369C21.4148 96.1392 22.0346 96.0096 22.3369 95.5474L20.6632 94.4526ZM22.3562 49.0168C22.6416 48.5439 22.4896 47.9293 22.0168 47.6439C21.544 47.3585 20.9293 47.5104 20.6439 47.9832L22.3562 49.0168ZM21.5 77.5C21.5 76.7983 21.704 75.9588 22.0576 74.9806C22.4099 74.0062 22.8752 72.9855 23.3525 71.9036C23.8204 70.843 24.2973 69.7288 24.6219 68.6467C24.945 67.57 25.1445 66.4402 24.99 65.3586L23.0101 65.6414C23.1056 66.3098 22.9926 67.1175 22.7063 68.072C22.4215 69.0212 21.9922 70.032 21.5226 71.0964C21.0624 72.1395 20.5589 73.2438 20.1768 74.3006C19.7961 75.3537 19.5 76.4517 19.5 77.5H21.5ZM24.99 65.3586C24.7136 63.4242 24.0169 62.0447 23.303 60.8115C22.5803 59.5633 21.9072 58.5593 21.4487 57.1838L19.5514 57.8162C20.0929 59.4407 20.9197 60.6867 21.5721 61.8135C22.2331 62.9553 22.7864 64.0758 23.0101 65.6414L24.99 65.3586ZM21.4487 57.1838C20.5413 54.4616 20.8734 51.4734 22.3562 49.0168L20.6439 47.9832C18.8584 50.9413 18.4587 54.5384 19.5514 57.8162L21.4487 57.1838ZM22.3369 95.5474C23.3534 93.9933 24.0367 92.5073 24.3895 90.9199C24.7422 89.3324 24.7526 87.6969 24.49 85.8586L22.5101 86.1414C22.7475 87.8031 22.7255 89.1881 22.4371 90.486C22.1487 91.7839 21.582 93.0478 20.6632 94.4526L22.3369 95.5474ZM24.49 85.8586C24.2095 83.8952 23.3565 82.4822 22.6888 81.2681C22.0148 80.0427 21.5 78.9819 21.5 77.5H19.5C19.5 79.5181 20.2353 80.9573 20.9363 82.2319C21.6436 83.5178 22.2906 84.6048 22.5101 86.1414L24.49 85.8586Z" fill="#0069FF"/>
<path d="M32.6632 94.4526C32.3608 94.9148 32.4905 95.5346 32.9527 95.8369C33.4148 96.1392 34.0346 96.0096 34.3369 95.5474L32.6632 94.4526ZM34.3562 49.0168C34.6416 48.5439 34.4896 47.9293 34.0168 47.6439C33.544 47.3585 32.9293 47.5104 32.6439 47.9832L34.3562 49.0168ZM33.5 77.5C33.5 76.7983 33.704 75.9588 34.0576 74.9806C34.4099 74.0062 34.8752 72.9855 35.3525 71.9036C35.8204 70.843 36.2973 69.7288 36.6219 68.6467C36.945 67.57 37.1445 66.4402 36.99 65.3586L35.0101 65.6414C35.1056 66.3098 34.9926 67.1175 34.7063 68.072C34.4215 69.0212 33.9922 70.032 33.5226 71.0964C33.0624 72.1395 32.5589 73.2438 32.1768 74.3006C31.7961 75.3537 31.5 76.4517 31.5 77.5H33.5ZM36.99 65.3586C36.7136 63.4242 36.0169 62.0447 35.303 60.8115C34.5803 59.5633 33.9072 58.5593 33.4487 57.1838L31.5514 57.8162C32.0929 59.4407 32.9197 60.6867 33.5721 61.8135C34.2331 62.9553 34.7864 64.0758 35.0101 65.6414L36.99 65.3586ZM33.4487 57.1838C32.5413 54.4616 32.8734 51.4734 34.3562 49.0168L32.6439 47.9832C30.8584 50.9413 30.4587 54.5384 31.5514 57.8162L33.4487 57.1838ZM34.3369 95.5474C35.3534 93.9933 36.0367 92.5073 36.3895 90.9199C36.7422 89.3324 36.7526 87.6969 36.49 85.8586L34.5101 86.1414C34.7475 87.8031 34.7255 89.1881 34.4371 90.486C34.1487 91.7839 33.582 93.0478 32.6632 94.4526L34.3369 95.5474ZM36.49 85.8586C36.2095 83.8952 35.3565 82.4822 34.6888 81.2681C34.0148 80.0427 33.5 78.9819 33.5 77.5H31.5C31.5 79.5181 32.2353 80.9573 32.9363 82.2319C33.6436 83.5178 34.2906 84.6048 34.5101 86.1414L36.49 85.8586Z" fill="#0069FF"/>
<path d="M2 41L1.00125 40.9501L0.948751 42H2V41ZM42.5 41V42H43.5778L43.4972 40.9252L42.5 41ZM8.66312 94.4526C8.36081 94.9148 8.49042 95.5346 8.95262 95.8369C9.41481 96.1392 10.0346 96.0096 10.3369 95.5474L8.66312 94.4526ZM10.3561 49.0168C10.6415 48.5439 10.4896 47.9293 10.0168 47.6439C9.54394 47.3585 8.92927 47.5104 8.64387 47.9832L10.3561 49.0168ZM2 42H42.5V40H2V42ZM42.5 41C43.4972 40.9252 43.4972 40.9247 43.4971 40.9241C43.4971 40.9238 43.497 40.9231 43.497 40.9225C43.4969 40.9212 43.4968 40.9197 43.4966 40.9179C43.4963 40.9142 43.496 40.9093 43.4955 40.9032C43.4944 40.8911 43.493 40.8742 43.4911 40.8527C43.4872 40.8096 43.4813 40.7481 43.4729 40.6693C43.4561 40.5118 43.4292 40.2851 43.3884 39.9992C43.3067 39.4276 43.1688 38.6174 42.9426 37.6478C42.4911 35.7127 41.6825 33.1205 40.2512 30.5181C37.3676 25.2752 31.9445 20 22 20V22C31.0555 22 35.8824 26.7248 38.4988 31.4819C39.8175 33.8795 40.5714 36.2873 40.9949 38.1022C41.2062 39.0076 41.3339 39.7599 41.4085 40.282C41.4458 40.543 41.4697 40.746 41.4842 40.8815C41.4914 40.9492 41.4962 40.9999 41.4992 41.0326C41.5006 41.0489 41.5016 41.0607 41.5022 41.0678C41.5025 41.0713 41.5027 41.0737 41.5028 41.0749C41.5028 41.0754 41.5029 41.0757 41.5029 41.0757C41.5029 41.0757 41.5029 41.0755 41.5029 41.0755C41.5028 41.0752 41.5028 41.0748 42.5 41ZM22 20C12.0507 20 6.74801 25.2811 3.9896 30.5352C2.6217 33.1407 1.87745 35.7352 1.47414 37.671C1.27204 38.6412 1.15434 39.4518 1.08695 40.0236C1.05324 40.3096 1.03206 40.5364 1.01919 40.694C1.01275 40.7728 1.00839 40.8344 1.00558 40.8774C1.00417 40.899 1.00315 40.9159 1.00245 40.9281C1.0021 40.9341 1.00183 40.939 1.00163 40.9427C1.00153 40.9445 1.00145 40.9461 1.00139 40.9473C1.00136 40.9479 1.00132 40.9486 1.00131 40.9489C1.00127 40.9495 1.00125 40.9501 2 41C2.99875 41.0499 2.99873 41.0503 2.99872 41.0506C2.99872 41.0506 2.9987 41.0509 2.9987 41.0509C2.9987 41.0509 2.99872 41.0506 2.99875 41.05C2.99881 41.0488 2.99894 41.0465 2.99915 41.0429C2.99955 41.0359 3.00026 41.0241 3.00132 41.0078C3.00345 40.9752 3.00702 40.9245 3.01255 40.8568C3.02361 40.7214 3.04247 40.5185 3.0732 40.2577C3.13472 39.7357 3.24359 38.9838 3.43211 38.079C3.81005 36.2648 4.5033 33.8593 5.7604 31.4648C8.25199 26.7189 12.9493 22 22 22V20ZM9.5 77.5C9.5 76.7983 9.70396 75.9588 10.0576 74.9806C10.4099 74.0062 10.8751 72.9855 11.3524 71.9036C11.8204 70.843 12.2973 69.7288 12.6219 68.6467C12.9449 67.57 13.1445 66.4402 12.9899 65.3586L11.0101 65.6414C11.1055 66.3098 10.9926 67.1175 10.7062 68.072C10.4215 69.0212 9.99214 70.032 9.52258 71.0964C9.06238 72.1395 8.55885 73.2438 8.17676 74.3006C7.79604 75.3537 7.5 76.4517 7.5 77.5H9.5ZM12.9899 65.3586C12.7136 63.4242 12.0169 62.0447 11.3029 60.8115C10.5803 59.5633 9.90718 58.5593 9.44868 57.1838L7.55132 57.8162C8.09282 59.4407 8.9197 60.6867 9.57207 61.8135C10.2331 62.9553 10.7864 64.0758 11.0101 65.6414L12.9899 65.3586ZM9.44868 57.1838C8.54129 54.4616 8.87332 51.4734 10.3561 49.0168L8.64387 47.9832C6.85839 50.9413 6.45871 54.5384 7.55132 57.8162L9.44868 57.1838ZM10.3369 95.5474C11.3533 93.9933 12.0367 92.5073 12.3894 90.9199C12.7422 89.3324 12.7526 87.6969 12.4899 85.8586L10.5101 86.1414C10.7474 87.8031 10.7255 89.1881 10.437 90.486C10.1486 91.7839 9.58195 93.0478 8.66312 94.4526L10.3369 95.5474ZM12.4899 85.8586C12.2095 83.8952 11.3565 82.4822 10.6887 81.2681C10.0148 80.0427 9.5 78.9819 9.5 77.5H7.5C7.5 79.5181 8.23524 80.9573 8.93628 82.2319C9.64354 83.5178 10.2905 84.6048 10.5101 86.1414L12.4899 85.8586Z" fill="#0069FF"/>
<path d="M209 55L209.526 54.1497L208.132 55.4961L209 55ZM277 64.5L277.496 65.3682L278.71 64.6748L277.662 63.7502L277 64.5ZM209 75L208.106 74.5528L209.581 75.8137L209 75ZM248 72.5L248 71.5L247.996 71.5L248 72.5ZM248 57L247.974 57.9997L247.987 58H248V57ZM209 55C208.474 55.8503 208.474 55.8502 208.474 55.8502C208.474 55.8503 208.474 55.8503 208.474 55.8503C208.474 55.8505 208.474 55.8507 208.475 55.851C208.476 55.8517 208.478 55.8527 208.48 55.8541C208.484 55.857 208.491 55.8614 208.501 55.8672C208.52 55.879 208.548 55.8968 208.586 55.9204C208.661 55.9674 208.771 56.0373 208.912 56.1276C209.195 56.3083 209.6 56.5704 210.086 56.8946C211.06 57.5437 212.354 58.4373 213.644 59.4204C214.94 60.4081 216.205 61.465 217.136 62.4405C217.602 62.9289 217.961 63.3726 218.198 63.756C218.445 64.1566 218.5 64.3964 218.5 64.5H220.5C220.5 63.8536 220.226 63.234 219.9 62.705C219.562 62.1587 219.101 61.6023 218.583 61.0595C217.545 59.9725 216.185 58.8419 214.856 57.8296C213.521 56.8127 212.19 55.8938 211.195 55.2304C210.697 54.8983 210.282 54.6292 209.99 54.4427C209.844 54.3494 209.729 54.2767 209.65 54.2271C209.611 54.2023 209.58 54.1832 209.559 54.1702C209.549 54.1637 209.541 54.1587 209.535 54.1553C209.533 54.1536 209.53 54.1523 209.529 54.1513C209.528 54.1509 209.528 54.1505 209.527 54.1502C209.527 54.1501 209.527 54.15 209.527 54.1499C209.526 54.1498 209.526 54.1497 209 55ZM218.5 64.5C218.5 64.6112 218.44 64.8712 218.185 65.3086C217.942 65.7251 217.577 66.2108 217.107 66.7477C216.169 67.82 214.898 69.0028 213.599 70.1157C212.306 71.2242 211.01 72.2429 210.035 72.9858C209.548 73.3568 209.142 73.658 208.859 73.866C208.718 73.97 208.607 74.0506 208.532 74.105C208.494 74.1322 208.465 74.1528 208.446 74.1664C208.437 74.1733 208.43 74.1784 208.425 74.1817C208.423 74.1834 208.421 74.1846 208.42 74.1853C208.42 74.1857 208.419 74.186 208.419 74.1861C208.419 74.1862 208.419 74.1862 208.419 74.1863C208.419 74.1863 208.419 74.1863 209 75C209.581 75.8137 209.581 75.8137 209.582 75.8135C209.582 75.8135 209.582 75.8133 209.582 75.8132C209.582 75.8129 209.583 75.8125 209.584 75.8119C209.585 75.8109 209.587 75.8094 209.59 75.8074C209.596 75.8035 209.603 75.7978 209.614 75.7904C209.635 75.7755 209.665 75.7536 209.704 75.7251C209.783 75.6681 209.898 75.5847 210.043 75.4778C210.334 75.2639 210.749 74.9557 211.247 74.5767C212.24 73.8196 213.569 72.7758 214.901 71.6343C216.227 70.4972 217.581 69.2425 218.612 68.0648C219.127 67.4767 219.581 66.8843 219.913 66.3164C220.232 65.7695 220.5 65.1388 220.5 64.5H218.5ZM209 75C209.894 75.4472 209.894 75.4471 209.895 75.447C209.895 75.4469 209.895 75.4468 209.895 75.4466C209.895 75.4463 209.895 75.4459 209.895 75.4453C209.896 75.4442 209.897 75.4426 209.898 75.4405C209.9 75.4364 209.903 75.4303 209.907 75.4224C209.915 75.4066 209.926 75.3833 209.941 75.3531C209.971 75.2926 210.015 75.204 210.07 75.0907C210.181 74.8642 210.339 74.5385 210.528 74.1402C210.906 73.3442 211.412 72.2548 211.918 71.0844C212.423 69.9167 212.934 68.655 213.322 67.5176C213.695 66.4213 214 65.3094 214 64.5L212 64.5C212 64.9406 211.805 65.7662 211.428 66.873C211.066 67.9388 210.577 69.1458 210.082 70.2906C209.588 71.4327 209.094 72.4996 208.722 73.2817C208.536 73.6724 208.382 73.9913 208.274 74.212C208.22 74.3224 208.177 74.4081 208.149 74.466C208.134 74.495 208.123 74.517 208.116 74.5316C208.113 74.5389 208.11 74.5443 208.108 74.5479C208.107 74.5496 208.106 74.5509 208.106 74.5518C208.106 74.5522 208.106 74.5525 208.106 74.5526C208.106 74.5527 208.106 74.5528 208.106 74.5528C208.106 74.5528 208.106 74.5528 209 75ZM214 64.5C214 63.6791 213.689 62.6245 213.312 61.6122C212.922 60.5625 212.407 59.4213 211.9 58.3762C211.392 57.3282 210.885 56.3617 210.505 55.6581C210.315 55.3059 210.157 55.0187 210.045 54.8189C209.99 54.719 209.946 54.6409 209.916 54.5875C209.901 54.5608 209.889 54.5402 209.881 54.5262C209.877 54.5191 209.874 54.5137 209.872 54.51C209.871 54.5081 209.87 54.5067 209.869 54.5057C209.869 54.5052 209.869 54.5047 209.869 54.5044C209.868 54.5043 209.868 54.5041 209.868 54.5041C209.868 54.504 209.868 54.5039 209 55C208.132 55.4961 208.132 55.4961 208.132 55.4961C208.132 55.4961 208.132 55.4961 208.132 55.4962C208.132 55.4963 208.132 55.4966 208.132 55.4969C208.133 55.4976 208.133 55.4987 208.134 55.5002C208.136 55.5032 208.138 55.5079 208.142 55.5141C208.149 55.5267 208.16 55.5458 208.174 55.5709C208.203 55.6213 208.245 55.696 208.298 55.7924C208.406 55.9852 208.56 56.2644 208.745 56.6075C209.115 57.2945 209.608 58.2343 210.1 59.2488C210.593 60.2662 211.078 61.3438 211.438 62.3097C211.811 63.313 212 64.0709 212 64.5L214 64.5ZM218.98 65.3539C225.738 69.4724 232.992 71.5039 238.535 72.5088C241.311 73.012 243.668 73.2597 245.335 73.3816C246.169 73.4426 246.831 73.4722 247.287 73.4866C247.515 73.4938 247.691 73.4971 247.812 73.4987C247.873 73.4995 247.92 73.4998 247.952 73.4999C247.968 73.5 247.98 73.5 247.989 73.5C247.993 73.5 247.997 73.5 247.999 73.5C248.001 73.5 248.002 73.5 248.003 73.5C248.003 73.5 248.003 73.5 248.004 73.5C248.004 73.5 248.004 73.5 248 72.5C247.996 71.5 247.996 71.5 247.996 71.5C247.996 71.5 247.996 71.5 247.996 71.5C247.996 71.5 247.996 71.5 247.995 71.5C247.994 71.5 247.992 71.5 247.989 71.5C247.983 71.5 247.973 71.5 247.96 71.5C247.934 71.4998 247.893 71.4996 247.838 71.4989C247.729 71.4974 247.565 71.4944 247.35 71.4876C246.919 71.474 246.285 71.4458 245.481 71.387C243.873 71.2693 241.587 71.0294 238.892 70.5409C233.494 69.5623 226.498 67.5938 220.02 63.6461L218.98 65.3539ZM248 73.5C255.665 73.5 263.04 71.4591 268.474 69.4372C271.196 68.4242 273.444 67.411 275.014 66.6498C275.8 66.2691 276.416 65.951 276.838 65.727C277.049 65.615 277.211 65.5265 277.322 65.4654C277.378 65.4349 277.42 65.4112 277.449 65.3948C277.464 65.3866 277.475 65.3803 277.483 65.3758C277.487 65.3736 277.49 65.3719 277.492 65.3706C277.493 65.37 277.494 65.3694 277.495 65.3691C277.495 65.3689 277.495 65.3687 277.496 65.3686C277.496 65.3684 277.496 65.3682 277 64.5C276.504 63.6318 276.504 63.6317 276.504 63.6316C276.504 63.6316 276.504 63.6316 276.504 63.6317C276.504 63.6318 276.503 63.632 276.503 63.6323C276.502 63.633 276.5 63.6341 276.497 63.6358C276.491 63.639 276.482 63.6441 276.47 63.6511C276.445 63.665 276.407 63.6862 276.356 63.7143C276.254 63.7704 276.101 63.8537 275.9 63.9605C275.498 64.174 274.903 64.4809 274.142 64.8502C272.618 65.589 270.429 66.5758 267.776 67.5628C262.46 69.5409 255.335 71.5 248 71.5V73.5ZM277 64.5C277.662 63.7502 277.661 63.7497 277.661 63.7493C277.66 63.7491 277.66 63.7486 277.659 63.7483C277.659 63.7475 277.658 63.7467 277.657 63.7457C277.654 63.7438 277.652 63.7414 277.648 63.7385C277.642 63.7329 277.633 63.7254 277.622 63.7163C277.601 63.698 277.571 63.6728 277.532 63.6413C277.455 63.5781 277.343 63.4894 277.196 63.3788C276.902 63.1575 276.467 62.8487 275.884 62.4818C274.718 61.7479 272.961 60.7825 270.559 59.8215C265.751 57.8985 258.375 56 248 56V58C258.125 58 265.249 59.8515 269.816 61.6785C272.101 62.5925 273.751 63.5021 274.819 64.1745C275.353 64.5107 275.742 64.7878 275.993 64.9767C276.119 65.0712 276.21 65.1436 276.267 65.1903C276.296 65.2137 276.316 65.2306 276.328 65.2407C276.334 65.2457 276.337 65.249 276.339 65.2506C276.34 65.2514 276.34 65.2517 276.34 65.2516C276.34 65.2515 276.34 65.2513 276.34 65.251C276.34 65.2509 276.339 65.2506 276.339 65.2505C276.339 65.2502 276.338 65.2498 277 64.5ZM248 57C248.026 56.0003 248.025 56.0003 248.025 56.0003C248.025 56.0003 248.024 56.0003 248.024 56.0003C248.023 56.0003 248.022 56.0002 248.021 56.0002C248.018 56.0002 248.015 56.0001 248.011 56C248.002 55.9998 247.99 55.9996 247.975 55.9993C247.944 55.9988 247.899 55.9982 247.84 55.9977C247.724 55.9969 247.554 55.9967 247.335 55.9993C246.896 56.0046 246.257 56.0211 245.45 56.0659C243.836 56.1554 241.543 56.358 238.81 56.81C233.349 57.7132 226.103 59.6172 219.008 63.6295L219.992 65.3705C226.824 61.5071 233.828 59.6611 239.136 58.7832C241.787 58.3447 244.007 58.149 245.561 58.0628C246.337 58.0198 246.946 58.0041 247.359 57.9992C247.565 57.9967 247.722 57.9969 247.825 57.9977C247.877 57.9981 247.916 57.9986 247.941 57.999C247.953 57.9992 247.963 57.9994 247.968 57.9995C247.971 57.9996 247.973 57.9996 247.974 57.9997C247.974 57.9997 247.975 57.9997 247.975 57.9997C247.975 57.9997 247.975 57.9997 247.975 57.9997C247.974 57.9997 247.974 57.9997 248 57Z" fill="#0069FF"/>
<path d="M460 10L460.528 9.15063L459.131 10.4947L460 10ZM565 24.725L565.498 25.5924L566.705 24.8996L565.663 23.9764L565 24.725ZM460 41L459.105 40.5541L460.583 41.8127L460 41ZM520.221 37.125V36.125L520.216 36.125L520.221 37.125ZM520.221 13.1L520.195 14.0997L520.208 14.1H520.221V13.1ZM488 30.5661L487.632 31.4959L488 30.5661ZM501.5 15.2486L501.288 14.2712L501.5 15.2486ZM528.945 13.4092L529.018 12.4118L528.945 13.4092ZM555.225 19.2171L555.61 18.2941L555.225 19.2171ZM460 10C459.472 10.8494 459.472 10.8494 459.472 10.8494C459.472 10.8494 459.472 10.8495 459.473 10.8496C459.473 10.8498 459.474 10.8502 459.474 10.8508C459.476 10.8519 459.479 10.8535 459.483 10.8558C459.49 10.8604 459.501 10.8673 459.516 10.8766C459.546 10.8952 459.59 10.9232 459.648 10.96C459.765 11.0336 459.937 11.1427 460.156 11.2835C460.595 11.5652 461.223 11.9734 461.977 12.4779C463.486 13.488 465.495 14.88 467.499 16.4131C469.51 17.9507 471.488 19.6091 472.955 21.1516C473.689 21.9236 474.272 22.6422 474.665 23.2813C475.069 23.9375 475.213 24.4141 475.213 24.725H477.213C477.213 23.8734 476.851 23.018 476.368 22.2332C475.875 21.4312 475.191 20.5999 474.405 19.7734C472.831 18.1191 470.757 16.3868 468.714 14.8244C466.665 13.2575 464.62 11.8401 463.089 10.8158C462.323 10.3032 461.685 9.88795 461.237 9.60044C461.013 9.45667 460.837 9.34478 460.716 9.26856C460.655 9.23045 460.609 9.20125 460.577 9.18144C460.561 9.17153 460.549 9.16397 460.541 9.15882C460.537 9.15624 460.534 9.15427 460.531 9.1529C460.53 9.15222 460.529 9.15169 460.529 9.15131C460.529 9.15112 460.528 9.15095 460.528 9.15085C460.528 9.15072 460.528 9.15063 460 10ZM475.213 24.725C475.213 25.0434 475.063 25.5488 474.652 26.2569C474.253 26.9441 473.664 27.7263 472.926 28.5726C471.452 30.2635 469.467 32.1166 467.454 33.8482C465.447 35.5754 463.436 37.1613 461.926 38.3166C461.171 38.8939 460.542 39.3626 460.103 39.6866C459.883 39.8486 459.711 39.9743 459.594 40.0593C459.536 40.1018 459.491 40.1341 459.461 40.1556C459.446 40.1664 459.435 40.1744 459.428 40.1797C459.424 40.1824 459.421 40.1844 459.42 40.1856C459.419 40.1863 459.418 40.1867 459.418 40.187C459.418 40.1871 459.417 40.1872 459.417 40.1873C459.417 40.1873 459.417 40.1873 460 41C460.583 41.8127 460.583 41.8126 460.583 41.8124C460.583 41.8123 460.583 41.8122 460.584 41.8119C460.584 41.8115 460.585 41.8109 460.586 41.8101C460.588 41.8086 460.592 41.8063 460.596 41.8034C460.604 41.7975 460.616 41.7888 460.632 41.7774C460.663 41.7547 460.71 41.7211 460.77 41.6773C460.89 41.5897 461.067 41.4612 461.29 41.2962C461.738 40.9663 462.376 40.4905 463.141 39.9053C464.67 38.7356 466.713 37.1246 468.759 35.3643C470.8 33.6084 472.868 31.6834 474.434 29.8868C475.216 28.9893 475.894 28.1004 476.381 27.2618C476.856 26.4441 477.213 25.5691 477.213 24.725H475.213ZM460 41C460.895 41.4459 460.895 41.4458 460.895 41.4456C460.895 41.4455 460.895 41.4453 460.895 41.4451C460.896 41.4446 460.896 41.444 460.896 41.4432C460.897 41.4415 460.898 41.4391 460.9 41.436C460.903 41.4297 460.908 41.4205 460.914 41.4084C460.926 41.3842 460.943 41.3485 460.966 41.302C461.012 41.2089 461.079 41.0724 461.164 40.8976C461.335 40.5481 461.578 40.0452 461.869 39.4299C462.451 38.1999 463.229 36.5175 464.007 34.7113C464.784 32.9077 465.567 30.9671 466.158 29.2239C466.736 27.5217 467.176 25.8775 467.176 24.725L465.176 24.725C465.176 25.51 464.845 26.8689 464.264 28.5816C463.697 30.2532 462.937 32.1392 462.17 33.92C461.404 35.6981 460.637 37.3579 460.061 38.574C459.774 39.1818 459.534 39.6779 459.366 40.0216C459.283 40.1935 459.217 40.3272 459.172 40.4176C459.15 40.4629 459.133 40.4973 459.122 40.5203C459.116 40.5317 459.112 40.5404 459.109 40.546C459.108 40.5489 459.106 40.551 459.106 40.5523C459.105 40.553 459.105 40.5535 459.105 40.5538C459.105 40.554 459.105 40.554 459.105 40.5541C459.105 40.5542 459.105 40.5541 460 41ZM467.176 24.725C467.176 23.5611 466.73 22.0085 466.149 20.4419C465.555 18.838 464.767 17.0867 463.989 15.4744C463.209 13.8593 462.429 12.3686 461.846 11.2826C461.554 10.7392 461.311 10.2962 461.14 9.98844C461.054 9.83456 460.987 9.71446 460.941 9.63249C460.918 9.59151 460.9 9.56005 460.888 9.53867C460.882 9.52798 460.877 9.51981 460.874 9.51422C460.873 9.51142 460.871 9.50928 460.87 9.50779C460.87 9.50704 460.87 9.50646 460.869 9.50604C460.869 9.50583 460.869 9.50564 460.869 9.50554C460.869 9.50539 460.869 9.50528 460 10C459.131 10.4947 459.131 10.4947 459.131 10.4947C459.131 10.4948 459.131 10.4948 459.131 10.495C459.131 10.4952 459.131 10.4956 459.132 10.4962C459.132 10.4973 459.133 10.4991 459.135 10.5015C459.138 10.5064 459.142 10.5139 459.147 10.5238C459.159 10.5437 459.176 10.5737 459.198 10.6131C459.242 10.692 459.308 10.8087 459.391 10.9591C459.558 11.2599 459.797 11.6948 460.084 12.2292C460.659 13.2986 461.424 14.7626 462.188 16.3443C462.953 17.9289 463.71 19.6167 464.274 21.137C464.851 22.6946 465.176 23.9514 465.176 24.725L467.176 24.725ZM487.647 18.2816C483.738 19.7587 479.713 21.5885 475.72 23.8553L476.707 25.5947C480.601 23.3843 484.531 21.5972 488.353 20.1525L487.647 18.2816ZM475.691 25.578C479.624 27.9837 483.666 29.9265 487.632 31.4959L488.368 29.6362C484.494 28.1031 480.557 26.2098 476.735 23.872L475.691 25.578ZM487 19.2171V30.5661H489V19.2171H487ZM501.288 14.2712C497.096 15.1787 492.458 16.4634 487.647 18.2816L488.353 20.1525C493.06 18.374 497.602 17.1156 501.712 16.226L501.288 14.2712ZM487.632 31.4959C492.392 33.3796 497.047 34.7271 501.278 35.6914L501.722 33.7414C497.574 32.7959 493.018 31.4765 488.368 29.6362L487.632 31.4959ZM500.5 15.2486V34.7164H502.5V15.2486H500.5ZM520.221 13.1C520.246 12.1003 520.246 12.1003 520.246 12.1003C520.246 12.1003 520.246 12.1003 520.246 12.1003C520.246 12.1003 520.246 12.1003 520.245 12.1003C520.245 12.1003 520.244 12.1003 520.243 12.1003C520.241 12.1002 520.239 12.1002 520.236 12.1001C520.23 12.0999 520.222 12.0998 520.211 12.0996C520.189 12.0991 520.158 12.0986 520.117 12.098C520.035 12.0969 519.916 12.0958 519.76 12.0956C519.448 12.0953 518.991 12.0989 518.403 12.1144C517.227 12.1453 515.526 12.2237 513.411 12.4132L513.589 14.4052C515.658 14.2199 517.317 14.1436 518.456 14.1137C519.025 14.0987 519.463 14.0953 519.758 14.0956C519.905 14.0957 520.016 14.0968 520.09 14.0978C520.126 14.0983 520.154 14.0988 520.171 14.0992C520.18 14.0993 520.186 14.0995 520.19 14.0996C520.192 14.0996 520.194 14.0996 520.194 14.0997C520.195 14.0997 520.195 14.0997 520.195 14.0997C520.195 14.0997 520.195 14.0997 520.195 14.0997C520.195 14.0997 520.195 14.0997 520.195 14.0997C520.195 14.0997 520.195 14.0997 520.221 13.1ZM513.411 12.4132C510.197 12.7011 506.026 13.2457 501.288 14.2712L501.712 16.226C506.356 15.2206 510.445 14.687 513.589 14.4052L513.411 12.4132ZM501.278 35.6914C505.981 36.7635 510.166 37.3631 513.397 37.6986L513.603 35.7093C510.438 35.3806 506.334 34.7926 501.722 33.7414L501.278 35.6914ZM513.397 37.6986C515.499 37.9169 517.199 38.0235 518.377 38.0756C518.966 38.1016 519.424 38.114 519.737 38.1198C519.894 38.1227 520.014 38.124 520.096 38.1246C520.137 38.1249 520.168 38.125 520.19 38.125C520.2 38.125 520.209 38.125 520.215 38.125C520.218 38.125 520.22 38.125 520.222 38.125C520.223 38.125 520.223 38.125 520.224 38.125C520.224 38.125 520.224 38.125 520.224 38.125C520.225 38.125 520.225 38.125 520.225 38.125C520.225 38.125 520.225 38.125 520.221 37.125C520.216 36.125 520.216 36.125 520.216 36.125C520.216 36.125 520.216 36.125 520.216 36.125C520.216 36.125 520.216 36.125 520.216 36.125C520.216 36.125 520.216 36.125 520.216 36.125C520.215 36.125 520.214 36.125 520.212 36.125C520.207 36.125 520.201 36.125 520.192 36.125C520.174 36.125 520.147 36.1249 520.109 36.1247C520.035 36.1241 519.923 36.1229 519.775 36.1202C519.478 36.1146 519.036 36.1027 518.465 36.0775C517.323 36.0271 515.663 35.9231 513.603 35.7093L513.397 37.6986ZM512.5 13.4092V36.7039H514.5V13.4092H512.5ZM529.018 12.4118C526.258 12.2111 523.327 12.1 520.221 12.1V14.1C523.279 14.1 526.161 14.2094 528.873 14.4066L529.018 12.4118ZM520.221 38.125C523.213 38.125 526.176 37.9212 529.067 37.5664L528.824 35.5813C526.004 35.9273 523.123 36.125 520.221 36.125V38.125ZM527.945 13.4092V36.5738H529.945V13.4092H527.945ZM529.067 37.5664C533.894 36.9742 538.526 35.9606 542.77 34.7681L542.23 32.8426C538.064 34.013 533.532 35.0036 528.824 35.5813L529.067 37.5664ZM542.426 14.2703C538.502 13.4399 534.043 12.7773 529.018 12.4118L528.873 14.4066C533.808 14.7655 538.178 15.4155 542.012 16.2269L542.426 14.2703ZM543.5 33.7902L543.219 15.2335L541.219 15.2637L541.5 33.8205L543.5 33.7902ZM565 24.725C565.663 23.9764 565.663 23.9762 565.663 23.976C565.662 23.9759 565.662 23.9757 565.662 23.9755C565.662 23.9752 565.661 23.9748 565.661 23.9744C565.66 23.9736 565.659 23.9726 565.657 23.9714C565.655 23.9691 565.651 23.9662 565.647 23.9626C565.639 23.9554 565.628 23.9456 565.613 23.9334C565.585 23.9089 565.544 23.8745 565.491 23.8307C565.384 23.7433 565.229 23.6188 565.023 23.4621C564.61 23.1489 563.997 22.7077 563.171 22.1793C561.521 21.1226 559.026 19.7181 555.61 18.2941L554.84 20.1401C558.144 21.5173 560.536 22.8668 562.093 23.8637C562.872 24.3622 563.442 24.7726 563.812 25.0545C563.998 25.1954 564.134 25.3042 564.221 25.3757C564.264 25.4115 564.295 25.4379 564.315 25.4545C564.324 25.4627 564.331 25.4685 564.335 25.4717C564.337 25.4733 564.338 25.4743 564.338 25.4746C564.338 25.4748 564.338 25.4748 564.338 25.4746C564.338 25.4745 564.338 25.4744 564.338 25.4742C564.338 25.4741 564.337 25.474 564.337 25.4739C564.337 25.4738 564.337 25.4736 565 24.725ZM555.61 18.2941C552.172 16.8606 547.803 15.4081 542.426 14.2703L542.012 16.2269C547.265 17.3387 551.515 18.7538 554.84 20.1401L555.61 18.2941ZM542.77 34.7681C547.655 33.3957 552.032 31.7844 555.609 30.2995L554.842 28.4524C551.324 29.9128 547.023 31.4958 542.23 32.8426L542.77 34.7681ZM555.609 30.2995C558.652 29.0361 561.117 27.8629 562.825 27.0042C563.679 26.5748 564.344 26.2238 564.797 25.9792C565.023 25.8569 565.197 25.7612 565.314 25.6956C565.373 25.6628 565.418 25.6375 565.449 25.6202C565.464 25.6115 565.476 25.6048 565.484 25.6002C565.488 25.5978 565.491 25.596 565.494 25.5947C565.495 25.5941 565.496 25.5936 565.496 25.5932C565.497 25.593 565.497 25.5928 565.497 25.5927C565.497 25.5926 565.497 25.5926 565.497 25.5925C565.497 25.5925 565.498 25.5924 565 24.725C564.502 23.8576 564.503 23.8575 564.503 23.8575C564.503 23.8575 564.503 23.8575 564.503 23.8575C564.503 23.8575 564.503 23.8575 564.502 23.8576C564.502 23.8577 564.502 23.858 564.501 23.8584C564.5 23.8592 564.497 23.8605 564.494 23.8623C564.488 23.8659 564.478 23.8716 564.464 23.8793C564.437 23.8946 564.396 23.9178 564.341 23.9485C564.23 24.01 564.065 24.1015 563.846 24.2194C563.409 24.4554 562.762 24.7973 561.926 25.2174C560.255 26.0577 557.834 27.2101 554.842 28.4524L555.609 30.2995ZM554.225 19.2171V29.376H556.225V19.2171H554.225Z" fill="#0069FF"/>
<path d="M269 96L269.519 95.1452L268.136 96.5034L269 96ZM321 103.125L321.489 103.997L322.731 103.301L321.654 102.369L321 103.125ZM269 111L268.109 110.546L269.574 111.819L269 111ZM298.824 109.125L298.824 108.125L298.819 108.125L298.824 109.125ZM298.824 97.5L298.798 98.4997L298.811 98.5H298.824V97.5ZM282.867 105.951L282.506 106.884L282.506 106.884L282.867 105.951ZM289.552 98.5396L289.345 97.5613L289.552 98.5396ZM289.552 107.96L289.335 108.936L289.552 107.96ZM309.718 98.5396L309.92 97.5604L309.718 98.5396ZM316.159 100.46L316.536 99.5338L316.536 99.5338L316.159 100.46ZM269 96C268.481 96.8548 268.481 96.8548 268.481 96.8547C268.481 96.8548 268.481 96.8548 268.481 96.8548C268.481 96.8549 268.481 96.855 268.482 96.8553C268.483 96.8557 268.484 96.8565 268.485 96.8575C268.489 96.8596 268.494 96.8628 268.501 96.8671C268.515 96.8758 268.537 96.889 268.565 96.9065C268.622 96.9415 268.706 96.9936 268.814 97.061C269.029 97.1959 269.337 97.3917 269.707 97.6338C270.449 98.1191 271.435 98.7864 272.416 99.5198C273.404 100.258 274.359 101.042 275.058 101.76C275.408 102.12 275.67 102.439 275.838 102.706C275.921 102.838 275.972 102.942 276.001 103.021C276.03 103.099 276.029 103.131 276.029 103.125H278.029C278.029 102.567 277.79 102.052 277.531 101.64C277.26 101.21 276.894 100.779 276.491 100.365C275.685 99.5364 274.633 98.6797 273.613 97.9177C272.587 97.1511 271.565 96.4591 270.802 95.9599C270.419 95.7099 270.1 95.5072 269.876 95.3667C269.764 95.2964 269.676 95.2416 269.615 95.2041C269.585 95.1853 269.561 95.1709 269.545 95.161C269.537 95.156 269.531 95.1522 269.526 95.1496C269.524 95.1483 269.522 95.1473 269.521 95.1465C269.521 95.1462 269.52 95.1459 269.52 95.1456C269.52 95.1455 269.519 95.1454 269.519 95.1454C269.519 95.1453 269.519 95.1452 269 96ZM276.029 103.125C276.029 103.12 276.03 103.158 275.997 103.248C275.966 103.336 275.911 103.453 275.825 103.598C275.651 103.891 275.382 104.242 275.029 104.639C274.323 105.43 273.361 106.309 272.371 107.141C271.387 107.968 270.399 108.729 269.656 109.285C269.285 109.562 268.976 109.787 268.76 109.943C268.653 110.02 268.568 110.08 268.511 110.121C268.483 110.141 268.461 110.156 268.447 110.167C268.44 110.172 268.434 110.175 268.431 110.178C268.429 110.179 268.428 110.18 268.427 110.18C268.427 110.181 268.426 110.181 268.426 110.181C268.426 110.181 268.426 110.181 268.426 110.181C268.426 110.181 268.426 110.181 269 111C269.574 111.819 269.574 111.819 269.574 111.819C269.574 111.819 269.574 111.819 269.574 111.819C269.575 111.818 269.575 111.818 269.576 111.818C269.577 111.817 269.579 111.816 269.581 111.814C269.585 111.811 269.591 111.807 269.599 111.801C269.615 111.79 269.639 111.773 269.669 111.752C269.73 111.709 269.818 111.646 269.93 111.565C270.153 111.404 270.472 111.172 270.853 110.887C271.615 110.317 272.635 109.532 273.658 108.672C274.676 107.816 275.722 106.867 276.521 105.97C276.92 105.523 277.279 105.066 277.544 104.621C277.796 104.197 278.029 103.675 278.029 103.125H276.029ZM269 111C269.891 111.454 269.891 111.454 269.891 111.454C269.891 111.454 269.891 111.454 269.891 111.454C269.891 111.453 269.891 111.453 269.892 111.453C269.892 111.452 269.893 111.451 269.894 111.449C269.895 111.446 269.898 111.441 269.901 111.435C269.907 111.423 269.916 111.405 269.927 111.383C269.95 111.337 269.984 111.27 270.026 111.185C270.111 111.014 270.233 110.769 270.378 110.469C270.668 109.87 271.056 109.05 271.444 108.169C271.832 107.29 272.226 106.337 272.526 105.474C272.81 104.654 273.059 103.782 273.059 103.125L271.059 103.125C271.059 103.406 270.925 103.987 270.636 104.819C270.362 105.608 269.992 106.507 269.614 107.362C269.238 108.215 268.861 109.012 268.578 109.597C268.437 109.889 268.319 110.127 268.237 110.292C268.195 110.375 268.163 110.439 268.142 110.482C268.131 110.503 268.122 110.52 268.117 110.53C268.114 110.536 268.112 110.54 268.111 110.542C268.11 110.544 268.11 110.545 268.109 110.545C268.109 110.545 268.109 110.546 268.109 110.546C268.109 110.546 268.109 110.546 268.109 110.546C268.109 110.546 268.109 110.546 269 111ZM273.059 103.125C273.059 102.457 272.804 101.626 272.516 100.866C272.213 100.068 271.815 99.2036 271.426 98.4162C271.035 97.6259 270.646 96.8976 270.354 96.3678C270.208 96.1024 270.087 95.886 270.001 95.7353C269.958 95.6599 269.924 95.6009 269.901 95.5604C269.889 95.5402 269.88 95.5246 269.874 95.5139C269.871 95.5085 269.869 95.5043 269.867 95.5015C269.866 95.5 269.865 95.4989 269.865 95.4981C269.865 95.4977 269.864 95.4973 269.864 95.4971C269.864 95.497 269.864 95.4968 269.864 95.4968C269.864 95.4967 269.864 95.4966 269 96C268.136 96.5034 268.136 96.5034 268.136 96.5033C268.136 96.5034 268.136 96.5034 268.136 96.5034C268.136 96.5035 268.136 96.5036 268.136 96.5038C268.136 96.5043 268.137 96.5051 268.138 96.5062C268.139 96.5083 268.141 96.5118 268.143 96.5164C268.149 96.5256 268.157 96.5397 268.168 96.5584C268.189 96.5957 268.221 96.6514 268.262 96.7232C268.344 96.867 268.461 97.0753 268.602 97.3315C268.884 97.8446 269.259 98.546 269.633 99.3025C270.008 100.062 270.375 100.862 270.646 101.575C270.931 102.327 271.059 102.856 271.059 103.125L273.059 103.125ZM282.52 99.5218C280.564 100.244 278.547 101.14 276.544 102.25L277.514 104C279.418 102.944 281.341 102.089 283.213 101.398L282.52 99.5218ZM276.516 103.983C278.492 105.164 280.519 106.116 282.506 106.884L283.227 105.019C281.331 104.285 279.407 103.381 277.542 102.267L276.516 103.983ZM281.867 100.46V105.951H283.867V100.46H281.867ZM289.345 97.5613C287.249 98.0046 284.929 98.6325 282.52 99.5218L283.213 101.398C285.518 100.547 287.744 99.9443 289.759 99.518L289.345 97.5613ZM282.506 106.884C284.89 107.806 287.22 108.465 289.335 108.936L289.77 106.983C287.735 106.53 285.503 105.899 283.227 105.019L282.506 106.884ZM288.552 98.5396V107.96H290.552V98.5396H288.552ZM298.824 97.5C298.849 96.5003 298.849 96.5003 298.849 96.5003C298.849 96.5003 298.848 96.5003 298.848 96.5003C298.848 96.5003 298.848 96.5003 298.848 96.5003C298.847 96.5003 298.847 96.5003 298.846 96.5003C298.845 96.5002 298.844 96.5002 298.842 96.5002C298.839 96.5001 298.834 96.5 298.828 96.4999C298.817 96.4996 298.8 96.4994 298.779 96.4991C298.736 96.4985 298.675 96.4979 298.596 96.4979C298.437 96.4977 298.207 96.4995 297.911 96.5071C297.319 96.5223 296.466 96.5608 295.408 96.6534L295.582 98.6458C296.596 98.5571 297.408 98.5207 297.962 98.5065C298.239 98.4993 298.452 98.4977 298.594 98.4979C298.665 98.4979 298.718 98.4984 298.752 98.4989C298.769 98.4991 298.782 98.4993 298.79 98.4995C298.793 98.4996 298.796 98.4996 298.798 98.4997C298.798 98.4997 298.799 98.4997 298.799 98.4997C298.799 98.4997 298.799 98.4997 298.799 98.4997C298.799 98.4997 298.799 98.4997 298.799 98.4997C298.799 98.4997 298.798 98.4997 298.798 98.4997C298.798 98.4997 298.798 98.4997 298.824 97.5ZM295.408 96.6534C293.8 96.7942 291.714 97.0603 289.345 97.5613L289.759 99.518C292.037 99.0363 294.042 98.7807 295.582 98.6458L295.408 96.6534ZM289.335 108.936C291.687 109.459 293.779 109.752 295.394 109.916L295.596 107.926C294.045 107.769 292.032 107.487 289.77 106.983L289.335 108.936ZM295.394 109.916C296.446 110.023 297.298 110.075 297.889 110.101C298.185 110.113 298.416 110.12 298.575 110.122C298.654 110.124 298.716 110.125 298.758 110.125C298.78 110.125 298.796 110.125 298.808 110.125C298.813 110.125 298.818 110.125 298.821 110.125C298.823 110.125 298.824 110.125 298.826 110.125C298.826 110.125 298.826 110.125 298.827 110.125C298.827 110.125 298.827 110.125 298.827 110.125C298.827 110.125 298.828 110.125 298.828 110.125C298.828 110.125 298.828 110.125 298.824 109.125C298.819 108.125 298.819 108.125 298.819 108.125C298.819 108.125 298.82 108.125 298.82 108.125C298.82 108.125 298.82 108.125 298.82 108.125C298.82 108.125 298.82 108.125 298.82 108.125C298.82 108.125 298.819 108.125 298.818 108.125C298.817 108.125 298.814 108.125 298.81 108.125C298.802 108.125 298.789 108.125 298.772 108.125C298.737 108.125 298.683 108.124 298.612 108.123C298.469 108.12 298.254 108.115 297.975 108.102C297.418 108.078 296.606 108.029 295.596 107.926L295.394 109.916ZM294.495 97.6496V108.921H296.495V97.6496H294.495ZM303.215 96.6521C301.836 96.5542 300.373 96.5 298.824 96.5V98.5C300.327 98.5 301.743 98.5525 303.074 98.6471L303.215 96.6521ZM298.824 110.125C300.327 110.125 301.814 110.025 303.263 109.851L303.025 107.865C301.646 108.031 300.239 108.125 298.824 108.125V110.125ZM302.144 97.6496V108.858H304.144V97.6496H302.144ZM303.263 109.851C305.682 109.561 308.001 109.065 310.122 108.483L309.592 106.554C307.549 107.115 305.329 107.589 303.025 107.865L303.263 109.851ZM309.92 97.5604C307.955 97.1541 305.725 96.8305 303.215 96.6521L303.074 98.6471C305.496 98.8193 307.638 99.1308 309.516 99.5189L309.92 97.5604ZM310.857 107.503L310.718 98.5242L308.718 98.5551L308.857 107.534L310.857 107.503ZM321 103.125C321.654 102.369 321.654 102.369 321.654 102.368C321.654 102.368 321.654 102.368 321.653 102.368C321.653 102.368 321.653 102.367 321.652 102.367C321.652 102.366 321.651 102.366 321.65 102.365C321.648 102.363 321.646 102.361 321.643 102.359C321.638 102.355 321.631 102.349 321.623 102.342C321.606 102.328 321.583 102.31 321.555 102.286C321.497 102.24 321.415 102.176 321.308 102.096C321.093 101.937 320.778 101.716 320.358 101.453C319.517 100.927 318.256 100.234 316.536 99.5338L315.782 101.386C317.39 102.041 318.549 102.681 319.297 103.149C319.671 103.382 319.942 103.573 320.115 103.702C320.202 103.766 320.264 103.815 320.302 103.846C320.321 103.861 320.334 103.872 320.342 103.878C320.345 103.881 320.347 103.883 320.348 103.883C320.348 103.884 320.348 103.884 320.348 103.883C320.348 103.883 320.347 103.883 320.347 103.882C320.347 103.882 320.347 103.882 320.346 103.882C320.346 103.882 320.346 103.882 320.346 103.882C320.346 103.881 320.346 103.881 321 103.125ZM316.536 99.5338C314.806 98.8288 312.613 98.1171 309.92 97.5604L309.516 99.5189C312.087 100.051 314.163 100.727 315.782 101.386L316.536 99.5338ZM310.122 108.483C312.563 107.813 314.75 107.026 316.535 106.302L315.783 104.449C314.056 105.15 311.944 105.909 309.592 106.554L310.122 108.483ZM316.535 106.302C318.055 105.686 319.287 105.113 320.141 104.693C320.569 104.483 320.902 104.311 321.131 104.191C321.245 104.13 321.333 104.083 321.393 104.05C321.423 104.034 321.446 104.021 321.462 104.012C321.47 104.008 321.476 104.004 321.481 104.002C321.483 104.001 321.485 104 321.486 103.999C321.487 103.998 321.487 103.998 321.488 103.998C321.488 103.998 321.488 103.998 321.488 103.998C321.489 103.998 321.489 103.997 321.489 103.997C321.489 103.997 321.489 103.997 321 103.125C320.511 102.253 320.511 102.253 320.511 102.253C320.511 102.253 320.511 102.253 320.511 102.253C320.511 102.252 320.511 102.252 320.511 102.252C320.511 102.252 320.511 102.253 320.511 102.253C320.511 102.253 320.51 102.253 320.508 102.254C320.506 102.256 320.501 102.258 320.495 102.262C320.482 102.269 320.463 102.279 320.436 102.294C320.384 102.322 320.303 102.366 320.197 102.422C319.985 102.534 319.669 102.697 319.259 102.898C318.441 103.3 317.252 103.853 315.783 104.449L316.535 106.302ZM315.159 100.46V105.375H317.159V100.46H315.159Z" fill="#0069FF"/>
<rect x="1108" y="27" width="12" height="35" rx="6" stroke="#0069FF" stroke-width="2"/>
<rect x="1044" y="139" width="12" height="25" rx="6" stroke="#0069FF" stroke-width="2"/>
<path d="M1074 121C1074 124.25 1071.16 127 1067.5 127C1063.84 127 1061 124.25 1061 121C1061 117.75 1063.84 115 1067.5 115C1071.16 115 1074 117.75 1074 121Z" stroke="#0069FF" stroke-width="2"/>
<rect x="195" y="198" width="12" height="35" rx="6" stroke="#0069FF" stroke-width="2"/>
<circle cx="227" cy="252" r="6" stroke="#0069FF" stroke-width="2"/>
</svg>
