<svg viewBox="0 0 1214 321" fill="none" xmlns="http://www.w3.org/2000/svg">
<path d="M202.663 132.453C202.361 132.915 202.49 133.535 202.953 133.837C203.415 134.139 204.035 134.01 204.337 133.547L202.663 132.453ZM204.356 87.0168C204.642 86.5439 204.49 85.9293 204.017 85.6439C203.544 85.3585 202.929 85.5104 202.644 85.9832L204.356 87.0168ZM203.5 115.5C203.5 114.798 203.704 113.959 204.058 112.981C204.41 112.006 204.875 110.986 205.352 109.904C205.82 108.843 206.297 107.729 206.622 106.647C206.945 105.57 207.145 104.44 206.99 103.359L205.01 103.641C205.106 104.31 204.993 105.118 204.706 106.072C204.422 107.021 203.992 108.032 203.523 109.096C203.062 110.139 202.559 111.244 202.177 112.301C201.796 113.354 201.5 114.452 201.5 115.5H203.5ZM206.99 103.359C206.714 101.424 206.017 100.045 205.303 98.8115C204.58 97.5633 203.907 96.5593 203.449 95.1838L201.551 95.8162C202.093 97.4407 202.92 98.6867 203.572 99.8135C204.233 100.955 204.786 102.076 205.01 103.641L206.99 103.359ZM203.449 95.1838C202.541 92.4616 202.873 89.4734 204.356 87.0168L202.644 85.9832C200.858 88.9413 200.459 92.5384 201.551 95.8162L203.449 95.1838ZM204.337 133.547C205.353 131.993 206.037 130.507 206.389 128.92C206.742 127.332 206.753 125.697 206.49 123.859L204.51 124.141C204.747 125.803 204.725 127.188 204.437 128.486C204.149 129.784 203.582 131.048 202.663 132.453L204.337 133.547ZM206.49 123.859C206.209 121.895 205.356 120.482 204.689 119.268C204.015 118.043 203.5 116.982 203.5 115.5H201.5C201.5 117.518 202.235 118.957 202.936 120.232C203.644 121.518 204.291 122.605 204.51 124.141L206.49 123.859Z" fill="#0069FF"/>
<path d="M214.663 132.453C214.361 132.915 214.49 133.535 214.953 133.837C215.415 134.139 216.035 134.01 216.337 133.547L214.663 132.453ZM216.356 87.0168C216.642 86.5439 216.49 85.9293 216.017 85.6439C215.544 85.3585 214.929 85.5104 214.644 85.9832L216.356 87.0168ZM215.5 115.5C215.5 114.798 215.704 113.959 216.058 112.981C216.41 112.006 216.875 110.986 217.352 109.904C217.82 108.843 218.297 107.729 218.622 106.647C218.945 105.57 219.145 104.44 218.99 103.359L217.01 103.641C217.106 104.31 216.993 105.118 216.706 106.072C216.422 107.021 215.992 108.032 215.523 109.096C215.062 110.139 214.559 111.244 214.177 112.301C213.796 113.354 213.5 114.452 213.5 115.5H215.5ZM218.99 103.359C218.714 101.424 218.017 100.045 217.303 98.8115C216.58 97.5633 215.907 96.5593 215.449 95.1838L213.551 95.8162C214.093 97.4407 214.92 98.6867 215.572 99.8135C216.233 100.955 216.786 102.076 217.01 103.641L218.99 103.359ZM215.449 95.1838C214.541 92.4616 214.873 89.4734 216.356 87.0168L214.644 85.9832C212.858 88.9413 212.459 92.5384 213.551 95.8162L215.449 95.1838ZM216.337 133.547C217.353 131.993 218.037 130.507 218.389 128.92C218.742 127.332 218.753 125.697 218.49 123.859L216.51 124.141C216.747 125.803 216.725 127.188 216.437 128.486C216.149 129.784 215.582 131.048 214.663 132.453L216.337 133.547ZM218.49 123.859C218.209 121.895 217.356 120.482 216.689 119.268C216.015 118.043 215.5 116.982 215.5 115.5H213.5C213.5 117.518 214.235 118.957 214.936 120.232C215.644 121.518 216.291 122.605 216.51 124.141L218.49 123.859Z" fill="#0069FF"/>
<path d="M184 79L183.001 78.9501L182.949 80H184V79ZM224.5 79V80H225.578L225.497 78.9252L224.5 79ZM190.663 132.453C190.361 132.915 190.49 133.535 190.953 133.837C191.415 134.139 192.035 134.01 192.337 133.547L190.663 132.453ZM192.356 87.0168C192.642 86.5439 192.49 85.9293 192.017 85.6439C191.544 85.3585 190.929 85.5104 190.644 85.9832L192.356 87.0168ZM184 80H224.5V78H184V80ZM224.5 79C225.497 78.9252 225.497 78.9247 225.497 78.9241C225.497 78.9238 225.497 78.9231 225.497 78.9225C225.497 78.9212 225.497 78.9197 225.497 78.9179C225.496 78.9142 225.496 78.9093 225.495 78.9032C225.494 78.8911 225.493 78.8742 225.491 78.8527C225.487 78.8096 225.481 78.7481 225.473 78.6693C225.456 78.5118 225.429 78.2851 225.388 77.9992C225.307 77.4276 225.169 76.6174 224.943 75.6478C224.491 73.7127 223.683 71.1205 222.251 68.5181C219.368 63.2752 213.945 58 204 58V60C213.055 60 217.882 64.7248 220.499 69.4819C221.817 71.8795 222.571 74.2873 222.995 76.1022C223.206 77.0076 223.334 77.7599 223.408 78.282C223.446 78.543 223.47 78.746 223.484 78.8815C223.491 78.9492 223.496 78.9999 223.499 79.0326C223.501 79.0489 223.502 79.0607 223.502 79.0678C223.503 79.0713 223.503 79.0737 223.503 79.0749C223.503 79.0754 223.503 79.0757 223.503 79.0757C223.503 79.0757 223.503 79.0755 223.503 79.0755C223.503 79.0752 223.503 79.0748 224.5 79ZM204 58C194.051 58 188.748 63.2811 185.99 68.5352C184.622 71.1407 183.877 73.7352 183.474 75.671C183.272 76.6412 183.154 77.4518 183.087 78.0236C183.053 78.3096 183.032 78.5364 183.019 78.694C183.013 78.7728 183.008 78.8344 183.006 78.8774C183.004 78.899 183.003 78.9159 183.002 78.9281C183.002 78.9341 183.002 78.939 183.002 78.9427C183.002 78.9445 183.001 78.9461 183.001 78.9473C183.001 78.9479 183.001 78.9486 183.001 78.9489C183.001 78.9495 183.001 78.9501 184 79C184.999 79.0499 184.999 79.0503 184.999 79.0506C184.999 79.0506 184.999 79.0509 184.999 79.0509C184.999 79.0509 184.999 79.0506 184.999 79.05C184.999 79.0488 184.999 79.0465 184.999 79.0429C185 79.0359 185 79.0241 185.001 79.0078C185.003 78.9752 185.007 78.9245 185.013 78.8568C185.024 78.7214 185.042 78.5185 185.073 78.2577C185.135 77.7357 185.244 76.9838 185.432 76.079C185.81 74.2648 186.503 71.8593 187.76 69.4648C190.252 64.7189 194.949 60 204 60V58ZM191.5 115.5C191.5 114.798 191.704 113.959 192.058 112.981C192.41 112.006 192.875 110.986 193.352 109.904C193.82 108.843 194.297 107.729 194.622 106.647C194.945 105.57 195.144 104.44 194.99 103.359L193.01 103.641C193.106 104.31 192.993 105.118 192.706 106.072C192.421 107.021 191.992 108.032 191.523 109.096C191.062 110.139 190.559 111.244 190.177 112.301C189.796 113.354 189.5 114.452 189.5 115.5H191.5ZM194.99 103.359C194.714 101.424 194.017 100.045 193.303 98.8115C192.58 97.5633 191.907 96.5593 191.449 95.1838L189.551 95.8162C190.093 97.4407 190.92 98.6867 191.572 99.8135C192.233 100.955 192.786 102.076 193.01 103.641L194.99 103.359ZM191.449 95.1838C190.541 92.4616 190.873 89.4734 192.356 87.0168L190.644 85.9832C188.858 88.9413 188.459 92.5384 189.551 95.8162L191.449 95.1838ZM192.337 133.547C193.353 131.993 194.037 130.507 194.389 128.92C194.742 127.332 194.753 125.697 194.49 123.859L192.51 124.141C192.747 125.803 192.725 127.188 192.437 128.486C192.149 129.784 191.582 131.048 190.663 132.453L192.337 133.547ZM194.49 123.859C194.209 121.895 193.356 120.482 192.689 119.268C192.015 118.043 191.5 116.982 191.5 115.5H189.5C189.5 117.518 190.235 118.957 190.936 120.232C191.644 121.518 192.291 122.605 192.51 124.141L194.49 123.859Z" fill="#0069FF"/>
<path d="M124.571 66.9217C124.268 67.3839 124.398 68.0037 124.86 68.306C125.322 68.6083 125.942 68.4787 126.244 68.0165L124.571 66.9217ZM126.264 31.2452C126.549 30.7723 126.397 30.1577 125.924 29.8723C125.451 29.5869 124.837 29.7388 124.551 30.2116L126.264 31.2452ZM125.617 53.642C125.617 53.1239 125.769 52.4877 126.045 51.7227C126.321 50.9615 126.684 50.1638 127.063 49.3049C127.433 48.4672 127.814 47.576 128.075 46.7071C128.334 45.8435 128.501 44.9171 128.373 44.0191L126.393 44.3019C126.462 44.7866 126.382 45.3911 126.159 46.1324C125.939 46.8684 125.604 47.6563 125.233 48.4976C124.871 49.3177 124.47 50.199 124.165 51.0427C123.861 51.8826 123.617 52.7774 123.617 53.642H125.617ZM128.373 44.0191C128.149 42.4519 127.583 41.3348 127.014 40.3508C126.435 39.3519 125.92 38.584 125.566 37.5233L123.669 38.1557C124.105 39.4654 124.775 40.4753 125.283 41.3529C125.799 42.2454 126.222 43.1036 126.393 44.3019L128.373 44.0191ZM125.566 37.5233C124.868 35.4307 125.124 33.1336 126.264 31.2452L124.551 30.2116C123.109 32.6015 122.786 35.5075 123.669 38.1557L125.566 37.5233ZM126.244 68.0165C127.058 66.773 127.61 65.5755 127.895 64.2909C128.181 63.0062 128.188 61.6876 127.978 60.2166L125.998 60.4994C126.183 61.7939 126.164 62.8619 125.943 63.857C125.722 64.8521 125.286 65.8275 124.571 66.9217L126.244 68.0165ZM127.978 60.2166C127.75 58.6205 127.054 57.4698 126.531 56.5181C126.001 55.5551 125.617 54.7566 125.617 53.642H123.617C123.617 55.2928 124.221 56.4696 124.778 57.4819C125.341 58.5055 125.831 59.3301 125.998 60.4994L127.978 60.2166Z" fill="#0069FF"/>
<path d="M134.052 66.9217C133.75 67.3839 133.879 68.0037 134.342 68.306C134.804 68.6083 135.423 68.4787 135.726 68.0165L134.052 66.9217ZM135.745 31.2452C136.03 30.7723 135.879 30.1577 135.406 29.8723C134.933 29.5869 134.318 29.7388 134.033 30.2116L135.745 31.2452ZM135.099 53.642C135.099 53.1239 135.25 52.4877 135.527 51.7227C135.802 50.9615 136.166 50.1638 136.545 49.3049C136.914 48.4672 137.296 47.576 137.557 46.7071C137.816 45.8435 137.982 44.9171 137.854 44.0191L135.874 44.3019C135.944 44.7866 135.863 45.3911 135.641 46.1324C135.42 46.8684 135.086 47.6563 134.715 48.4976C134.353 49.3177 133.951 50.199 133.646 51.0427C133.342 51.8826 133.099 52.7774 133.099 53.642H135.099ZM137.854 44.0191C137.63 42.4519 137.065 41.3348 136.495 40.3508C135.917 39.3519 135.401 38.584 135.047 37.5233L133.15 38.1557C133.587 39.4654 134.256 40.4753 134.764 41.3529C135.281 42.2454 135.703 43.1036 135.874 44.3019L137.854 44.0191ZM135.047 37.5233C134.35 35.4307 134.605 33.1336 135.745 31.2452L134.033 30.2116C132.59 32.6015 132.267 35.5075 133.15 38.1557L135.047 37.5233ZM135.726 68.0165C136.539 66.773 137.091 65.5755 137.377 64.2909C137.662 63.0062 137.669 61.6876 137.459 60.2166L135.479 60.4994C135.664 61.7939 135.646 62.8619 135.424 63.857C135.203 64.8521 134.768 65.8275 134.052 66.9217L135.726 68.0165ZM137.459 60.2166C137.231 58.6205 136.535 57.4698 136.012 56.5181C135.482 55.5551 135.099 54.7566 135.099 53.642H133.099C133.099 55.2928 133.703 56.4696 134.26 57.4819C134.823 58.5055 135.312 59.3301 135.479 60.4994L137.459 60.2166Z" fill="#0069FF"/>
<path d="M110 24.8025L109.001 24.7525L108.949 25.8025H110V24.8025ZM142 24.8025V25.8025H143.078L142.997 24.7277L142 24.8025ZM115.089 66.9218C114.787 67.3839 114.916 68.0037 115.379 68.306C115.841 68.6083 116.46 68.4787 116.763 68.0165L115.089 66.9218ZM116.782 31.2452C117.067 30.7723 116.916 30.1577 116.443 29.8723C115.97 29.5869 115.355 29.7388 115.07 30.2116L116.782 31.2452ZM110 25.8025H142V23.8025H110V25.8025ZM142 24.8025C142.997 24.7277 142.997 24.7272 142.997 24.7266C142.997 24.7263 142.997 24.7257 142.997 24.7251C142.997 24.724 142.997 24.7227 142.997 24.7211C142.996 24.7179 142.996 24.7138 142.996 24.7088C142.995 24.6986 142.994 24.6847 142.992 24.6672C142.989 24.6321 142.984 24.5823 142.977 24.5189C142.964 24.3922 142.942 24.2106 142.91 23.982C142.844 23.5252 142.734 22.879 142.554 22.1061C142.194 20.5645 141.55 18.497 140.407 16.4193C138.101 12.2258 133.753 8 125.802 8V10C132.864 10 136.615 13.6754 138.655 17.3832C139.685 19.2561 140.275 21.1392 140.606 22.5606C140.772 23.2692 140.872 23.8575 140.93 24.2649C140.959 24.4684 140.977 24.6264 140.989 24.7311C140.994 24.7834 140.998 24.8224 141 24.8471C141.001 24.8594 141.002 24.8682 141.002 24.8733C141.003 24.8758 141.003 24.8774 141.003 24.8781C141.003 24.8784 141.003 24.8785 141.003 24.8784C141.003 24.8783 141.003 24.878 141.003 24.878C141.003 24.8777 141.003 24.8773 142 24.8025ZM125.802 8C117.847 8 113.594 12.2317 111.386 16.4364C110.294 18.5172 109.7 20.587 109.379 22.1294C109.218 22.9027 109.124 23.5494 109.07 24.0064C109.043 24.2351 109.026 24.4168 109.016 24.5436C109.011 24.607 109.007 24.6568 109.005 24.692C109.004 24.7095 109.003 24.7234 109.002 24.7336C109.002 24.7386 109.002 24.7428 109.002 24.7459C109.002 24.7475 109.001 24.7489 109.001 24.75C109.001 24.7505 109.001 24.7512 109.001 24.7514C109.001 24.752 109.001 24.7525 110 24.8025C110.999 24.8524 110.999 24.8528 110.999 24.8532C110.999 24.8532 110.999 24.8535 110.999 24.8535C110.999 24.8537 110.999 24.8536 110.999 24.8533C110.999 24.8526 110.999 24.851 110.999 24.8485C110.999 24.8434 111 24.8347 111.001 24.8223C111.002 24.7977 111.005 24.7587 111.009 24.7064C111.018 24.6018 111.032 24.4439 111.056 24.2405C111.104 23.8333 111.189 23.2454 111.337 22.5373C111.633 21.1167 112.175 19.2359 113.157 17.3661C115.098 13.6696 118.746 10 125.802 10V8ZM116.136 53.642C116.136 53.1239 116.287 52.4877 116.564 51.7227C116.839 50.9615 117.203 50.1638 117.582 49.3049C117.951 48.4672 118.333 47.576 118.594 46.7071C118.853 45.8435 119.019 44.9171 118.891 44.0191L116.911 44.3019C116.981 44.7866 116.9 45.3911 116.678 46.1324C116.457 46.8684 116.123 47.6563 115.752 48.4976C115.39 49.3177 114.988 50.199 114.683 51.0427C114.379 51.8826 114.136 52.7774 114.136 53.642H116.136ZM118.891 44.0191C118.667 42.452 118.102 41.3348 117.532 40.3508C116.954 39.3519 116.438 38.584 116.084 37.5233L114.187 38.1557C114.624 39.4654 115.293 40.4753 115.801 41.3529C116.318 42.2454 116.74 43.1036 116.911 44.3019L118.891 44.0191ZM116.084 37.5233C115.387 35.4307 115.642 33.1336 116.782 31.2452L115.07 30.2116C113.627 32.6015 113.304 35.5075 114.187 38.1557L116.084 37.5233ZM116.763 68.0165C117.576 66.773 118.128 65.5755 118.414 64.2909C118.699 63.0062 118.706 61.6876 118.496 60.2166L116.516 60.4994C116.701 61.7939 116.683 62.8619 116.461 63.857C116.24 64.8521 115.805 65.8275 115.089 66.9218L116.763 68.0165ZM118.496 60.2166C118.268 58.6205 117.573 57.4698 117.049 56.5181C116.519 55.5551 116.136 54.7566 116.136 53.642H114.136C114.136 55.2928 114.74 56.4696 115.297 57.4819C115.86 58.5055 116.349 59.3301 116.516 60.4994L118.496 60.2166Z" fill="#0069FF"/>
<path d="M20.6632 89.4526C20.3608 89.9148 20.4905 90.5346 20.9527 90.8369C21.4148 91.1392 22.0346 91.0096 22.3369 90.5474L20.6632 89.4526ZM22.3562 44.0168C22.6416 43.5439 22.4896 42.9293 22.0168 42.6439C21.544 42.3585 20.9293 42.5104 20.6439 42.9832L22.3562 44.0168ZM21.5 72.5C21.5 71.7983 21.704 70.9588 22.0576 69.9806C22.4099 69.0062 22.8752 67.9855 23.3525 66.9036C23.8204 65.843 24.2973 64.7288 24.6219 63.6467C24.945 62.57 25.1445 61.4402 24.99 60.3586L23.0101 60.6414C23.1056 61.3098 22.9926 62.1175 22.7063 63.072C22.4215 64.0212 21.9922 65.032 21.5226 66.0964C21.0624 67.1395 20.5589 68.2438 20.1768 69.3006C19.7961 70.3537 19.5 71.4517 19.5 72.5H21.5ZM24.99 60.3586C24.7136 58.4242 24.0169 57.0447 23.303 55.8115C22.5803 54.5633 21.9072 53.5593 21.4487 52.1838L19.5514 52.8162C20.0929 54.4407 20.9197 55.6867 21.5721 56.8135C22.2331 57.9553 22.7864 59.0758 23.0101 60.6414L24.99 60.3586ZM21.4487 52.1838C20.5413 49.4616 20.8734 46.4734 22.3562 44.0168L20.6439 42.9832C18.8584 45.9413 18.4587 49.5384 19.5514 52.8162L21.4487 52.1838ZM22.3369 90.5474C23.3534 88.9933 24.0367 87.5073 24.3895 85.9199C24.7422 84.3324 24.7526 82.6969 24.49 80.8586L22.5101 81.1414C22.7475 82.8031 22.7255 84.1881 22.4371 85.486C22.1487 86.7839 21.582 88.0478 20.6632 89.4526L22.3369 90.5474ZM24.49 80.8586C24.2095 78.8952 23.3565 77.4822 22.6888 76.2681C22.0148 75.0427 21.5 73.9819 21.5 72.5H19.5C19.5 74.5181 20.2353 75.9573 20.9363 77.2319C21.6436 78.5178 22.2906 79.6048 22.5101 81.1414L24.49 80.8586Z" fill="#0069FF"/>
<path d="M32.6632 89.4526C32.3608 89.9148 32.4905 90.5346 32.9527 90.8369C33.4148 91.1392 34.0346 91.0096 34.3369 90.5474L32.6632 89.4526ZM34.3562 44.0168C34.6416 43.5439 34.4896 42.9293 34.0168 42.6439C33.544 42.3585 32.9293 42.5104 32.6439 42.9832L34.3562 44.0168ZM33.5 72.5C33.5 71.7983 33.704 70.9588 34.0576 69.9806C34.4099 69.0062 34.8752 67.9855 35.3525 66.9036C35.8204 65.843 36.2973 64.7288 36.6219 63.6467C36.945 62.57 37.1445 61.4402 36.99 60.3586L35.0101 60.6414C35.1056 61.3098 34.9926 62.1175 34.7063 63.072C34.4215 64.0212 33.9922 65.032 33.5226 66.0964C33.0624 67.1395 32.5589 68.2438 32.1768 69.3006C31.7961 70.3537 31.5 71.4517 31.5 72.5H33.5ZM36.99 60.3586C36.7136 58.4242 36.0169 57.0447 35.303 55.8115C34.5803 54.5633 33.9072 53.5593 33.4487 52.1838L31.5514 52.8162C32.0929 54.4407 32.9197 55.6867 33.5721 56.8135C34.2331 57.9553 34.7864 59.0758 35.0101 60.6414L36.99 60.3586ZM33.4487 52.1838C32.5413 49.4616 32.8734 46.4734 34.3562 44.0168L32.6439 42.9832C30.8584 45.9413 30.4587 49.5384 31.5514 52.8162L33.4487 52.1838ZM34.3369 90.5474C35.3534 88.9933 36.0367 87.5073 36.3895 85.9199C36.7422 84.3324 36.7526 82.6969 36.49 80.8586L34.5101 81.1414C34.7475 82.8031 34.7255 84.1881 34.4371 85.486C34.1487 86.7839 33.582 88.0478 32.6632 89.4526L34.3369 90.5474ZM36.49 80.8586C36.2095 78.8952 35.3565 77.4822 34.6888 76.2681C34.0148 75.0427 33.5 73.9819 33.5 72.5H31.5C31.5 74.5181 32.2353 75.9573 32.9363 77.2319C33.6436 78.5178 34.2906 79.6048 34.5101 81.1414L36.49 80.8586Z" fill="#0069FF"/>
<path d="M2 36L1.00125 35.9501L0.948751 37H2V36ZM42.5 36V37H43.5778L43.4972 35.9252L42.5 36ZM8.66312 89.4526C8.36081 89.9148 8.49042 90.5346 8.95262 90.8369C9.41481 91.1392 10.0346 91.0096 10.3369 90.5474L8.66312 89.4526ZM10.3561 44.0168C10.6415 43.5439 10.4896 42.9293 10.0168 42.6439C9.54394 42.3585 8.92927 42.5104 8.64387 42.9832L10.3561 44.0168ZM2 37H42.5V35H2V37ZM42.5 36C43.4972 35.9252 43.4972 35.9247 43.4971 35.9241C43.4971 35.9238 43.497 35.9231 43.497 35.9225C43.4969 35.9212 43.4968 35.9197 43.4966 35.9179C43.4963 35.9142 43.496 35.9093 43.4955 35.9032C43.4944 35.8911 43.493 35.8742 43.4911 35.8527C43.4872 35.8096 43.4813 35.7481 43.4729 35.6693C43.4561 35.5118 43.4292 35.2851 43.3884 34.9992C43.3067 34.4276 43.1688 33.6174 42.9426 32.6478C42.4911 30.7127 41.6825 28.1205 40.2512 25.5181C37.3676 20.2752 31.9445 15 22 15V17C31.0555 17 35.8824 21.7248 38.4988 26.4819C39.8175 28.8795 40.5714 31.2873 40.9949 33.1022C41.2062 34.0076 41.3339 34.7599 41.4085 35.282C41.4458 35.543 41.4697 35.746 41.4842 35.8815C41.4914 35.9492 41.4962 35.9999 41.4992 36.0326C41.5006 36.0489 41.5016 36.0607 41.5022 36.0678C41.5025 36.0713 41.5027 36.0737 41.5028 36.0749C41.5028 36.0754 41.5029 36.0757 41.5029 36.0757C41.5029 36.0757 41.5029 36.0755 41.5029 36.0755C41.5028 36.0752 41.5028 36.0748 42.5 36ZM22 15C12.0507 15 6.74801 20.2811 3.9896 25.5352C2.6217 28.1407 1.87745 30.7352 1.47414 32.671C1.27204 33.6412 1.15434 34.4518 1.08695 35.0236C1.05324 35.3096 1.03206 35.5364 1.01919 35.694C1.01275 35.7728 1.00839 35.8344 1.00558 35.8774C1.00417 35.899 1.00315 35.9159 1.00245 35.9281C1.0021 35.9341 1.00183 35.939 1.00163 35.9427C1.00153 35.9445 1.00145 35.9461 1.00139 35.9473C1.00136 35.9479 1.00132 35.9486 1.00131 35.9489C1.00127 35.9495 1.00125 35.9501 2 36C2.99875 36.0499 2.99873 36.0503 2.99872 36.0506C2.99872 36.0506 2.9987 36.0509 2.9987 36.0509C2.9987 36.0509 2.99872 36.0506 2.99875 36.05C2.99881 36.0488 2.99894 36.0465 2.99915 36.0429C2.99955 36.0359 3.00026 36.0241 3.00132 36.0078C3.00345 35.9752 3.00702 35.9245 3.01255 35.8568C3.02361 35.7214 3.04247 35.5185 3.0732 35.2577C3.13472 34.7357 3.24359 33.9838 3.43211 33.079C3.81005 31.2648 4.5033 28.8593 5.7604 26.4648C8.25199 21.7189 12.9493 17 22 17V15ZM9.5 72.5C9.5 71.7983 9.70396 70.9588 10.0576 69.9806C10.4099 69.0062 10.8751 67.9855 11.3524 66.9036C11.8204 65.843 12.2973 64.7288 12.6219 63.6467C12.9449 62.57 13.1445 61.4402 12.9899 60.3586L11.0101 60.6414C11.1055 61.3098 10.9926 62.1175 10.7062 63.072C10.4215 64.0212 9.99214 65.032 9.52258 66.0964C9.06238 67.1395 8.55885 68.2438 8.17676 69.3006C7.79604 70.3537 7.5 71.4517 7.5 72.5H9.5ZM12.9899 60.3586C12.7136 58.4242 12.0169 57.0447 11.3029 55.8115C10.5803 54.5633 9.90718 53.5593 9.44868 52.1838L7.55132 52.8162C8.09282 54.4407 8.9197 55.6867 9.57207 56.8135C10.2331 57.9553 10.7864 59.0758 11.0101 60.6414L12.9899 60.3586ZM9.44868 52.1838C8.54129 49.4616 8.87332 46.4734 10.3561 44.0168L8.64387 42.9832C6.85839 45.9413 6.45871 49.5384 7.55132 52.8162L9.44868 52.1838ZM10.3369 90.5474C11.3533 88.9933 12.0367 87.5073 12.3894 85.9199C12.7422 84.3324 12.7526 82.6969 12.4899 80.8586L10.5101 81.1414C10.7474 82.8031 10.7255 84.1881 10.437 85.486C10.1486 86.7839 9.58195 88.0478 8.66312 89.4526L10.3369 90.5474ZM12.4899 80.8586C12.2095 78.8952 11.3565 77.4822 10.6887 76.2681C10.0148 75.0427 9.5 73.9819 9.5 72.5H7.5C7.5 74.5181 8.23524 75.9573 8.93628 77.2319C9.64354 78.5178 10.2905 79.6048 10.5101 81.1414L12.4899 80.8586Z" fill="#0069FF"/>
<path d="M714 90L714.526 89.1497L713.132 90.4961L714 90ZM782 99.5L782.496 100.368L783.71 99.6748L782.662 98.7502L782 99.5ZM714 110L713.106 109.553L714.581 110.814L714 110ZM753 107.5V106.5L752.996 106.5L753 107.5ZM753 92L752.974 92.9997L752.987 93H753V92ZM714 90C713.474 90.8503 713.474 90.8502 713.474 90.8502C713.474 90.8503 713.474 90.8503 713.474 90.8503C713.474 90.8505 713.474 90.8507 713.475 90.851C713.476 90.8517 713.478 90.8527 713.48 90.8541C713.484 90.857 713.491 90.8614 713.501 90.8672C713.52 90.879 713.548 90.8968 713.586 90.9204C713.661 90.9674 713.771 91.0373 713.912 91.1276C714.195 91.3083 714.6 91.5704 715.086 91.8946C716.06 92.5437 717.354 93.4373 718.644 94.4204C719.94 95.4081 721.205 96.465 722.136 97.4405C722.602 97.9289 722.961 98.3726 723.198 98.756C723.445 99.1566 723.5 99.3964 723.5 99.5H725.5C725.5 98.8536 725.226 98.234 724.9 97.705C724.562 97.1587 724.101 96.6023 723.583 96.0595C722.545 94.9725 721.185 93.8419 719.856 92.8296C718.521 91.8127 717.19 90.8938 716.195 90.2304C715.697 89.8983 715.282 89.6292 714.99 89.4427C714.844 89.3494 714.729 89.2767 714.65 89.2271C714.611 89.2023 714.58 89.1832 714.559 89.1702C714.549 89.1637 714.541 89.1587 714.535 89.1553C714.533 89.1536 714.53 89.1523 714.529 89.1513C714.528 89.1509 714.528 89.1505 714.527 89.1502C714.527 89.1501 714.527 89.15 714.527 89.1499C714.526 89.1498 714.526 89.1497 714 90ZM723.5 99.5C723.5 99.6112 723.44 99.8712 723.185 100.309C722.942 100.725 722.577 101.211 722.107 101.748C721.169 102.82 719.898 104.003 718.599 105.116C717.306 106.224 716.01 107.243 715.035 107.986C714.548 108.357 714.142 108.658 713.859 108.866C713.718 108.97 713.607 109.051 713.532 109.105C713.494 109.132 713.465 109.153 713.446 109.166C713.437 109.173 713.43 109.178 713.425 109.182C713.423 109.183 713.421 109.185 713.42 109.185C713.42 109.186 713.419 109.186 713.419 109.186C713.419 109.186 713.419 109.186 713.419 109.186C713.419 109.186 713.419 109.186 714 110C714.581 110.814 714.581 110.814 714.582 110.814C714.582 110.813 714.582 110.813 714.582 110.813C714.582 110.813 714.583 110.812 714.584 110.812C714.585 110.811 714.587 110.809 714.59 110.807C714.596 110.804 714.603 110.798 714.614 110.79C714.635 110.775 714.665 110.754 714.704 110.725C714.783 110.668 714.898 110.585 715.043 110.478C715.334 110.264 715.749 109.956 716.247 109.577C717.24 108.82 718.569 107.776 719.901 106.634C721.227 105.497 722.581 104.243 723.612 103.065C724.127 102.477 724.581 101.884 724.913 101.316C725.232 100.769 725.5 100.139 725.5 99.5H723.5ZM714 110C714.894 110.447 714.894 110.447 714.895 110.447C714.895 110.447 714.895 110.447 714.895 110.447C714.895 110.446 714.895 110.446 714.895 110.445C714.896 110.444 714.897 110.443 714.898 110.441C714.9 110.436 714.903 110.43 714.907 110.422C714.915 110.407 714.926 110.383 714.941 110.353C714.971 110.293 715.015 110.204 715.07 110.091C715.181 109.864 715.339 109.539 715.528 109.14C715.906 108.344 716.412 107.255 716.918 106.084C717.423 104.917 717.934 103.655 718.322 102.518C718.695 101.421 719 100.309 719 99.5H717C717 99.9406 716.805 100.766 716.428 101.873C716.066 102.939 715.577 104.146 715.082 105.291C714.588 106.433 714.094 107.5 713.722 108.282C713.536 108.672 713.382 108.991 713.274 109.212C713.22 109.322 713.177 109.408 713.149 109.466C713.134 109.495 713.123 109.517 713.116 109.532C713.113 109.539 713.11 109.544 713.108 109.548C713.107 109.55 713.106 109.551 713.106 109.552C713.106 109.552 713.106 109.552 713.106 109.553C713.106 109.553 713.106 109.553 713.106 109.553C713.106 109.553 713.106 109.553 714 110ZM719 99.5C719 98.6791 718.689 97.6245 718.312 96.6122C717.922 95.5625 717.407 94.4213 716.9 93.3762C716.392 92.3282 715.885 91.3617 715.505 90.6581C715.315 90.3059 715.157 90.0187 715.045 89.8189C714.99 89.719 714.946 89.6409 714.916 89.5875C714.901 89.5608 714.889 89.5402 714.881 89.5262C714.877 89.5191 714.874 89.5137 714.872 89.51C714.871 89.5081 714.87 89.5067 714.869 89.5057C714.869 89.5052 714.869 89.5047 714.869 89.5044C714.868 89.5043 714.868 89.5041 714.868 89.5041C714.868 89.504 714.868 89.5039 714 90C713.132 90.4961 713.132 90.4961 713.132 90.4961C713.132 90.4961 713.132 90.4961 713.132 90.4962C713.132 90.4963 713.132 90.4966 713.132 90.4969C713.133 90.4976 713.133 90.4987 713.134 90.5002C713.136 90.5032 713.138 90.5079 713.142 90.5141C713.149 90.5267 713.16 90.5458 713.174 90.5709C713.203 90.6213 713.245 90.696 713.298 90.7924C713.406 90.9852 713.56 91.2644 713.745 91.6075C714.115 92.2945 714.608 93.2343 715.1 94.2488C715.593 95.2662 716.078 96.3438 716.438 97.3097C716.811 98.313 717 99.0709 717 99.5H719ZM723.98 100.354C730.738 104.472 737.992 106.504 743.535 107.509C746.311 108.012 748.668 108.26 750.335 108.382C751.169 108.443 751.831 108.472 752.287 108.487C752.515 108.494 752.691 108.497 752.812 108.499C752.873 108.499 752.92 108.5 752.952 108.5C752.968 108.5 752.98 108.5 752.989 108.5C752.993 108.5 752.997 108.5 752.999 108.5C753.001 108.5 753.002 108.5 753.003 108.5C753.003 108.5 753.003 108.5 753.004 108.5C753.004 108.5 753.004 108.5 753 107.5C752.996 106.5 752.996 106.5 752.996 106.5C752.996 106.5 752.996 106.5 752.996 106.5C752.996 106.5 752.996 106.5 752.995 106.5C752.994 106.5 752.992 106.5 752.989 106.5C752.983 106.5 752.973 106.5 752.96 106.5C752.934 106.5 752.893 106.5 752.838 106.499C752.729 106.497 752.565 106.494 752.35 106.488C751.919 106.474 751.285 106.446 750.481 106.387C748.873 106.269 746.587 106.029 743.892 105.541C738.494 104.562 731.498 102.594 725.02 98.6461L723.98 100.354ZM753 108.5C760.665 108.5 768.04 106.459 773.474 104.437C776.196 103.424 778.444 102.411 780.014 101.65C780.8 101.269 781.416 100.951 781.838 100.727C782.049 100.615 782.211 100.527 782.322 100.465C782.378 100.435 782.42 100.411 782.449 100.395C782.464 100.387 782.475 100.38 782.483 100.376C782.487 100.374 782.49 100.372 782.492 100.371C782.493 100.37 782.494 100.369 782.495 100.369C782.495 100.369 782.495 100.369 782.496 100.369C782.496 100.368 782.496 100.368 782 99.5C781.504 98.6318 781.504 98.6317 781.504 98.6316C781.504 98.6316 781.504 98.6316 781.504 98.6317C781.504 98.6318 781.503 98.632 781.503 98.6323C781.502 98.633 781.5 98.6341 781.497 98.6358C781.491 98.639 781.482 98.6441 781.47 98.6511C781.445 98.665 781.407 98.6862 781.356 98.7143C781.254 98.7704 781.101 98.8537 780.9 98.9605C780.498 99.174 779.903 99.4809 779.142 99.8502C777.618 100.589 775.429 101.576 772.776 102.563C767.46 104.541 760.335 106.5 753 106.5V108.5ZM782 99.5C782.662 98.7502 782.661 98.7497 782.661 98.7493C782.66 98.7491 782.66 98.7486 782.659 98.7483C782.659 98.7475 782.658 98.7467 782.657 98.7457C782.654 98.7438 782.652 98.7414 782.648 98.7385C782.642 98.7329 782.633 98.7254 782.622 98.7163C782.601 98.698 782.571 98.6728 782.532 98.6413C782.455 98.5781 782.343 98.4894 782.196 98.3788C781.902 98.1575 781.467 97.8487 780.884 97.4818C779.718 96.7479 777.961 95.7825 775.559 94.8215C770.751 92.8985 763.375 91 753 91V93C763.125 93 770.249 94.8515 774.816 96.6785C777.101 97.5925 778.751 98.5021 779.819 99.1745C780.353 99.5107 780.742 99.7878 780.993 99.9767C781.119 100.071 781.21 100.144 781.267 100.19C781.296 100.214 781.316 100.231 781.328 100.241C781.334 100.246 781.337 100.249 781.339 100.251C781.34 100.251 781.34 100.252 781.34 100.252C781.34 100.252 781.34 100.251 781.34 100.251C781.34 100.251 781.339 100.251 781.339 100.251C781.339 100.25 781.338 100.25 782 99.5ZM753 92C753.026 91.0003 753.025 91.0003 753.025 91.0003C753.025 91.0003 753.024 91.0003 753.024 91.0003C753.023 91.0003 753.022 91.0002 753.021 91.0002C753.018 91.0002 753.015 91.0001 753.011 91C753.002 90.9998 752.99 90.9996 752.975 90.9993C752.944 90.9988 752.899 90.9982 752.84 90.9977C752.724 90.9969 752.554 90.9967 752.335 90.9993C751.896 91.0046 751.257 91.0211 750.45 91.0659C748.836 91.1554 746.543 91.358 743.81 91.81C738.349 92.7132 731.103 94.6172 724.008 98.6295L724.992 100.37C731.824 96.5071 738.828 94.6611 744.136 93.7832C746.787 93.3447 749.007 93.149 750.561 93.0628C751.337 93.0198 751.946 93.0041 752.359 92.9992C752.565 92.9967 752.722 92.9969 752.825 92.9977C752.877 92.9981 752.916 92.9986 752.941 92.999C752.953 92.9992 752.963 92.9994 752.968 92.9995C752.971 92.9996 752.973 92.9996 752.974 92.9997C752.974 92.9997 752.975 92.9997 752.975 92.9997C752.975 92.9997 752.975 92.9997 752.975 92.9997C752.974 92.9997 752.974 92.9997 753 92Z" fill="#0069FF"/>
<path d="M945 64L945.528 63.1506L944.131 64.4947L945 64ZM1050 78.725L1050.5 79.5924L1051.71 78.8996L1050.66 77.9764L1050 78.725ZM945 95L944.105 94.5541L945.583 95.8127L945 95ZM1005.22 91.125V90.125L1005.22 90.125L1005.22 91.125ZM1005.22 67.1L1005.19 68.0997L1005.21 68.1H1005.22V67.1ZM973 84.5661L972.632 85.4959L973 84.5661ZM986.5 69.2486L986.288 68.2712L986.5 69.2486ZM1013.95 67.4092L1014.02 66.4118L1013.95 67.4092ZM1040.23 73.2171L1040.61 72.2941L1040.23 73.2171ZM945 64C944.472 64.8494 944.472 64.8494 944.472 64.8494C944.472 64.8494 944.472 64.8495 944.473 64.8496C944.473 64.8498 944.474 64.8502 944.474 64.8508C944.476 64.8519 944.479 64.8535 944.483 64.8558C944.49 64.8604 944.501 64.8673 944.516 64.8766C944.546 64.8952 944.59 64.9232 944.648 64.96C944.765 65.0336 944.937 65.1427 945.156 65.2835C945.595 65.5652 946.223 65.9734 946.977 66.4779C948.486 67.488 950.495 68.88 952.499 70.4131C954.51 71.9507 956.488 73.6091 957.955 75.1516C958.689 75.9236 959.272 76.6422 959.665 77.2813C960.069 77.9375 960.213 78.4141 960.213 78.725H962.213C962.213 77.8734 961.851 77.018 961.368 76.2332C960.875 75.4312 960.191 74.5999 959.405 73.7734C957.831 72.1191 955.757 70.3868 953.714 68.8244C951.665 67.2575 949.62 65.8401 948.089 64.8158C947.323 64.3032 946.685 63.888 946.237 63.6004C946.013 63.4567 945.837 63.3448 945.716 63.2686C945.655 63.2304 945.609 63.2012 945.577 63.1814C945.561 63.1715 945.549 63.164 945.541 63.1588C945.537 63.1562 945.534 63.1543 945.531 63.1529C945.53 63.1522 945.529 63.1517 945.529 63.1513C945.529 63.1511 945.528 63.1509 945.528 63.1509C945.528 63.1507 945.528 63.1506 945 64ZM960.213 78.725C960.213 79.0434 960.063 79.5488 959.652 80.2569C959.253 80.9441 958.664 81.7263 957.926 82.5726C956.452 84.2635 954.467 86.1166 952.454 87.8482C950.447 89.5754 948.436 91.1613 946.926 92.3166C946.171 92.8939 945.542 93.3626 945.103 93.6866C944.883 93.8486 944.711 93.9743 944.594 94.0593C944.536 94.1018 944.491 94.1341 944.461 94.1556C944.446 94.1664 944.435 94.1744 944.428 94.1797C944.424 94.1824 944.421 94.1844 944.42 94.1856C944.419 94.1863 944.418 94.1867 944.418 94.187C944.418 94.1871 944.417 94.1872 944.417 94.1873C944.417 94.1873 944.417 94.1873 945 95C945.583 95.8127 945.583 95.8126 945.583 95.8124C945.583 95.8123 945.583 95.8122 945.584 95.8119C945.584 95.8115 945.585 95.8109 945.586 95.8101C945.588 95.8086 945.592 95.8063 945.596 95.8034C945.604 95.7975 945.616 95.7888 945.632 95.7774C945.663 95.7547 945.71 95.7211 945.77 95.6773C945.89 95.5897 946.067 95.4612 946.29 95.2962C946.738 94.9663 947.376 94.4905 948.141 93.9053C949.67 92.7356 951.713 91.1246 953.759 89.3643C955.8 87.6084 957.868 85.6834 959.434 83.8868C960.216 82.9893 960.894 82.1004 961.381 81.2618C961.856 80.4441 962.213 79.5691 962.213 78.725H960.213ZM945 95C945.895 95.4459 945.895 95.4458 945.895 95.4456C945.895 95.4455 945.895 95.4453 945.895 95.4451C945.896 95.4446 945.896 95.444 945.896 95.4432C945.897 95.4415 945.898 95.4391 945.9 95.436C945.903 95.4297 945.908 95.4205 945.914 95.4084C945.926 95.3842 945.943 95.3485 945.966 95.302C946.012 95.2089 946.079 95.0724 946.164 94.8976C946.335 94.5481 946.578 94.0452 946.869 93.4299C947.451 92.1999 948.229 90.5175 949.007 88.7113C949.784 86.9077 950.567 84.9671 951.158 83.2239C951.736 81.5217 952.176 79.8775 952.176 78.725H950.176C950.176 79.51 949.845 80.8689 949.264 82.5816C948.697 84.2532 947.937 86.1392 947.17 87.92C946.404 89.6981 945.637 91.3579 945.061 92.574C944.774 93.1818 944.534 93.6779 944.366 94.0216C944.283 94.1935 944.217 94.3272 944.172 94.4176C944.15 94.4629 944.133 94.4973 944.122 94.5203C944.116 94.5317 944.112 94.5404 944.109 94.546C944.108 94.5489 944.106 94.551 944.106 94.5523C944.105 94.553 944.105 94.5535 944.105 94.5538C944.105 94.5539 944.105 94.554 944.105 94.5541C944.105 94.5542 944.105 94.5541 945 95ZM952.176 78.725C952.176 77.5611 951.73 76.0085 951.149 74.4419C950.555 72.838 949.767 71.0867 948.989 69.4744C948.209 67.8593 947.429 66.3686 946.846 65.2826C946.554 64.7392 946.311 64.2962 946.14 63.9884C946.054 63.8346 945.987 63.7145 945.941 63.6325C945.918 63.5915 945.9 63.5601 945.888 63.5387C945.882 63.528 945.877 63.5198 945.874 63.5142C945.873 63.5114 945.871 63.5093 945.87 63.5078C945.87 63.507 945.87 63.5065 945.869 63.506C945.869 63.5058 945.869 63.5056 945.869 63.5055C945.869 63.5054 945.869 63.5053 945 64C944.131 64.4947 944.131 64.4947 944.131 64.4947C944.131 64.4948 944.131 64.4948 944.131 64.495C944.131 64.4952 944.131 64.4956 944.132 64.4962C944.132 64.4973 944.133 64.4991 944.135 64.5015C944.138 64.5064 944.142 64.5139 944.147 64.5238C944.159 64.5437 944.176 64.5737 944.198 64.6131C944.242 64.692 944.308 64.8087 944.391 64.9591C944.558 65.2599 944.797 65.6948 945.084 66.2292C945.659 67.2986 946.424 68.7626 947.188 70.3443C947.953 71.9289 948.71 73.6167 949.274 75.137C949.851 76.6946 950.176 77.9514 950.176 78.725H952.176ZM972.647 72.2816C968.738 73.7587 964.713 75.5885 960.72 77.8553L961.707 79.5947C965.601 77.3843 969.531 75.5972 973.353 74.1525L972.647 72.2816ZM960.691 79.578C964.624 81.9837 968.666 83.9265 972.632 85.4959L973.368 83.6362C969.494 82.1031 965.557 80.2098 961.735 77.872L960.691 79.578ZM972 73.2171V84.5661H974V73.2171H972ZM986.288 68.2712C982.096 69.1787 977.458 70.4634 972.647 72.2816L973.353 74.1525C978.06 72.374 982.602 71.1156 986.712 70.226L986.288 68.2712ZM972.632 85.4959C977.392 87.3796 982.047 88.7271 986.278 89.6914L986.722 87.7414C982.574 86.7959 978.018 85.4765 973.368 83.6362L972.632 85.4959ZM985.5 69.2486V88.7164H987.5V69.2486H985.5ZM1005.22 67.1C1005.25 66.1003 1005.25 66.1003 1005.25 66.1003C1005.25 66.1003 1005.25 66.1003 1005.25 66.1003C1005.25 66.1003 1005.25 66.1003 1005.25 66.1003C1005.24 66.1003 1005.24 66.1003 1005.24 66.1003C1005.24 66.1002 1005.24 66.1002 1005.24 66.1001C1005.23 66.0999 1005.22 66.0998 1005.21 66.0996C1005.19 66.0991 1005.16 66.0986 1005.12 66.098C1005.04 66.0969 1004.92 66.0958 1004.76 66.0956C1004.45 66.0953 1003.99 66.0989 1003.4 66.1144C1002.23 66.1453 1000.53 66.2237 998.411 66.4132L998.589 68.4052C1000.66 68.2199 1002.32 68.1436 1003.46 68.1137C1004.02 68.0987 1004.46 68.0953 1004.76 68.0956C1004.91 68.0957 1005.02 68.0968 1005.09 68.0978C1005.13 68.0983 1005.15 68.0988 1005.17 68.0992C1005.18 68.0993 1005.19 68.0995 1005.19 68.0996C1005.19 68.0996 1005.19 68.0996 1005.19 68.0997C1005.19 68.0997 1005.19 68.0997 1005.19 68.0997C1005.2 68.0997 1005.2 68.0997 1005.19 68.0997C1005.19 68.0997 1005.19 68.0997 1005.19 68.0997C1005.19 68.0997 1005.19 68.0997 1005.22 67.1ZM998.411 66.4132C995.197 66.7011 991.026 67.2457 986.288 68.2712L986.712 70.226C991.356 69.2206 995.445 68.687 998.589 68.4052L998.411 66.4132ZM986.278 89.6914C990.981 90.7635 995.166 91.3631 998.397 91.6986L998.603 89.7093C995.438 89.3806 991.334 88.7926 986.722 87.7414L986.278 89.6914ZM998.397 91.6986C1000.5 91.9169 1002.2 92.0235 1003.38 92.0756C1003.97 92.1016 1004.42 92.114 1004.74 92.1198C1004.89 92.1227 1005.01 92.124 1005.1 92.1246C1005.14 92.1249 1005.17 92.125 1005.19 92.125C1005.2 92.125 1005.21 92.125 1005.21 92.125C1005.22 92.125 1005.22 92.125 1005.22 92.125C1005.22 92.125 1005.22 92.125 1005.22 92.125C1005.22 92.125 1005.22 92.125 1005.22 92.125C1005.22 92.125 1005.22 92.125 1005.22 92.125C1005.22 92.125 1005.22 92.125 1005.22 91.125C1005.22 90.125 1005.22 90.125 1005.22 90.125C1005.22 90.125 1005.22 90.125 1005.22 90.125C1005.22 90.125 1005.22 90.125 1005.22 90.125C1005.22 90.125 1005.22 90.125 1005.22 90.125C1005.21 90.125 1005.21 90.125 1005.21 90.125C1005.21 90.125 1005.2 90.125 1005.19 90.125C1005.17 90.125 1005.15 90.1249 1005.11 90.1247C1005.04 90.1241 1004.92 90.1229 1004.77 90.1202C1004.48 90.1146 1004.04 90.1027 1003.47 90.0775C1002.32 90.0271 1000.66 89.9231 998.603 89.7093L998.397 91.6986ZM997.5 67.4092V90.7039H999.5V67.4092H997.5ZM1014.02 66.4118C1011.26 66.2111 1008.33 66.1 1005.22 66.1V68.1C1008.28 68.1 1011.16 68.2094 1013.87 68.4066L1014.02 66.4118ZM1005.22 92.125C1008.21 92.125 1011.18 91.9212 1014.07 91.5664L1013.82 89.5813C1011 89.9273 1008.12 90.125 1005.22 90.125V92.125ZM1012.95 67.4092V90.5738H1014.95V67.4092H1012.95ZM1014.07 91.5664C1018.89 90.9742 1023.53 89.9606 1027.77 88.7681L1027.23 86.8426C1023.06 88.013 1018.53 89.0036 1013.82 89.5813L1014.07 91.5664ZM1027.43 68.2703C1023.5 67.4399 1019.04 66.7773 1014.02 66.4118L1013.87 68.4066C1018.81 68.7655 1023.18 69.4155 1027.01 70.2269L1027.43 68.2703ZM1028.5 87.7902L1028.22 69.2335L1026.22 69.2637L1026.5 87.8205L1028.5 87.7902ZM1050 78.725C1050.66 77.9764 1050.66 77.9762 1050.66 77.976C1050.66 77.9759 1050.66 77.9757 1050.66 77.9755C1050.66 77.9752 1050.66 77.9748 1050.66 77.9744C1050.66 77.9736 1050.66 77.9726 1050.66 77.9714C1050.65 77.9691 1050.65 77.9662 1050.65 77.9626C1050.64 77.9554 1050.63 77.9456 1050.61 77.9334C1050.58 77.9089 1050.54 77.8745 1050.49 77.8307C1050.38 77.7433 1050.23 77.6188 1050.02 77.4621C1049.61 77.1489 1049 76.7077 1048.17 76.1793C1046.52 75.1226 1044.03 73.7181 1040.61 72.2941L1039.84 74.1401C1043.14 75.5173 1045.54 76.8668 1047.09 77.8637C1047.87 78.3622 1048.44 78.7726 1048.81 79.0545C1049 79.1954 1049.13 79.3042 1049.22 79.3757C1049.26 79.4115 1049.3 79.4379 1049.31 79.4545C1049.32 79.4627 1049.33 79.4685 1049.33 79.4717C1049.34 79.4733 1049.34 79.4743 1049.34 79.4746C1049.34 79.4748 1049.34 79.4748 1049.34 79.4746C1049.34 79.4745 1049.34 79.4744 1049.34 79.4742C1049.34 79.4741 1049.34 79.474 1049.34 79.4739C1049.34 79.4738 1049.34 79.4736 1050 78.725ZM1040.61 72.2941C1037.17 70.8606 1032.8 69.4081 1027.43 68.2703L1027.01 70.2269C1032.27 71.3387 1036.52 72.7538 1039.84 74.1401L1040.61 72.2941ZM1027.77 88.7681C1032.65 87.3957 1037.03 85.7844 1040.61 84.2995L1039.84 82.4524C1036.32 83.9128 1032.02 85.4958 1027.23 86.8426L1027.77 88.7681ZM1040.61 84.2995C1043.65 83.0361 1046.12 81.8629 1047.82 81.0042C1048.68 80.5748 1049.34 80.2238 1049.8 79.9792C1050.02 79.8569 1050.2 79.7612 1050.31 79.6956C1050.37 79.6628 1050.42 79.6375 1050.45 79.6202C1050.46 79.6115 1050.48 79.6048 1050.48 79.6002C1050.49 79.5978 1050.49 79.596 1050.49 79.5947C1050.49 79.5941 1050.5 79.5936 1050.5 79.5932C1050.5 79.593 1050.5 79.5928 1050.5 79.5927C1050.5 79.5926 1050.5 79.5926 1050.5 79.5925C1050.5 79.5925 1050.5 79.5924 1050 78.725C1049.5 77.8576 1049.5 77.8575 1049.5 77.8575C1049.5 77.8575 1049.5 77.8575 1049.5 77.8575C1049.5 77.8575 1049.5 77.8575 1049.5 77.8576C1049.5 77.8577 1049.5 77.858 1049.5 77.8584C1049.5 77.8592 1049.5 77.8605 1049.49 77.8623C1049.49 77.8659 1049.48 77.8716 1049.46 77.8793C1049.44 77.8946 1049.4 77.9178 1049.34 77.9485C1049.23 78.01 1049.06 78.1015 1048.85 78.2194C1048.41 78.4554 1047.76 78.7973 1046.93 79.2174C1045.26 80.0577 1042.83 81.2101 1039.84 82.4524L1040.61 84.2995ZM1039.23 73.2171V83.376H1041.23V73.2171H1039.23Z" fill="#0069FF"/>
<path d="M854 1L854.519 0.145212L853.136 1.50342L854 1ZM906 8.125L906.489 8.99734L907.731 8.30094L906.654 7.36883L906 8.125ZM854 16L853.109 15.5458L854.574 16.819L854 16ZM883.824 14.125V13.125L883.819 13.125L883.824 14.125ZM883.824 2.5L883.798 3.49968L883.811 3.5H883.824V2.5ZM867.867 10.9513L867.506 11.884L867.867 10.9513ZM874.552 3.53965L874.345 2.56129L874.552 3.53965ZM874.552 12.9596L874.335 13.9356L874.552 12.9596ZM894.718 3.53965L894.92 2.56037L894.718 3.53965ZM901.159 5.45988L901.536 4.53377L901.159 5.45988ZM854 1C853.481 1.85479 853.481 1.85475 853.481 1.85474C853.481 1.85476 853.481 1.85476 853.481 1.8548C853.481 1.85488 853.481 1.85503 853.482 1.85526C853.483 1.85571 853.484 1.85645 853.485 1.85749C853.489 1.85955 853.494 1.86277 853.501 1.86713C853.515 1.87583 853.537 1.88904 853.565 1.90654C853.622 1.94153 853.706 1.99364 853.814 2.06104C854.029 2.19588 854.337 2.39168 854.707 2.63384C855.449 3.11906 856.435 3.78639 857.416 4.5198C858.404 5.25778 859.359 6.04175 860.058 6.75996C860.408 7.11984 860.67 7.43869 860.838 7.70574C860.921 7.8377 860.972 7.94245 861.001 8.02052C861.03 8.09932 861.029 8.13111 861.029 8.125H863.029C863.029 7.56713 862.79 7.05221 862.531 6.63996C862.26 6.20974 861.894 5.77859 861.491 5.36504C860.685 4.53638 859.633 3.67972 858.613 2.91769C857.587 2.15111 856.565 1.45907 855.802 0.959905C855.419 0.709887 855.1 0.507247 854.876 0.366692C854.764 0.296395 854.676 0.241571 854.615 0.204057C854.585 0.185299 854.561 0.170864 854.545 0.160981C854.537 0.156039 854.531 0.152236 854.526 0.149598C854.524 0.148279 854.522 0.147252 854.521 0.14652C854.521 0.146154 854.52 0.145862 854.52 0.145644C854.52 0.145535 854.519 0.145427 854.519 0.145372C854.519 0.145283 854.519 0.145212 854 1ZM861.029 8.125C861.029 8.12048 861.03 8.15802 860.997 8.24813C860.966 8.33648 860.911 8.45292 860.825 8.59819C860.651 8.89138 860.382 9.24239 860.029 9.63896C859.323 10.4303 858.361 11.3089 857.371 12.1408C856.387 12.9683 855.399 13.7294 854.656 14.2849C854.285 14.5622 853.976 14.7873 853.76 14.9426C853.653 15.0202 853.568 15.0804 853.511 15.1209C853.483 15.1411 853.461 15.1564 853.447 15.1665C853.44 15.1716 853.434 15.1753 853.431 15.1777C853.429 15.179 853.428 15.1798 853.427 15.1804C853.427 15.1806 853.426 15.1808 853.426 15.1809C853.426 15.181 853.426 15.181 853.426 15.181C853.426 15.181 853.426 15.181 854 16C854.574 16.819 854.574 16.8189 854.574 16.8189C854.574 16.8188 854.574 16.8187 854.574 16.8186C854.575 16.8183 854.575 16.818 854.576 16.8176C854.577 16.8167 854.579 16.8156 854.581 16.8141C854.585 16.8111 854.591 16.8067 854.599 16.8011C854.615 16.7898 854.639 16.7732 854.669 16.7517C854.73 16.7087 854.818 16.6458 854.93 16.5652C855.153 16.4041 855.472 16.1722 855.853 15.887C856.615 15.3175 857.635 14.5317 858.658 13.6717C859.676 12.8161 860.722 11.8665 861.521 10.9704C861.92 10.5232 862.279 10.0657 862.544 9.62056C862.796 9.19721 863.029 8.67515 863.029 8.125H861.029ZM854 16C854.891 16.4542 854.891 16.4541 854.891 16.454C854.891 16.4539 854.891 16.4538 854.891 16.4537C854.891 16.4534 854.891 16.4531 854.892 16.4527C854.892 16.4518 854.893 16.4505 854.894 16.4489C854.895 16.4457 854.898 16.4411 854.901 16.4351C854.907 16.4231 854.916 16.4055 854.927 16.3826C854.95 16.3369 854.984 16.2701 855.026 16.1848C855.111 16.0141 855.233 15.769 855.378 15.4693C855.668 14.8705 856.056 14.0505 856.444 13.1691C856.832 12.2903 857.226 11.3369 857.526 10.4744C857.81 9.65392 858.059 8.78171 858.059 8.125H856.059C856.059 8.40579 855.925 8.9867 855.636 9.81857C855.362 10.6084 854.992 11.5065 854.614 12.3622C854.238 13.2151 853.861 14.0123 853.578 14.5971C853.437 14.8892 853.319 15.1275 853.237 15.2923C853.195 15.3746 853.163 15.4386 853.142 15.4817C853.131 15.5032 853.122 15.5196 853.117 15.5304C853.114 15.5357 853.112 15.5398 853.111 15.5423C853.11 15.5436 853.11 15.5446 853.109 15.5452C853.109 15.5455 853.109 15.5457 853.109 15.5458C853.109 15.5458 853.109 15.5458 853.109 15.5459C853.109 15.5458 853.109 15.5458 854 16ZM858.059 8.125C858.059 7.45663 857.804 6.62594 857.516 5.86598C857.213 5.06773 856.815 4.2036 856.426 3.41621C856.035 2.6259 855.646 1.8976 855.354 1.36776C855.208 1.10245 855.087 0.885974 855.001 0.735266C854.958 0.659893 854.924 0.600913 854.901 0.56044C854.889 0.540201 854.88 0.524585 854.874 0.513855C854.871 0.50849 854.869 0.504346 854.867 0.501456C854.866 0.500011 854.865 0.49888 854.865 0.498066C854.865 0.497659 854.864 0.497331 854.864 0.497083C854.864 0.49696 854.864 0.496834 854.864 0.496772C854.864 0.496666 854.864 0.49658 854 1C853.136 1.50342 853.136 1.50337 853.136 1.50335C853.136 1.50337 853.136 1.50336 853.136 1.5034C853.136 1.50347 853.136 1.50362 853.136 1.50385C853.136 1.50431 853.137 1.50508 853.138 1.50617C853.139 1.50834 853.141 1.51175 853.143 1.51638C853.149 1.52563 853.157 1.53972 853.168 1.5584C853.189 1.59574 853.221 1.65139 853.262 1.72323C853.344 1.86696 853.461 2.07529 853.602 2.33146C853.884 2.84459 854.259 3.54597 854.633 4.30254C855.008 5.06202 855.375 5.86196 855.646 6.57542C855.931 7.32718 856.059 7.85587 856.059 8.125H858.059ZM867.52 4.52178C865.564 5.24423 863.547 6.1399 861.544 7.25049L862.514 8.99951C864.418 7.94373 866.341 7.08925 868.213 6.39798L867.52 4.52178ZM861.516 8.98336C863.492 10.1639 865.519 11.1159 867.506 11.884L868.227 10.0186C866.331 9.2855 864.407 8.38129 862.542 7.26664L861.516 8.98336ZM866.867 5.45988V10.9513H868.867V5.45988H866.867ZM874.345 2.56129C872.249 3.0046 869.929 3.63248 867.52 4.52178L868.213 6.39798C870.518 5.54693 872.744 4.94428 874.759 4.51801L874.345 2.56129ZM867.506 11.884C869.89 12.8059 872.22 13.4646 874.335 13.9356L874.77 11.9835C872.735 11.5304 870.503 10.8986 868.227 10.0186L867.506 11.884ZM873.552 3.53965V12.9596H875.552V3.53965H873.552ZM883.824 2.5C883.849 1.50032 883.849 1.50032 883.849 1.50031C883.849 1.50031 883.848 1.50031 883.848 1.50031C883.848 1.5003 883.848 1.5003 883.848 1.5003C883.847 1.50029 883.847 1.50027 883.846 1.50026C883.845 1.50024 883.844 1.5002 883.842 1.50016C883.839 1.50009 883.834 1.49999 883.828 1.49988C883.817 1.49965 883.8 1.49936 883.779 1.49908C883.736 1.49851 883.675 1.49795 883.596 1.49787C883.437 1.49772 883.207 1.49952 882.911 1.50712C882.319 1.52233 881.466 1.56078 880.408 1.65343L880.582 3.64581C881.596 3.55708 882.408 3.52072 882.962 3.50646C883.239 3.49933 883.452 3.49774 883.594 3.49787C883.665 3.49794 883.718 3.49844 883.752 3.4989C883.769 3.49913 883.782 3.49935 883.79 3.4995C883.793 3.49957 883.796 3.49963 883.798 3.49966C883.798 3.49968 883.799 3.49969 883.799 3.49969C883.799 3.4997 883.799 3.4997 883.799 3.49969C883.799 3.49969 883.799 3.49969 883.799 3.49969C883.799 3.49969 883.798 3.49969 883.798 3.49968C883.798 3.49968 883.798 3.49968 883.824 2.5ZM880.408 1.65343C878.8 1.79419 876.714 2.06032 874.345 2.56129L874.759 4.51801C877.037 4.03628 879.042 3.78068 880.582 3.64581L880.408 1.65343ZM874.335 13.9356C876.687 14.4593 878.779 14.7522 880.394 14.9161L880.596 12.9264C879.045 12.7689 877.032 12.4872 874.77 11.9835L874.335 13.9356ZM880.394 14.9161C881.446 15.0229 882.298 15.0751 882.889 15.1006C883.185 15.1134 883.416 15.1195 883.575 15.1224C883.654 15.1239 883.716 15.1245 883.758 15.1248C883.78 15.1249 883.796 15.125 883.808 15.125C883.813 15.125 883.818 15.125 883.821 15.125C883.823 15.125 883.824 15.125 883.826 15.125C883.826 15.125 883.826 15.125 883.827 15.125C883.827 15.125 883.827 15.125 883.827 15.125C883.827 15.125 883.828 15.125 883.828 15.125C883.828 15.125 883.828 15.125 883.824 14.125C883.819 13.125 883.819 13.125 883.819 13.125C883.819 13.125 883.82 13.125 883.82 13.125C883.82 13.125 883.82 13.125 883.82 13.125C883.82 13.125 883.82 13.125 883.82 13.125C883.82 13.125 883.819 13.125 883.818 13.125C883.817 13.125 883.814 13.125 883.81 13.125C883.802 13.125 883.789 13.125 883.772 13.1248C883.737 13.1246 883.683 13.1241 883.612 13.1227C883.469 13.1201 883.254 13.1145 882.975 13.1025C882.418 13.0784 881.606 13.0288 880.596 12.9264L880.394 14.9161ZM879.495 2.64962V13.9213H881.495V2.64962H879.495ZM888.215 1.65213C886.836 1.55415 885.373 1.5 883.824 1.5V3.5C885.327 3.5 886.743 3.55252 888.074 3.6471L888.215 1.65213ZM883.824 15.125C885.327 15.125 886.814 15.0249 888.263 14.8512L888.025 12.8654C886.646 13.0308 885.239 13.125 883.824 13.125V15.125ZM887.144 2.64962V13.8583H889.144V2.64962H887.144ZM888.263 14.8512C890.682 14.5612 893.001 14.0653 895.122 13.483L894.592 11.5544C892.549 12.1155 890.329 12.5893 888.025 12.8654L888.263 14.8512ZM894.92 2.56037C892.955 2.15406 890.725 1.83049 888.215 1.65213L888.074 3.6471C890.496 3.81926 892.638 4.13081 894.516 4.51893L894.92 2.56037ZM895.857 12.5032L895.718 3.52416L893.718 3.55514L893.857 12.5342L895.857 12.5032ZM906 8.125C906.654 7.36883 906.654 7.36864 906.654 7.36845C906.654 7.36838 906.654 7.36818 906.653 7.36803C906.653 7.36775 906.653 7.36744 906.652 7.36712C906.652 7.36647 906.651 7.36574 906.65 7.36493C906.648 7.36332 906.646 7.36139 906.643 7.35915C906.638 7.35467 906.631 7.34895 906.623 7.34203C906.606 7.32819 906.583 7.30956 906.555 7.28643C906.497 7.24018 906.415 7.17598 906.308 7.09632C906.093 6.937 905.778 6.71588 905.358 6.45293C904.517 5.92694 903.256 5.23406 901.536 4.53377L900.782 6.38599C902.39 7.04114 903.549 7.68083 904.297 8.14853C904.671 8.38243 904.942 8.57344 905.115 8.70205C905.202 8.76635 905.264 8.81506 905.302 8.84572C905.321 8.86106 905.334 8.87188 905.342 8.87789C905.345 8.88089 905.347 8.8827 905.348 8.88325C905.348 8.88353 905.348 8.8835 905.348 8.88316C905.348 8.88298 905.347 8.88273 905.347 8.8824C905.347 8.88224 905.347 8.88205 905.346 8.88184C905.346 8.88174 905.346 8.88157 905.346 8.88152C905.346 8.88135 905.346 8.88117 906 8.125ZM901.536 4.53377C899.806 3.82882 897.613 3.11711 894.92 2.56037L894.516 4.51893C897.087 5.05068 899.163 5.72655 900.782 6.38599L901.536 4.53377ZM895.122 13.483C897.563 12.8129 899.75 12.0265 901.535 11.3021L900.783 9.44882C899.056 10.1496 896.944 10.9088 894.592 11.5544L895.122 13.483ZM901.535 11.3021C903.055 10.6857 904.287 10.113 905.141 9.69307C905.569 9.48302 905.902 9.311 906.131 9.19056C906.245 9.13034 906.333 9.083 906.393 9.05024C906.423 9.03385 906.446 9.02111 906.462 9.01223C906.47 9.00778 906.476 9.00431 906.481 9.00182C906.483 9.00057 906.485 8.99957 906.486 8.99883C906.487 8.99845 906.487 8.99814 906.488 8.99789C906.488 8.99777 906.488 8.99766 906.488 8.99757C906.489 8.99752 906.489 8.99747 906.489 8.99744C906.489 8.99739 906.489 8.99734 906 8.125C905.511 7.25266 905.511 7.25262 905.511 7.25258C905.511 7.25257 905.511 7.25254 905.511 7.25252C905.511 7.25249 905.511 7.25248 905.511 7.25248C905.511 7.25249 905.511 7.25256 905.511 7.25269C905.511 7.25295 905.51 7.25346 905.508 7.25421C905.506 7.25572 905.501 7.25822 905.495 7.26168C905.482 7.26859 905.463 7.27933 905.436 7.2937C905.384 7.32244 905.303 7.36566 905.197 7.42169C904.985 7.53377 904.669 7.69702 904.259 7.89803C903.441 8.30018 902.252 8.85276 900.783 9.44882L901.535 11.3021ZM900.159 5.45988V10.3755H902.159V5.45988H900.159Z" fill="#0069FF"/>
<rect x="1201" y="97" width="12" height="35" rx="6" stroke="#0069FF" stroke-width="2"/>
<rect x="1166" y="184" width="12" height="25" rx="6" stroke="#0069FF" stroke-width="2"/>
<path d="M1154 159C1154 162.25 1151.16 165 1147.5 165C1143.84 165 1141 162.25 1141 159C1141 155.75 1143.84 153 1147.5 153C1151.16 153 1154 155.75 1154 159Z" stroke="#0069FF" stroke-width="2"/>
<rect x="200" y="285" width="12" height="35" rx="6" stroke="#0069FF" stroke-width="2"/>
<circle cx="227" cy="247" r="6" stroke="#0069FF" stroke-width="2"/>
</svg>
