<svg viewBox="0 0 1122 239" fill="none" xmlns="http://www.w3.org/2000/svg">
<path d="M215.997 145.078C216.04 144.528 215.629 144.046 215.078 144.003C214.528 143.96 214.046 144.371 214.003 144.922L215.997 145.078ZM201 180.5C201 182.672 201.607 185.051 202.517 187.476C203.429 189.909 204.671 192.453 205.99 194.965C208.661 200.053 211.593 204.929 213.064 208.851L214.936 208.149C213.407 204.071 210.339 198.947 207.76 194.035C206.454 191.547 205.258 189.091 204.389 186.774C203.518 184.449 203 182.328 203 180.5H201ZM213.064 208.851C214.512 212.715 215.368 218.052 215.548 223.465C215.729 228.878 215.231 234.261 214.042 238.212L215.958 238.788C217.23 234.557 217.732 228.94 217.547 223.398C217.362 217.857 216.488 212.285 214.936 208.149L213.064 208.851ZM214.003 144.922C213.227 154.825 211.052 159.619 209.168 162.445L210.832 163.555C212.948 160.381 215.2 155.238 215.997 145.078L214.003 144.922ZM209.168 162.445C208.683 163.173 207.97 164.091 207.098 165.286C206.246 166.454 205.286 167.829 204.386 169.371C202.591 172.448 201 176.252 201 180.5H203C203 176.748 204.409 173.302 206.114 170.379C206.964 168.921 207.879 167.609 208.714 166.464C209.53 165.346 210.317 164.327 210.832 163.555L209.168 162.445Z" fill="#0069FF"/>
<path d="M207.997 145.078C208.04 144.528 207.629 144.046 207.078 144.003C206.528 143.96 206.046 144.371 206.003 144.922L207.997 145.078ZM193 180.5C193 182.672 193.607 185.051 194.517 187.476C195.429 189.909 196.671 192.453 197.99 194.965C200.661 200.053 203.593 204.929 205.064 208.851L206.936 208.149C205.407 204.071 202.339 198.947 199.76 194.035C198.454 191.547 197.258 189.091 196.389 186.774C195.518 184.449 195 182.328 195 180.5H193ZM205.064 208.851C206.512 212.715 207.368 218.052 207.548 223.465C207.729 228.878 207.231 234.261 206.042 238.212L207.958 238.788C209.23 234.557 209.732 228.94 209.547 223.398C209.362 217.857 208.488 212.285 206.936 208.149L205.064 208.851ZM206.003 144.922C205.227 154.825 203.052 159.619 201.168 162.445L202.832 163.555C204.948 160.381 207.2 155.238 207.997 145.078L206.003 144.922ZM201.168 162.445C200.683 163.173 199.97 164.091 199.098 165.286C198.246 166.454 197.286 167.829 196.386 169.371C194.591 172.448 193 176.252 193 180.5H195C195 176.748 196.409 173.302 198.114 170.379C198.964 168.921 199.879 167.609 200.714 166.464C201.53 165.346 202.317 164.327 202.832 163.555L201.168 162.445Z" fill="#0069FF"/>
<path d="M198.997 145.078C199.04 144.528 198.629 144.046 198.078 144.003C197.528 143.96 197.046 144.371 197.003 144.922L198.997 145.078ZM184 180.5C184 182.672 184.607 185.051 185.517 187.476C186.429 189.909 187.671 192.453 188.99 194.965C191.661 200.053 194.593 204.929 196.064 208.851L197.936 208.149C196.407 204.071 193.339 198.947 190.76 194.035C189.454 191.547 188.258 189.091 187.389 186.774C186.518 184.449 186 182.328 186 180.5H184ZM196.064 208.851C197.512 212.715 198.368 218.052 198.548 223.465C198.729 228.878 198.231 234.261 197.042 238.212L198.958 238.788C200.23 234.557 200.732 228.94 200.547 223.398C200.362 217.857 199.488 212.285 197.936 208.149L196.064 208.851ZM197.003 144.922C196.227 154.825 194.052 159.619 192.168 162.445L193.832 163.555C195.948 160.381 198.2 155.238 198.997 145.078L197.003 144.922ZM192.168 162.445C191.683 163.173 190.97 164.091 190.098 165.286C189.246 166.454 188.286 167.829 187.386 169.371C185.591 172.448 184 176.252 184 180.5H186C186 176.748 187.409 173.302 189.114 170.379C189.964 168.921 190.879 167.609 191.714 166.464C192.53 165.346 193.317 164.327 193.832 163.555L192.168 162.445Z" fill="#0069FF"/>
<path d="M190.997 145.078C191.04 144.528 190.629 144.046 190.078 144.003C189.528 143.96 189.046 144.371 189.003 144.922L190.997 145.078ZM176 180.5C176 182.672 176.607 185.051 177.517 187.476C178.429 189.909 179.671 192.453 180.99 194.965C183.661 200.053 186.593 204.929 188.064 208.851L189.936 208.149C188.407 204.071 185.339 198.947 182.76 194.035C181.454 191.547 180.258 189.091 179.389 186.774C178.518 184.449 178 182.328 178 180.5H176ZM188.064 208.851C189.512 212.715 190.368 218.052 190.548 223.465C190.729 228.878 190.231 234.261 189.042 238.212L190.958 238.788C192.23 234.557 192.732 228.94 192.547 223.398C192.362 217.857 191.488 212.285 189.936 208.149L188.064 208.851ZM189.003 144.922C188.227 154.825 186.052 159.619 184.168 162.445L185.832 163.555C187.948 160.381 190.2 155.238 190.997 145.078L189.003 144.922ZM184.168 162.445C183.683 163.173 182.97 164.091 182.098 165.286C181.246 166.454 180.286 167.829 179.386 169.371C177.591 172.448 176 176.252 176 180.5H178C178 176.748 179.409 173.302 181.114 170.379C181.964 168.921 182.879 167.609 183.714 166.464C184.53 165.346 185.317 164.327 185.832 163.555L184.168 162.445Z" fill="#0069FF"/>
<path d="M182.997 145.078C183.04 144.528 182.629 144.046 182.078 144.003C181.528 143.96 181.046 144.371 181.003 144.922L182.997 145.078ZM168 180.5C168 182.672 168.607 185.051 169.517 187.476C170.429 189.909 171.671 192.453 172.99 194.965C175.661 200.053 178.593 204.929 180.064 208.851L181.936 208.149C180.407 204.071 177.339 198.947 174.76 194.035C173.454 191.547 172.258 189.091 171.389 186.774C170.518 184.449 170 182.328 170 180.5H168ZM180.064 208.851C181.512 212.715 182.368 218.052 182.548 223.465C182.729 228.878 182.231 234.261 181.042 238.212L182.958 238.788C184.23 234.557 184.732 228.94 184.547 223.398C184.362 217.857 183.488 212.285 181.936 208.149L180.064 208.851ZM181.003 144.922C180.227 154.825 178.052 159.619 176.168 162.445L177.832 163.555C179.948 160.381 182.2 155.238 182.997 145.078L181.003 144.922ZM176.168 162.445C175.683 163.173 174.97 164.091 174.098 165.286C173.246 166.454 172.286 167.829 171.386 169.371C169.591 172.448 168 176.252 168 180.5H170C170 176.748 171.409 173.302 173.114 170.379C173.964 168.921 174.879 167.609 175.714 166.464C176.53 165.346 177.317 164.327 177.832 163.555L176.168 162.445Z" fill="#0069FF"/>
<path d="M116.577 185.078C116.62 184.528 116.209 184.046 115.658 184.003C115.108 183.96 114.626 184.371 114.583 184.922L116.577 185.078ZM108.949 237.288L108.071 237.766L108.084 237.79L108.098 237.814L108.949 237.288ZM114.583 184.922C113.807 194.825 111.632 199.619 109.748 202.445L111.412 203.555C113.528 200.381 115.78 195.238 116.577 185.078L114.583 184.922ZM109.748 202.445C109.263 203.173 108.55 204.091 107.678 205.286C106.826 206.454 105.866 207.829 104.966 209.371C103.171 212.448 101.58 216.252 101.58 220.5H103.58C103.58 216.748 104.989 213.302 106.694 210.379C107.544 208.921 108.459 207.609 109.294 206.464C110.11 205.346 110.897 204.327 111.412 203.555L109.748 202.445ZM101.58 220.5C101.58 223.071 102.432 225.941 103.64 228.849C104.854 231.769 106.47 234.821 108.071 237.766L109.828 236.811C108.226 233.865 106.657 230.895 105.487 228.081C104.312 225.253 103.58 222.674 103.58 220.5H101.58ZM108.098 237.814C108.047 237.73 108.041 237.677 108.048 237.709C108.053 237.732 108.06 237.78 108.067 237.862C108.079 238.03 108.08 238.239 108.08 238.5H110.08C110.08 238.261 110.081 237.97 110.061 237.71C110.045 237.502 110.007 237.097 109.8 236.763L108.098 237.814Z" fill="#0069FF"/>
<path d="M123.577 185.078C123.62 184.528 123.209 184.046 122.658 184.003C122.108 183.96 121.626 184.371 121.583 184.922L123.577 185.078ZM115.949 237.288L115.071 237.766L115.084 237.79L115.098 237.814L115.949 237.288ZM121.583 184.922C120.807 194.825 118.632 199.619 116.748 202.445L118.412 203.555C120.528 200.381 122.78 195.238 123.577 185.078L121.583 184.922ZM116.748 202.445C116.263 203.173 115.55 204.091 114.678 205.286C113.826 206.454 112.866 207.829 111.966 209.371C110.171 212.448 108.58 216.252 108.58 220.5H110.58C110.58 216.748 111.989 213.302 113.694 210.379C114.544 208.921 115.459 207.609 116.294 206.464C117.11 205.346 117.897 204.327 118.412 203.555L116.748 202.445ZM108.58 220.5C108.58 223.071 109.432 225.941 110.64 228.849C111.854 231.769 113.47 234.821 115.071 237.766L116.828 236.811C115.226 233.865 113.657 230.895 112.487 228.081C111.312 225.253 110.58 222.674 110.58 220.5H108.58ZM115.098 237.814C115.047 237.73 115.041 237.677 115.048 237.709C115.053 237.732 115.06 237.78 115.067 237.862C115.079 238.03 115.08 238.239 115.08 238.5H117.08C117.08 238.261 117.081 237.97 117.061 237.71C117.045 237.502 117.007 237.097 116.8 236.763L115.098 237.814Z" fill="#0069FF"/>
<path d="M130.577 185.078C130.62 184.528 130.209 184.046 129.658 184.003C129.108 183.96 128.626 184.371 128.583 184.922L130.577 185.078ZM122.949 237.288L122.071 237.766L122.084 237.79L122.098 237.814L122.949 237.288ZM128.583 184.922C127.807 194.825 125.632 199.619 123.748 202.445L125.412 203.555C127.528 200.381 129.78 195.238 130.577 185.078L128.583 184.922ZM123.748 202.445C123.263 203.173 122.55 204.091 121.678 205.286C120.826 206.454 119.866 207.829 118.966 209.371C117.171 212.448 115.58 216.252 115.58 220.5H117.58C117.58 216.748 118.989 213.302 120.694 210.379C121.544 208.921 122.459 207.609 123.294 206.464C124.11 205.346 124.897 204.327 125.412 203.555L123.748 202.445ZM115.58 220.5C115.58 223.071 116.432 225.941 117.64 228.849C118.854 231.769 120.47 234.821 122.071 237.766L123.828 236.811C122.226 233.865 120.657 230.895 119.487 228.081C118.312 225.253 117.58 222.674 117.58 220.5H115.58ZM122.098 237.814C122.047 237.73 122.041 237.677 122.048 237.709C122.053 237.732 122.06 237.78 122.067 237.862C122.079 238.03 122.08 238.239 122.08 238.5H124.08C124.08 238.261 124.081 237.97 124.061 237.71C124.045 237.502 124.007 237.097 123.8 236.763L122.098 237.814Z" fill="#0069FF"/>
<path d="M136.577 185.078C136.62 184.528 136.209 184.046 135.658 184.003C135.108 183.96 134.626 184.371 134.583 184.922L136.577 185.078ZM128.949 237.288L128.071 237.766L128.084 237.79L128.098 237.814L128.949 237.288ZM134.583 184.922C133.807 194.825 131.632 199.619 129.748 202.445L131.412 203.555C133.528 200.381 135.78 195.238 136.577 185.078L134.583 184.922ZM129.748 202.445C129.263 203.173 128.55 204.091 127.678 205.286C126.826 206.454 125.866 207.829 124.966 209.371C123.171 212.448 121.58 216.252 121.58 220.5H123.58C123.58 216.748 124.989 213.302 126.694 210.379C127.544 208.921 128.459 207.609 129.294 206.464C130.11 205.346 130.897 204.327 131.412 203.555L129.748 202.445ZM121.58 220.5C121.58 223.071 122.432 225.941 123.64 228.849C124.854 231.769 126.47 234.821 128.071 237.766L129.828 236.811C128.226 233.865 126.657 230.895 125.487 228.081C124.312 225.253 123.58 222.674 123.58 220.5H121.58ZM128.098 237.814C128.047 237.73 128.041 237.677 128.048 237.709C128.053 237.732 128.06 237.78 128.067 237.862C128.079 238.03 128.08 238.239 128.08 238.5H130.08C130.08 238.261 130.081 237.97 130.061 237.71C130.045 237.502 130.007 237.097 129.8 236.763L128.098 237.814Z" fill="#0069FF"/>
<path d="M402.672 131.922C402.37 132.384 402.499 133.004 402.961 133.306C403.424 133.608 404.043 133.479 404.346 133.017L402.672 131.922ZM404.365 103.157C404.65 102.685 404.498 102.07 404.026 101.784C403.553 101.499 402.938 101.651 402.653 102.124L404.365 103.157ZM403.867 121.243C403.867 120.855 403.982 120.363 404.204 119.749C404.424 119.139 404.716 118.499 405.025 117.798C405.325 117.118 405.639 116.385 405.855 115.667C406.069 114.955 406.212 114.172 406.102 113.404L404.123 113.687C404.173 114.042 404.116 114.502 403.939 115.093C403.764 115.678 403.497 116.308 403.195 116.991C402.903 117.653 402.573 118.376 402.323 119.069C402.074 119.758 401.867 120.509 401.867 121.243H403.867ZM406.102 113.404C405.916 112.097 405.443 111.166 404.976 110.358C404.499 109.536 404.095 108.935 403.816 108.098L401.919 108.73C402.281 109.817 402.839 110.659 403.245 111.361C403.659 112.077 403.988 112.749 404.123 113.687L406.102 113.404ZM403.816 108.098C403.267 106.451 403.468 104.643 404.365 103.157L402.653 102.124C401.453 104.111 401.185 106.528 401.919 108.73L403.816 108.098ZM404.346 133.017C405.015 131.993 405.474 131 405.712 129.93C405.95 128.859 405.955 127.765 405.782 126.555L403.802 126.837C403.95 127.872 403.933 128.715 403.76 129.496C403.586 130.276 403.244 131.047 402.672 131.922L404.346 133.017ZM405.782 126.555C405.591 125.219 405.007 124.254 404.585 123.488C404.158 122.711 403.867 122.098 403.867 121.243H401.867C401.867 122.634 402.378 123.625 402.833 124.452C403.294 125.289 403.672 125.928 403.802 126.837L405.782 126.555Z" fill="#0069FF"/>
<path d="M410.37 131.922C410.067 132.384 410.197 133.004 410.659 133.306C411.121 133.608 411.741 133.479 412.043 133.017L410.37 131.922ZM412.063 103.157C412.348 102.685 412.196 102.07 411.723 101.784C411.25 101.499 410.636 101.651 410.35 102.124L412.063 103.157ZM411.565 121.243C411.565 120.855 411.679 120.363 411.901 119.749C412.122 119.139 412.414 118.499 412.723 117.798C413.023 117.118 413.337 116.385 413.552 115.667C413.766 114.955 413.91 114.172 413.8 113.404L411.82 113.687C411.871 114.042 411.814 114.502 411.637 115.093C411.461 115.678 411.194 116.308 410.893 116.991C410.601 117.653 410.271 118.376 410.02 119.069C409.771 119.758 409.565 120.509 409.565 121.243H411.565ZM413.8 113.404C413.613 112.097 413.141 111.166 412.673 110.358C412.197 109.536 411.793 108.935 411.514 108.098L409.616 108.73C409.979 109.817 410.537 110.659 410.942 111.361C411.357 112.077 411.686 112.749 411.82 113.687L413.8 113.404ZM411.514 108.098C410.965 106.451 411.166 104.643 412.063 103.157L410.35 102.124C409.151 104.111 408.882 106.528 409.616 108.73L411.514 108.098ZM412.043 133.017C412.713 131.993 413.172 131 413.41 129.93C413.648 128.859 413.652 127.765 413.479 126.555L411.499 126.837C411.647 127.872 411.631 128.715 411.458 129.496C411.284 130.276 410.941 131.047 410.37 131.922L412.043 133.017ZM413.479 126.555C413.289 125.219 412.704 124.254 412.283 123.488C411.856 122.711 411.565 122.098 411.565 121.243H409.565C409.565 122.634 410.076 123.625 410.531 124.452C410.991 125.289 411.37 125.928 411.499 126.837L413.479 126.555Z" fill="#0069FF"/>
<path d="M391 97.8295L390.001 97.7796L389.949 98.8295H391V97.8295ZM416.98 97.8295V98.8295H418.058L417.977 97.7547L416.98 97.8295ZM394.974 131.922C394.672 132.384 394.801 133.004 395.264 133.306C395.726 133.608 396.346 133.479 396.648 133.017L394.974 131.922ZM396.667 103.157C396.953 102.684 396.801 102.07 396.328 101.784C395.855 101.499 395.24 101.651 394.955 102.124L396.667 103.157ZM391 98.8295H416.98V96.8295H391V98.8295ZM416.98 97.8295C417.977 97.7547 417.977 97.7542 417.977 97.7536C417.977 97.7534 417.977 97.7528 417.977 97.7523C417.977 97.7513 417.977 97.7501 417.976 97.7487C417.976 97.7459 417.976 97.7423 417.976 97.7379C417.975 97.7292 417.974 97.7175 417.973 97.7027C417.97 97.6733 417.966 97.6319 417.96 97.5793C417.949 97.4743 417.931 97.3247 417.905 97.1368C417.851 96.7613 417.761 96.2312 417.613 95.5977C417.318 94.3348 416.79 92.6389 415.851 90.9328C413.954 87.4825 410.368 84 403.829 84V86C409.479 86 412.468 88.9322 414.099 91.8967C414.925 93.398 415.398 94.9095 415.665 96.0521C415.798 96.6214 415.878 97.0936 415.925 97.4197C415.948 97.5825 415.963 97.7085 415.972 97.7915C415.976 97.8329 415.979 97.8636 415.981 97.8826C415.982 97.8922 415.982 97.8988 415.982 97.9025C415.983 97.9043 415.983 97.9053 415.983 97.9057C415.983 97.9058 415.983 97.9058 415.983 97.9055C415.983 97.9054 415.983 97.9051 415.983 97.9051C415.983 97.9047 415.983 97.9043 416.98 97.8295ZM403.829 84C397.286 84 393.776 87.4884 391.959 90.9499C391.062 92.6591 390.575 94.3573 390.312 95.6209C390.18 96.2549 390.103 96.7854 390.058 97.1612C390.036 97.3492 390.022 97.4989 390.013 97.604C390.009 97.6566 390.006 97.698 390.004 97.7275C390.003 97.7423 390.003 97.754 390.002 97.7628C390.002 97.7671 390.002 97.7707 390.002 97.7735C390.001 97.7749 390.001 97.7761 390.001 97.7771C390.001 97.7776 390.001 97.7782 390.001 97.7785C390.001 97.779 390.001 97.7796 391 97.8295C391.999 97.8794 391.999 97.8798 391.999 97.8802C391.999 97.8803 391.999 97.8806 391.999 97.8807C391.999 97.8809 391.999 97.881 391.999 97.8808C391.999 97.8805 391.999 97.8795 391.999 97.8776C391.999 97.874 391.999 97.8674 392 97.8579C392.001 97.8388 392.003 97.8082 392.007 97.7668C392.014 97.684 392.025 97.5581 392.044 97.3953C392.083 97.0694 392.151 96.5976 392.27 96.0288C392.508 94.8869 392.943 93.3777 393.73 91.8796C395.28 88.9263 398.185 86 403.829 86V84ZM396.17 121.243C396.17 120.855 396.284 120.363 396.506 119.749C396.727 119.139 397.018 118.499 397.327 117.798C397.627 117.118 397.942 116.385 398.157 115.667C398.371 114.955 398.514 114.172 398.405 113.404L396.425 113.687C396.475 114.042 396.419 114.502 396.241 115.092C396.066 115.678 395.799 116.307 395.498 116.991C395.205 117.653 394.876 118.376 394.625 119.069C394.376 119.758 394.17 120.509 394.17 121.243H396.17ZM398.405 113.404C398.218 112.097 397.745 111.166 397.278 110.358C396.802 109.536 396.398 108.935 396.118 108.098L394.221 108.73C394.583 109.817 395.141 110.659 395.547 111.36C395.962 112.076 396.291 112.749 396.425 113.687L398.405 113.404ZM396.118 108.098C395.569 106.451 395.77 104.643 396.667 103.157L394.955 102.124C393.755 104.111 393.487 106.528 394.221 108.73L396.118 108.098ZM396.648 133.017C397.317 131.993 397.777 131 398.015 129.93C398.252 128.859 398.257 127.765 398.084 126.554L396.104 126.837C396.252 127.872 396.236 128.715 396.062 129.496C395.889 130.276 395.546 131.047 394.974 131.922L396.648 133.017ZM398.084 126.554C397.893 125.218 397.309 124.254 396.888 123.488C396.46 122.71 396.17 122.098 396.17 121.243H394.17C394.17 122.634 394.681 123.625 395.135 124.452C395.596 125.289 395.974 125.928 396.104 126.837L398.084 126.554Z" fill="#0069FF"/>
<path d="M17.08 194.5C17.08 193.948 16.6323 193.5 16.08 193.5C15.5277 193.5 15.08 193.948 15.08 194.5H17.08ZM2.07954 187.03C2.09627 186.478 1.66232 186.017 1.11029 186C0.558258 185.984 0.097187 186.418 0.0804588 186.97L2.07954 187.03ZM30.08 212.5C30.08 211.948 29.6323 211.5 29.08 211.5C28.5277 211.5 28.08 211.948 28.08 212.5H30.08ZM15.08 194.5V221H17.08V194.5H15.08ZM15.08 221V238H17.08V221H15.08ZM16.08 221C16.7232 220.234 16.7232 220.234 16.7231 220.234C16.723 220.234 16.7229 220.234 16.7228 220.234C16.7225 220.234 16.7219 220.233 16.7212 220.233C16.7198 220.231 16.7177 220.23 16.7148 220.227C16.709 220.222 16.7002 220.215 16.6886 220.205C16.6653 220.186 16.6306 220.156 16.5851 220.118C16.4941 220.041 16.3601 219.927 16.1888 219.781C15.8462 219.489 15.3544 219.067 14.7595 218.55C13.5691 217.515 11.9678 216.1 10.3214 214.578C8.67273 213.054 6.9894 211.432 5.63021 209.981C4.95035 209.255 4.36091 208.581 3.90064 207.991C3.43001 207.388 3.13485 206.923 2.99915 206.606L1.16086 207.394C1.40015 207.952 1.82374 208.581 2.32381 209.222C2.83425 209.876 3.46746 210.597 4.17041 211.348C5.57685 212.849 7.29977 214.508 8.96364 216.047C10.6297 217.587 12.2472 219.016 13.4474 220.059C14.0477 220.581 14.5443 221.007 14.8911 221.303C15.0645 221.451 15.2005 221.566 15.2934 221.645C15.3398 221.684 15.3755 221.714 15.3996 221.734C15.4117 221.745 15.4209 221.752 15.4271 221.758C15.4302 221.76 15.4326 221.762 15.4342 221.764C15.435 221.764 15.4356 221.765 15.4361 221.765C15.4363 221.765 15.4365 221.765 15.4366 221.766C15.4367 221.766 15.4368 221.766 16.08 221ZM2.99915 206.606C2.86028 206.282 2.71937 205.738 2.59299 204.973C2.46927 204.224 2.3685 203.322 2.28772 202.318C2.12622 200.311 2.04852 197.945 2.01741 195.674C1.98633 193.405 2.00186 191.243 2.02521 189.647C2.03688 188.85 2.05049 188.195 2.06117 187.739C2.06651 187.512 2.07112 187.334 2.07438 187.213C2.07602 187.153 2.07731 187.107 2.0782 187.076C2.07864 187.061 2.07898 187.049 2.07921 187.041C2.07932 187.038 2.07941 187.035 2.07946 187.033C2.07949 187.032 2.07951 187.031 2.07952 187.031C2.07953 187.031 2.07954 187.03 2.07954 187.03C2.07954 187.03 2.07954 187.03 1.08 187C0.0804588 186.97 0.0804555 186.97 0.0804502 186.97C0.0804459 186.97 0.0804389 186.97 0.0804303 186.971C0.0804133 186.971 0.0803888 186.972 0.080357 186.973C0.0802932 186.975 0.0802003 186.978 0.0800791 186.982C0.0798368 186.991 0.079482 187.003 0.0790241 187.019C0.0781085 187.051 0.0767808 187.098 0.0751175 187.159C0.0717909 187.282 0.0671214 187.462 0.0617203 187.692C0.0509187 188.153 0.0371869 188.814 0.0254196 189.618C0.00189424 191.226 -0.0138254 193.408 0.0175939 195.701C0.0489754 197.992 0.127532 200.408 0.294159 202.479C0.377442 203.514 0.483695 204.475 0.619742 205.299C0.753134 206.106 0.924718 206.843 1.16086 207.394L2.99915 206.606ZM28.08 212.5V238H30.08V212.5H28.08Z" fill="#0069FF"/>
<path d="M1084.71 53.7221C1084.28 53.3751 1083.65 53.442 1083.3 53.8716C1082.96 54.3012 1083.02 54.9308 1083.45 55.2779L1084.71 53.7221ZM1084.08 54.5C1083.45 55.2779 1083.45 55.2776 1083.45 55.2773C1083.45 55.2772 1083.45 55.277 1083.45 55.2768C1083.45 55.2766 1083.45 55.2764 1083.45 55.2763C1083.45 55.2761 1083.45 55.2763 1083.45 55.2768C1083.45 55.2777 1083.45 55.28 1083.46 55.2836C1083.47 55.2907 1083.48 55.3032 1083.5 55.3209C1083.54 55.3565 1083.61 55.4131 1083.69 55.491C1083.86 55.6469 1084.11 55.8876 1084.4 56.2139C1085 56.8668 1085.8 57.8602 1086.61 59.2009C1088.21 61.8771 1089.81 65.9468 1089.73 71.4866L1091.73 71.5134C1091.81 65.5532 1090.09 61.1229 1088.32 58.1741C1087.44 56.7023 1086.55 55.6019 1085.88 54.8642C1085.54 54.4952 1085.26 54.2164 1085.05 54.0265C1084.95 53.9316 1084.87 53.8589 1084.81 53.8082C1084.78 53.7829 1084.76 53.763 1084.74 53.7487C1084.73 53.7415 1084.73 53.7357 1084.72 53.7313C1084.72 53.7291 1084.71 53.7272 1084.71 53.7257C1084.71 53.7249 1084.71 53.7242 1084.71 53.7237C1084.71 53.7234 1084.71 53.723 1084.71 53.7228C1084.71 53.7225 1084.71 53.7221 1084.08 54.5ZM1089.73 71.4866C1089.7 74.1377 1088.81 76.6004 1087.43 79.2223C1086.03 81.8981 1084.24 84.5288 1082.36 87.7463C1078.66 94.0947 1075.07 102.036 1075.58 114.043L1077.58 113.957C1077.09 102.464 1080.5 94.9053 1084.09 88.7537C1085.86 85.7212 1087.78 82.8519 1089.2 80.1527C1090.65 77.3996 1091.69 74.6123 1091.73 71.5134L1089.73 71.4866ZM1076.08 196.542C1076.59 208.73 1079.52 215.133 1082.58 220.554C1085.62 225.924 1088.62 230.11 1089.59 238.12L1091.57 237.88C1090.54 229.39 1087.29 224.826 1084.33 219.571C1081.39 214.367 1078.57 208.27 1078.08 196.458L1076.08 196.542ZM1075.58 114.043C1076.09 126.034 1079.72 132.333 1083.19 137.67C1086.63 142.949 1089.73 147.087 1089.73 155H1091.73C1091.73 146.413 1088.27 141.801 1084.87 136.58C1081.51 131.417 1078.07 125.466 1077.58 113.957L1075.58 114.043ZM1089.73 155C1089.73 162.89 1086.28 167.002 1082.7 172.383C1080.91 175.068 1079.12 178.046 1077.84 181.897C1076.57 185.751 1075.83 190.435 1076.08 196.542L1078.08 196.458C1077.83 190.565 1078.55 186.124 1079.74 182.525C1080.93 178.923 1082.61 176.119 1084.36 173.492C1087.86 168.248 1091.73 163.61 1091.73 155H1089.73Z" fill="#0069FF"/>
<path d="M1091.71 53.7221C1091.28 53.3751 1090.65 53.442 1090.3 53.8716C1089.96 54.3012 1090.02 54.9308 1090.45 55.2779L1091.71 53.7221ZM1091.08 54.5C1090.45 55.2779 1090.45 55.2776 1090.45 55.2773C1090.45 55.2772 1090.45 55.277 1090.45 55.2768C1090.45 55.2766 1090.45 55.2764 1090.45 55.2763C1090.45 55.2761 1090.45 55.2763 1090.45 55.2768C1090.45 55.2777 1090.45 55.28 1090.46 55.2836C1090.47 55.2907 1090.48 55.3032 1090.5 55.3209C1090.54 55.3565 1090.61 55.4131 1090.69 55.491C1090.86 55.6469 1091.11 55.8876 1091.4 56.2139C1092 56.8668 1092.8 57.8602 1093.61 59.2009C1095.21 61.8771 1096.81 65.9468 1096.73 71.4866L1098.73 71.5134C1098.81 65.5532 1097.09 61.1229 1095.32 58.1741C1094.44 56.7023 1093.55 55.6019 1092.88 54.8642C1092.54 54.4952 1092.26 54.2164 1092.05 54.0265C1091.95 53.9316 1091.87 53.8589 1091.81 53.8082C1091.78 53.7829 1091.76 53.763 1091.74 53.7487C1091.73 53.7415 1091.73 53.7357 1091.72 53.7313C1091.72 53.7291 1091.71 53.7272 1091.71 53.7257C1091.71 53.7249 1091.71 53.7242 1091.71 53.7237C1091.71 53.7234 1091.71 53.723 1091.71 53.7228C1091.71 53.7225 1091.71 53.7221 1091.08 54.5ZM1096.73 71.4866C1096.7 74.1377 1095.81 76.6004 1094.43 79.2223C1093.03 81.8981 1091.24 84.5288 1089.36 87.7463C1085.66 94.0947 1082.07 102.036 1082.58 114.043L1084.58 113.957C1084.09 102.464 1087.5 94.9053 1091.09 88.7537C1092.86 85.7212 1094.78 82.8519 1096.2 80.1527C1097.65 77.3996 1098.69 74.6123 1098.73 71.5134L1096.73 71.4866ZM1083.08 196.542C1083.59 208.73 1086.52 215.133 1089.58 220.554C1092.62 225.924 1095.62 230.11 1096.59 238.12L1098.57 237.88C1097.54 229.39 1094.29 224.826 1091.33 219.571C1088.39 214.367 1085.57 208.27 1085.08 196.458L1083.08 196.542ZM1082.58 114.043C1083.09 126.034 1086.72 132.333 1090.19 137.67C1093.63 142.949 1096.73 147.087 1096.73 155H1098.73C1098.73 146.413 1095.27 141.801 1091.87 136.58C1088.51 131.417 1085.07 125.466 1084.58 113.957L1082.58 114.043ZM1096.73 155C1096.73 162.89 1093.28 167.002 1089.7 172.383C1087.91 175.068 1086.12 178.046 1084.84 181.897C1083.57 185.751 1082.83 190.435 1083.08 196.542L1085.08 196.458C1084.83 190.565 1085.55 186.124 1086.74 182.525C1087.93 178.923 1089.61 176.119 1091.36 173.492C1094.86 168.248 1098.73 163.61 1098.73 155H1096.73Z" fill="#0069FF"/>
<path d="M1098.71 53.7221C1098.28 53.3751 1097.65 53.442 1097.3 53.8716C1096.96 54.3012 1097.02 54.9308 1097.45 55.2779L1098.71 53.7221ZM1098.08 54.5C1097.45 55.2779 1097.45 55.2776 1097.45 55.2773C1097.45 55.2772 1097.45 55.277 1097.45 55.2768C1097.45 55.2766 1097.45 55.2764 1097.45 55.2763C1097.45 55.2761 1097.45 55.2763 1097.45 55.2768C1097.45 55.2777 1097.45 55.28 1097.46 55.2836C1097.47 55.2907 1097.48 55.3032 1097.5 55.3209C1097.54 55.3565 1097.61 55.4131 1097.69 55.491C1097.86 55.6469 1098.11 55.8876 1098.4 56.2139C1099 56.8668 1099.8 57.8602 1100.61 59.2009C1102.21 61.8771 1103.81 65.9468 1103.73 71.4866L1105.73 71.5134C1105.81 65.5532 1104.09 61.1229 1102.32 58.1741C1101.44 56.7023 1100.55 55.6019 1099.88 54.8642C1099.54 54.4952 1099.26 54.2164 1099.05 54.0265C1098.95 53.9316 1098.87 53.8589 1098.81 53.8082C1098.78 53.7829 1098.76 53.763 1098.74 53.7487C1098.73 53.7415 1098.73 53.7357 1098.72 53.7313C1098.72 53.7291 1098.71 53.7272 1098.71 53.7257C1098.71 53.7249 1098.71 53.7242 1098.71 53.7237C1098.71 53.7234 1098.71 53.723 1098.71 53.7228C1098.71 53.7225 1098.71 53.7221 1098.08 54.5ZM1103.73 71.4866C1103.7 74.1377 1102.81 76.6004 1101.43 79.2223C1100.03 81.8981 1098.24 84.5288 1096.36 87.7463C1092.66 94.0947 1089.07 102.036 1089.58 114.043L1091.58 113.957C1091.09 102.464 1094.5 94.9053 1098.09 88.7537C1099.86 85.7212 1101.78 82.8519 1103.2 80.1527C1104.65 77.3996 1105.69 74.6123 1105.73 71.5134L1103.73 71.4866ZM1090.08 196.542C1090.59 208.73 1093.52 215.133 1096.58 220.554C1099.62 225.924 1102.62 230.11 1103.59 238.12L1105.57 237.88C1104.54 229.39 1101.29 224.826 1098.33 219.571C1095.39 214.367 1092.57 208.27 1092.08 196.458L1090.08 196.542ZM1089.58 114.043C1090.09 126.034 1093.72 132.333 1097.19 137.67C1100.63 142.949 1103.73 147.087 1103.73 155H1105.73C1105.73 146.413 1102.27 141.801 1098.87 136.58C1095.51 131.417 1092.07 125.466 1091.58 113.957L1089.58 114.043ZM1103.73 155C1103.73 162.89 1100.28 167.002 1096.7 172.383C1094.91 175.068 1093.12 178.046 1091.84 181.897C1090.57 185.751 1089.83 190.435 1090.08 196.542L1092.08 196.458C1091.83 190.565 1092.55 186.124 1093.74 182.525C1094.93 178.923 1096.61 176.119 1098.36 173.492C1101.86 168.248 1105.73 163.61 1105.73 155H1103.73Z" fill="#0069FF"/>
<path d="M1106.71 53.7221C1106.28 53.3751 1105.65 53.442 1105.3 53.8716C1104.96 54.3012 1105.02 54.9308 1105.45 55.2779L1106.71 53.7221ZM1106.08 54.5C1105.45 55.2779 1105.45 55.2776 1105.45 55.2773C1105.45 55.2772 1105.45 55.277 1105.45 55.2768C1105.45 55.2766 1105.45 55.2764 1105.45 55.2763C1105.45 55.2761 1105.45 55.2763 1105.45 55.2768C1105.45 55.2777 1105.45 55.28 1105.46 55.2836C1105.47 55.2907 1105.48 55.3032 1105.5 55.3209C1105.54 55.3565 1105.61 55.4131 1105.69 55.491C1105.86 55.6469 1106.11 55.8876 1106.4 56.2139C1107 56.8668 1107.8 57.8602 1108.61 59.2009C1110.21 61.8771 1111.81 65.9468 1111.73 71.4866L1113.73 71.5134C1113.81 65.5532 1112.09 61.1229 1110.32 58.1741C1109.44 56.7023 1108.55 55.6019 1107.88 54.8642C1107.54 54.4952 1107.26 54.2164 1107.05 54.0265C1106.95 53.9316 1106.87 53.8589 1106.81 53.8082C1106.78 53.7829 1106.76 53.763 1106.74 53.7487C1106.73 53.7415 1106.73 53.7357 1106.72 53.7313C1106.72 53.7291 1106.71 53.7272 1106.71 53.7257C1106.71 53.7249 1106.71 53.7242 1106.71 53.7237C1106.71 53.7234 1106.71 53.723 1106.71 53.7228C1106.71 53.7225 1106.71 53.7221 1106.08 54.5ZM1111.73 71.4866C1111.7 74.1377 1110.81 76.6004 1109.43 79.2223C1108.03 81.8981 1106.24 84.5288 1104.36 87.7463C1100.66 94.0947 1097.07 102.036 1097.58 114.043L1099.58 113.957C1099.09 102.464 1102.5 94.9053 1106.09 88.7537C1107.86 85.7212 1109.78 82.8519 1111.2 80.1527C1112.65 77.3996 1113.69 74.6123 1113.73 71.5134L1111.73 71.4866ZM1098.08 196.542C1098.59 208.73 1101.52 215.133 1104.58 220.554C1107.62 225.924 1110.62 230.11 1111.59 238.12L1113.57 237.88C1112.54 229.39 1109.29 224.826 1106.33 219.571C1103.39 214.367 1100.57 208.27 1100.08 196.458L1098.08 196.542ZM1097.58 114.043C1098.09 126.034 1101.72 132.333 1105.19 137.67C1108.63 142.949 1111.73 147.087 1111.73 155H1113.73C1113.73 146.413 1110.27 141.801 1106.87 136.58C1103.51 131.417 1100.07 125.466 1099.58 113.957L1097.58 114.043ZM1111.73 155C1111.73 162.89 1108.28 167.002 1104.7 172.383C1102.91 175.068 1101.12 178.046 1099.84 181.897C1098.57 185.751 1097.83 190.435 1098.08 196.542L1100.08 196.458C1099.83 190.565 1100.55 186.124 1101.74 182.525C1102.93 178.923 1104.61 176.119 1106.36 173.492C1109.86 168.248 1113.73 163.61 1113.73 155H1111.73Z" fill="#0069FF"/>
<path d="M1114.71 53.7221C1114.28 53.3751 1113.65 53.442 1113.3 53.8716C1112.96 54.3012 1113.02 54.9308 1113.45 55.2779L1114.71 53.7221ZM1114.08 54.5C1113.45 55.2779 1113.45 55.2776 1113.45 55.2773C1113.45 55.2772 1113.45 55.277 1113.45 55.2768C1113.45 55.2766 1113.45 55.2764 1113.45 55.2763C1113.45 55.2761 1113.45 55.2763 1113.45 55.2768C1113.45 55.2777 1113.45 55.28 1113.46 55.2836C1113.47 55.2907 1113.48 55.3032 1113.5 55.3209C1113.54 55.3565 1113.61 55.4131 1113.69 55.491C1113.86 55.6469 1114.11 55.8876 1114.4 56.2139C1115 56.8668 1115.8 57.8602 1116.61 59.2009C1118.21 61.8771 1119.81 65.9468 1119.73 71.4866L1121.73 71.5134C1121.81 65.5532 1120.09 61.1229 1118.32 58.1741C1117.44 56.7023 1116.55 55.6019 1115.88 54.8642C1115.54 54.4952 1115.26 54.2164 1115.05 54.0265C1114.95 53.9316 1114.87 53.8589 1114.81 53.8082C1114.78 53.7829 1114.76 53.763 1114.74 53.7487C1114.73 53.7415 1114.73 53.7357 1114.72 53.7313C1114.72 53.7291 1114.71 53.7272 1114.71 53.7257C1114.71 53.7249 1114.71 53.7242 1114.71 53.7237C1114.71 53.7234 1114.71 53.723 1114.71 53.7228C1114.71 53.7225 1114.71 53.7221 1114.08 54.5ZM1119.73 71.4866C1119.7 74.1377 1118.81 76.6004 1117.43 79.2223C1116.03 81.8981 1114.24 84.5288 1112.36 87.7463C1108.66 94.0947 1105.07 102.036 1105.58 114.043L1107.58 113.957C1107.09 102.464 1110.5 94.9053 1114.09 88.7537C1115.86 85.7212 1117.78 82.8519 1119.2 80.1527C1120.65 77.3996 1121.69 74.6123 1121.73 71.5134L1119.73 71.4866ZM1106.08 196.542C1106.59 208.73 1109.52 215.133 1112.58 220.554C1115.62 225.924 1118.62 230.11 1119.59 238.12L1121.57 237.88C1120.54 229.39 1117.29 224.826 1114.33 219.571C1111.39 214.367 1108.57 208.27 1108.08 196.458L1106.08 196.542ZM1105.58 114.043C1106.09 126.034 1109.72 132.333 1113.19 137.67C1116.63 142.949 1119.73 147.087 1119.73 155H1121.73C1121.73 146.413 1118.27 141.801 1114.87 136.58C1111.51 131.417 1108.07 125.466 1107.58 113.957L1105.58 114.043ZM1119.73 155C1119.73 162.89 1116.28 167.002 1112.7 172.383C1110.91 175.068 1109.12 178.046 1107.84 181.897C1106.57 185.751 1105.83 190.435 1106.08 196.542L1108.08 196.458C1107.83 190.565 1108.55 186.124 1109.74 182.525C1110.93 178.923 1112.61 176.119 1114.36 173.492C1117.86 168.248 1121.73 163.61 1121.73 155H1119.73Z" fill="#0069FF"/>
<rect x="131" y="92" width="12" height="35" rx="6" stroke="#0069FF" stroke-width="2"/>
<rect x="984" y="30" width="12" height="35" rx="6" stroke="#0069FF" stroke-width="2"/>
<rect x="49.58" y="1" width="12" height="25" rx="6" stroke="#0069FF" stroke-width="2"/>
<path d="M936 130C936 133.25 933.156 136 929.5 136C925.844 136 923 133.25 923 130C923 126.75 925.844 124 929.5 124C933.156 124 936 126.75 936 130Z" stroke="#0069FF" stroke-width="2"/>
<circle cx="803" cy="84" r="6" stroke="#0069FF" stroke-width="2"/>
<circle cx="997" cy="10" r="6" stroke="#0069FF" stroke-width="2"/>
<path d="M906 238.673V227.173L919 222.173M919 222.173C918.667 217.169 919 206.673 919 206.673M919 222.173C919 222.173 919 232.173 948 232.173C977 232.173 977.5 222.173 977.5 222.173M977.5 222.173V206.673M977.5 222.173L990.5 227.173L991.5 238.673M977.5 206.673L989.5 201.173M977.5 206.673C977.5 206.673 977.079 202.253 969 199.149M919 206.673L907 201.173M919 206.673C919 206.673 919.225 201.94 928 198.829M938.5 187.673L941 196.41M941 196.41C943.122 196.257 945.449 196.173 948 196.173C950.952 196.173 953.609 196.286 956 196.488M941 196.41C935.332 196.82 931.124 197.721 928 198.829M958 187.673L956 196.488M956 196.488C961.717 196.971 965.916 197.964 969 199.149M969 199.149C969 199.149 991.5 182.673 982.5 169.673C973.5 156.673 960 166.673 960 166.673L979.5 185.673M969 199.149C969 199.149 972.5 195.673 975 192.673C977.5 189.673 979.5 185.673 979.5 185.673M979.5 185.673C979.5 185.673 970 188.173 966.5 184.173C963 180.173 964.5 171.423 964.5 171.423M928 198.829C928 198.829 904.5 178.673 915.5 168.673C926.5 158.673 936.5 166.673 936.5 166.673L918.5 185.673M928 198.829C928 198.829 924 194.649 922.5 192.411C921 190.173 918.5 185.673 918.5 185.673M918.5 185.673C918.5 185.673 923 189.173 929 185.173C935 181.173 932.125 171.423 932.125 171.423" stroke="#0069FF" stroke-width="2"/>
</svg>
